{
.appVersion = "895";
copyright = "Copyright 2016 The Montserrat and Sector Project Authors";
customParameters = (
{
name = fsType;
value = (
);
},
{
name = license;
value = "This Font Software is licensed under the SIL Open Font License Version 1.1.";
},
{
name = licenseURL;
value = "http://scripts.sil.org/OFL";
}
);
date = "2016-04-14 23:39:46 +0000";
designer = "Montserrat by Julieta Ulanovsky; Sector Gurmukhi by Gunnar Vilhjalmsson";
designerURL = "Montserrat http://www.zkysky.com.ar; Sector Gurmukhi http://universalthirst.com";
familyName = Sector;
fontMaster = (
{
alignmentZones = (
"{850, 16}",
"{682, 20}",
"{596, 12}",
"{-24, -16}"
);
ascender = 894;
capHeight = 682;
descender = -199;
id = "784662A0-BFC3-4940-8AA1-9AA8A3FE0938";
weight = Light;
weightValue = 40;
xHeight = 682;
}
);
glyphs = (
{
glyphname = A;
layers = (
{
anchors = (
{
name = ogonek;
position = "{741, 10}";
},
{
name = top;
position = "{349, 699}";
}
);
layerId = "784662A0-BFC3-4940-8AA1-9AA8A3FE0938";
paths = (
{
closed = 1;
nodes = (
"326 699 LINE",
"8 0 LINE",
"54 0 LINE",
"347 651 LINE",
"644 0 LINE",
"690 0 LINE",
"370 699 LINE"
);
},
{
closed = 1;
nodes = (
"132 241 LINE",
"132 199 LINE",
"563 199 LINE",
"563 241 LINE"
);
}
);
width = 698;
}
);
leftKerningGroup = A;
rightKerningGroup = A;
unicode = 0041;
},
{
glyphname = Aogonek;
layers = (
{
layerId = "784662A0-BFC3-4940-8AA1-9AA8A3FE0938";
paths = (
{
closed = 1;
nodes = (
"326 699 LINE",
"8 0 LINE",
"54 0 LINE",
"144 199 LINE",
"552 199 LINE",
"644 0 LINE",
"652 0 LINE",
"612 -58 OFFCURVE",
"595 -96 OFFCURVE",
"595 -129 CURVE SMOOTH",
"595 -174 OFFCURVE",
"626 -200 OFFCURVE",
"662 -200 CURVE SMOOTH",
"691 -200 OFFCURVE",
"721 -181 OFFCURVE",
"741 -155 CURVE",
"723 -135 LINE",
"705 -155 OFFCURVE",
"686 -169 OFFCURVE",
"665 -169 CURVE SMOOTH",
"642 -169 OFFCURVE",
"624 -153 OFFCURVE",
"624 -125 CURVE SMOOTH",
"624 -97 OFFCURVE",
"634 -64 OFFCURVE",
"682 0 CURVE",
"690 0 LINE",
"370 699 LINE"
);
},
{
closed = 1;
nodes = (
"536 241 LINE",
"161 241 LINE",
"347 651 LINE"
);
}
);
width = 698;
}
);
leftKerningGroup = A;
rightKerningGroup = A;
unicode = 0104;
},
{
glyphname = Aring;
layers = (
{
components = (
{
name = A;
}
);
layerId = "784662A0-BFC3-4940-8AA1-9AA8A3FE0938";
paths = (
{
closed = 1;
nodes = (
"287 896 OFFCURVE",
"235 844 OFFCURVE",
"235 784 CURVE SMOOTH",
"235 724 OFFCURVE",
"287 673 OFFCURVE",
"349 673 CURVE SMOOTH",
"412 673 OFFCURVE",
"464 724 OFFCURVE",
"464 784 CURVE SMOOTH",
"464 844 OFFCURVE",
"412 896 OFFCURVE",
"349 896 CURVE SMOOTH"
);
},
{
closed = 1;
nodes = (
"396 867 OFFCURVE",
"437 829 OFFCURVE",
"437 784 CURVE SMOOTH",
"437 739 OFFCURVE",
"396 701 OFFCURVE",
"349 701 CURVE SMOOTH",
"302 701 OFFCURVE",
"262 739 OFFCURVE",
"262 784 CURVE SMOOTH",
"262 829 OFFCURVE",
"302 867 OFFCURVE",
"349 867 CURVE SMOOTH"
);
}
);
width = 698;
}
);
leftKerningGroup = A;
leftMetricsKey = A;
rightKerningGroup = A;
rightMetricsKey = A;
unicode = 00C5;
},
{
glyphname = AE;
layers = (
{
anchors = (
{
name = bottom;
position = "{679, 0}";
},
{
name = ogonek;
position = "{939, 10}";
},
{
name = top;
position = "{604, 699}";
}
);
layerId = "784662A0-BFC3-4940-8AA1-9AA8A3FE0938";
paths = (
{
closed = 1;
nodes = (
"426 699 LINE",
"8 0 LINE",
"54 0 LINE",
"447 660 LINE",
"736 660 LINE",
"740 699 LINE"
);
},
{
closed = 1;
nodes = (
"164 249 LINE",
"163 211 LINE",
"500 211 LINE",
"502 249 LINE"
);
},
{
closed = 1;
nodes = (
"475 699 LINE",
"475 0 LINE",
"939 0 LINE",
"939 42 LINE",
"517 42 LINE",
"517 337 LINE",
"881 337 LINE",
"881 379 LINE",
"517 379 LINE",
"517 658 LINE",
"926 658 LINE",
"926 699 LINE"
);
}
);
width = 1002;
}
);
leftKerningGroup = A;
leftMetricsKey = A;
rightKerningGroup = E;
rightMetricsKey = E;
unicode = 00C6;
},
{
glyphname = B;
layers = (
{
layerId = "784662A0-BFC3-4940-8AA1-9AA8A3FE0938";
paths = (
{
closed = 1;
nodes = (
"120 699 LINE",
"120 0 LINE",
"408 0 LINE SMOOTH",
"567 0 OFFCURVE",
"659 69 OFFCURVE",
"659 188 CURVE SMOOTH",
"659 286 OFFCURVE",
"596 352 OFFCURVE",
"489 365 CURVE",
"575 381 OFFCURVE",
"624 440 OFFCURVE",
"624 526 CURVE SMOOTH",
"624 635 OFFCURVE",
"543 699 OFFCURVE",
"406 699 CURVE SMOOTH"
);
},
{
closed = 1;
nodes = (
"540 341 OFFCURVE",
"617 287 OFFCURVE",
"617 193 CURVE SMOOTH",
"617 96 OFFCURVE",
"540 41 OFFCURVE",
"405 41 CURVE SMOOTH",
"162 41 LINE",
"162 341 LINE",
"405 341 LINE SMOOTH"
);
},
{
closed = 1;
nodes = (
"517 658 OFFCURVE",
"582 608 OFFCURVE",
"582 521 CURVE SMOOTH",
"582 432 OFFCURVE",
"517 382 OFFCURVE",
"405 382 CURVE SMOOTH",
"162 382 LINE",
"162 658 LINE",
"405 658 LINE SMOOTH"
);
}
);
width = 725;
}
);
leftKerningGroup = H;
rightKerningGroup = B;
unicode = 0042;
},
{
glyphname = C;
layers = (
{
anchors = (
{
name = bottom;
position = "{394, 0}";
},
{
name = top;
position = "{357, 699}";
}
);
layerId = "784662A0-BFC3-4940-8AA1-9AA8A3FE0938";
paths = (
{
closed = 1;
nodes = (
"208 700 OFFCURVE",
"46 544 OFFCURVE",
"46 350 CURVE SMOOTH",
"46 156 OFFCURVE",
"207 -1 OFFCURVE",
"406 -1 CURVE SMOOTH",
"500 -1 OFFCURVE",
"588 36 OFFCURVE",
"654 96 CURVE",
"627 125 LINE",
"569 72 OFFCURVE",
"491 40 OFFCURVE",
"407 40 CURVE SMOOTH",
"231 40 OFFCURVE",
"87 179 OFFCURVE",
"87 351 CURVE SMOOTH",
"87 522 OFFCURVE",
"231 660 OFFCURVE",
"407 660 CURVE SMOOTH",
"491 660 OFFCURVE",
"569 628 OFFCURVE",
"627 574 CURVE",
"653 606 LINE",
"588 664 OFFCURVE",
"501 700 OFFCURVE",
"407 700 CURVE SMOOTH"
);
}
);
width = 703;
}
);
leftKerningGroup = O;
rightKerningGroup = C;
unicode = 0043;
},
{
glyphname = D;
layers = (
{
anchors = (
{
name = center;
position = "{401, 350}";
},
{
name = top;
position = "{381, 699}";
}
);
layerId = "784662A0-BFC3-4940-8AA1-9AA8A3FE0938";
paths = (
{
closed = 1;
nodes = (
"120 699 LINE",
"120 0 LINE",
"397 0 LINE SMOOTH",
"597 0 OFFCURVE",
"757 155 OFFCURVE",
"757 349 CURVE SMOOTH",
"757 545 OFFCURVE",
"597 699 OFFCURVE",
"398 699 CURVE SMOOTH"
);
},
{
closed = 1;
nodes = (
"573 658 OFFCURVE",
"715 521 OFFCURVE",
"715 349 CURVE SMOOTH",
"715 178 OFFCURVE",
"574 41 OFFCURVE",
"399 41 CURVE SMOOTH",
"162 41 LINE",
"162 658 LINE",
"398 658 LINE SMOOTH"
);
}
);
width = 803;
}
);
leftKerningGroup = H;
rightKerningGroup = O;
unicode = 0044;
},
{
glyphname = Eth;
layers = (
{
components = (
{
name = D;
transform = "{1, 0, 0, 1, 4, 0}";
}
);
layerId = "784662A0-BFC3-4940-8AA1-9AA8A3FE0938";
paths = (
{
closed = 1;
nodes = (
"0 368 LINE",
"0 336 LINE",
"414 336 LINE",
"414 368 LINE"
);
}
);
width = 807;
}
);
leftKerningGroup = H;
rightKerningGroup = O;
rightMetricsKey = D;
unicode = 00D0;
},
{
glyphname = E;
layers = (
{
anchors = (
{
name = bottom;
position = "{324, 0}";
},
{
name = ogonek;
position = "{584, 10}";
},
{
name = top;
position = "{350, 699}";
}
);
layerId = "784662A0-BFC3-4940-8AA1-9AA8A3FE0938";
paths = (
{
closed = 1;
nodes = (
"120 699 LINE",
"120 0 LINE",
"584 0 LINE",
"584 41 LINE",
"162 41 LINE",
"162 337 LINE",
"526 337 LINE",
"526 379 LINE",
"162 379 LINE",
"162 658 LINE",
"571 658 LINE",
"571 699 LINE"
);
}
);
width = 647;
}
);
leftKerningGroup = H;
rightKerningGroup = E;
unicode = 0045;
},
{
glyphname = Eogonek;
layers = (
{
layerId = "784662A0-BFC3-4940-8AA1-9AA8A3FE0938";
paths = (
{
closed = 1;
nodes = (
"120 699 LINE",
"120 0 LINE",
"499 0 LINE",
"457 -59 OFFCURVE",
"441 -96 OFFCURVE",
"441 -129 CURVE SMOOTH",
"441 -174 OFFCURVE",
"471 -200 OFFCURVE",
"508 -200 CURVE SMOOTH",
"537 -200 OFFCURVE",
"567 -181 OFFCURVE",
"587 -155 CURVE",
"568 -135 LINE",
"551 -155 OFFCURVE",
"532 -169 OFFCURVE",
"511 -169 CURVE SMOOTH",
"487 -169 OFFCURVE",
"470 -153 OFFCURVE",
"470 -125 CURVE SMOOTH",
"470 -95 OFFCURVE",
"482 -62 OFFCURVE",
"528 0 CURVE",
"586 0 LINE",
"586 39 LINE",
"162 39 LINE",
"162 339 LINE",
"528 339 LINE",
"528 378 LINE",
"162 378 LINE",
"162 660 LINE",
"573 660 LINE",
"573 699 LINE"
);
}
);
width = 649;
}
);
leftKerningGroup = H;
rightKerningGroup = E;
unicode = 0118;
},
{
glyphname = F;
layers = (
{
layerId = "784662A0-BFC3-4940-8AA1-9AA8A3FE0938";
paths = (
{
closed = 1;
nodes = (
"120 699 LINE",
"120 0 LINE",
"162 0 LINE",
"162 314 LINE",
"498 314 LINE",
"498 356 LINE",
"162 356 LINE",
"162 658 LINE",
"541 658 LINE",
"541 699 LINE"
);
}
);
width = 552;
}
);
leftKerningGroup = H;
rightKerningGroup = F;
unicode = 0046;
},
{
glyphname = G;
layers = (
{
anchors = (
{
name = bottom;
position = "{382, 0}";
},
{
name = top;
position = "{382, 699}";
}
);
layerId = "784662A0-BFC3-4940-8AA1-9AA8A3FE0938";
paths = (
{
closed = 1;
nodes = (
"208 700 OFFCURVE",
"46 544 OFFCURVE",
"46 350 CURVE SMOOTH",
"46 156 OFFCURVE",
"208 -1 OFFCURVE",
"407 -1 CURVE SMOOTH",
"500 -1 OFFCURVE",
"589 34 OFFCURVE",
"655 90 CURVE",
"629 121 LINE",
"570 70 OFFCURVE",
"491 39 OFFCURVE",
"409 39 CURVE SMOOTH",
"232 39 OFFCURVE",
"87 178 OFFCURVE",
"87 350 CURVE SMOOTH",
"87 521 OFFCURVE",
"231 660 OFFCURVE",
"409 660 CURVE SMOOTH",
"492 660 OFFCURVE",
"571 629 OFFCURVE",
"630 577 CURVE",
"655 608 LINE",
"590 665 OFFCURVE",
"502 700 OFFCURVE",
"409 700 CURVE SMOOTH"
);
},
{
closed = 1;
nodes = (
"617 343 LINE",
"617 90 LINE",
"655 90 LINE",
"655 343 LINE"
);
}
);
width = 758;
}
);
leftKerningGroup = O;
rightKerningGroup = G;
unicode = 0047;
},
{
glyphname = H;
layers = (
{
anchors = (
{
name = center;
position = "{399, 350}";
},
{
name = top;
position = "{400, 699}";
}
);
layerId = "784662A0-BFC3-4940-8AA1-9AA8A3FE0938";
paths = (
{
closed = 1;
nodes = (
"635 699 LINE",
"635 371 LINE",
"162 371 LINE",
"162 699 LINE",
"120 699 LINE",
"120 0 LINE",
"162 0 LINE",
"162 330 LINE",
"635 330 LINE",
"635 0 LINE",
"677 0 LINE",
"677 699 LINE"
);
}
);
width = 797;
}
);
leftKerningGroup = H;
rightKerningGroup = H;
unicode = 0048;
},
{
glyphname = Hbar;
layers = (
{
components = (
{
name = H;
transform = "{1, 0, 0, 1, 14, 0}";
}
);
layerId = "784662A0-BFC3-4940-8AA1-9AA8A3FE0938";
paths = (
{
closed = 1;
nodes = (
"52 561 LINE",
"52 525 LINE",
"774 525 LINE",
"774 561 LINE"
);
}
);
width = 826;
}
);
leftKerningGroup = H;
rightKerningGroup = H;
unicode = 0126;
},
{
glyphname = I;
layers = (
{
anchors = (
{
name = ogonek;
position = "{216, 10}";
},
{
name = top;
position = "{141, 699}";
}
);
layerId = "784662A0-BFC3-4940-8AA1-9AA8A3FE0938";
paths = (
{
closed = 1;
nodes = (
"120 699 LINE",
"120 0 LINE",
"162 0 LINE",
"162 699 LINE"
);
}
);
width = 282;
}
);
leftKerningGroup = H;
rightKerningGroup = H;
unicode = 0049;
},
{
glyphname = Iogonek;
layers = (
{
layerId = "784662A0-BFC3-4940-8AA1-9AA8A3FE0938";
paths = (
{
closed = 1;
nodes = (
"198 -135 LINE",
"180 -155 OFFCURVE",
"161 -169 OFFCURVE",
"140 -169 CURVE SMOOTH",
"117 -169 OFFCURVE",
"99 -153 OFFCURVE",
"99 -125 CURVE SMOOTH",
"99 -95 OFFCURVE",
"111 -61 OFFCURVE",
"156 0 CURVE",
"162 0 LINE",
"162 699 LINE",
"120 699 LINE",
"120 3 LINE",
"129 3 LINE",
"87 -55 OFFCURVE",
"70 -96 OFFCURVE",
"70 -129 CURVE SMOOTH",
"70 -174 OFFCURVE",
"101 -200 OFFCURVE",
"137 -200 CURVE SMOOTH",
"167 -200 OFFCURVE",
"196 -181 OFFCURVE",
"216 -155 CURVE"
);
}
);
width = 282;
}
);
leftKerningGroup = H;
rightKerningGroup = H;
unicode = 012E;
},
{
glyphname = J;
layers = (
{
anchors = (
{
name = top;
position = "{212, 699}";
}
);
layerId = "784662A0-BFC3-4940-8AA1-9AA8A3FE0938";
paths = (
{
closed = 1;
nodes = (
"66 699 LINE",
"66 658 LINE",
"323 658 LINE",
"323 203 LINE",
"323 99 OFFCURVE",
"273 42 OFFCURVE",
"183 42 CURVE",
"123 42 OFFCURVE",
"67 73 OFFCURVE",
"25 130 CURVE",
"2 97 LINE",
"48 34 OFFCURVE",
"112 -1 OFFCURVE",
"183 -1 CURVE",
"299 -1 OFFCURVE",
"365 71 OFFCURVE",
"365 202 CURVE",
"365 699 LINE"
);
}
);
width = 468;
}
);
leftKerningGroup = J;
rightKerningGroup = U;
unicode = 004A;
},
{
glyphname = K;
layers = (
{
anchors = (
{
name = bottom;
position = "{339, 0}";
},
{
name = top;
position = "{339, 699}";
}
);
layerId = "784662A0-BFC3-4940-8AA1-9AA8A3FE0938";
paths = (
{
closed = 1;
nodes = (
"580 699 LINE",
"162 249 LINE",
"162 699 LINE",
"120 699 LINE",
"120 0 LINE",
"162 0 LINE",
"162 188 LINE",
"632 699 LINE"
);
},
{
closed = 1;
nodes = (
"311 362 LINE",
"601 0 LINE",
"654 0 LINE",
"338 400 LINE"
);
}
);
width = 681;
}
);
leftKerningGroup = H;
rightKerningGroup = X;
unicode = 004B;
},
{
glyphname = L;
layers = (
{
anchors = (
{
name = bottom;
position = "{288, 0}";
},
{
name = top;
position = "{149, 699}";
}
);
layerId = "784662A0-BFC3-4940-8AA1-9AA8A3FE0938";
paths = (
{
closed = 1;
nodes = (
"120 699 LINE",
"120 0 LINE",
"473 0 LINE",
"473 41 LINE",
"162 41 LINE",
"162 699 LINE"
);
}
);
width = 501;
}
);
leftKerningGroup = H;
rightKerningGroup = L;
unicode = 004C;
},
{
glyphname = Lslash;
layers = (
{
components = (
{
name = L;
transform = "{1, 0, 0, 1, 13, 0}";
}
);
layerId = "784662A0-BFC3-4940-8AA1-9AA8A3FE0938";
paths = (
{
closed = 1;
nodes = (
"29 426 LINE",
"37 393 LINE",
"361 487 LINE",
"353 521 LINE"
);
}
);
width = 514;
}
);
leftKerningGroup = H;
rightKerningGroup = L;
rightMetricsKey = L;
unicode = 0141;
},
{
glyphname = M;
layers = (
{
layerId = "784662A0-BFC3-4940-8AA1-9AA8A3FE0938";
paths = (
{
closed = 1;
nodes = (
"738 699 LINE",
"459 149 LINE SMOOTH",
"178 699 LINE",
"120 699 LINE",
"120 0 LINE",
"160 0 LINE",
"160 641 LINE",
"449 76 LINE",
"468 76 LINE",
"755 641 LINE",
"756 0 LINE",
"796 0 LINE",
"796 699 LINE"
);
}
);
width = 916;
}
);
leftKerningGroup = H;
rightKerningGroup = H;
unicode = 004D;
},
{
glyphname = N;
layers = (
{
anchors = (
{
name = bottom;
position = "{399, 0}";
},
{
name = top;
position = "{399, 699}";
}
);
layerId = "784662A0-BFC3-4940-8AA1-9AA8A3FE0938";
paths = (
{
closed = 1;
nodes = (
"636 699 LINE",
"636 64 LINE",
"169 699 LINE",
"120 699 LINE",
"120 0 LINE",
"162 0 LINE",
"162 635 LINE",
"628 0 LINE",
"677 0 LINE",
"677 699 LINE"
);
}
);
width = 797;
}
);
leftKerningGroup = H;
rightKerningGroup = H;
unicode = 004E;
},
{
glyphname = Eng;
layers = (
{
anchors = (
{
name = bottom;
position = "{399, 0}";
},
{
name = top;
position = "{399, 699}";
}
);
layerId = "784662A0-BFC3-4940-8AA1-9AA8A3FE0938";
paths = (
{
closed = 1;
nodes = (
"635 -98 OFFCURVE",
"584 -154 OFFCURVE",
"494 -154 CURVE SMOOTH",
"436 -154 OFFCURVE",
"381 -126 OFFCURVE",
"339 -71 CURVE",
"316 -105 LINE",
"361 -164 OFFCURVE",
"424 -198 OFFCURVE",
"495 -198 CURVE SMOOTH",
"611 -198 OFFCURVE",
"677 -125 OFFCURVE",
"677 0 CURVE",
"635 8 LINE"
);
},
{
closed = 1;
nodes = (
"636 699 LINE",
"636 64 LINE",
"169 699 LINE",
"120 699 LINE",
"120 0 LINE",
"162 0 LINE",
"162 635 LINE",
"628 0 LINE",
"677 0 LINE",
"677 699 LINE"
);
}
);
width = 797;
}
);
leftKerningGroup = H;
rightKerningGroup = H;
unicode = 014A;
},
{
glyphname = O;
layers = (
{
anchors = (
{
name = top;
position = "{407, 699}";
}
);
layerId = "784662A0-BFC3-4940-8AA1-9AA8A3FE0938";
paths = (
{
closed = 1;
nodes = (
"208 700 OFFCURVE",
"46 544 OFFCURVE",
"46 350 CURVE SMOOTH",
"46 156 OFFCURVE",
"208 -1 OFFCURVE",
"408 -1 CURVE SMOOTH",
"607 -1 OFFCURVE",
"769 156 OFFCURVE",
"769 350 CURVE SMOOTH",
"769 544 OFFCURVE",
"607 700 OFFCURVE",
"408 700 CURVE SMOOTH"
);
},
{
closed = 1;
nodes = (
"584 659 OFFCURVE",
"728 521 OFFCURVE",
"728 350 CURVE SMOOTH",
"728 179 OFFCURVE",
"584 40 OFFCURVE",
"409 40 CURVE SMOOTH",
"234 40 OFFCURVE",
"89 179 OFFCURVE",
"89 350 CURVE SMOOTH",
"89 521 OFFCURVE",
"233 659 OFFCURVE",
"409 659 CURVE SMOOTH"
);
}
);
width = 816;
}
);
leftKerningGroup = O;
rightKerningGroup = O;
unicode = 004F;
},
{
glyphname = Oslash;
layers = (
{
anchors = (
{
name = top;
position = "{406, 699}";
}
);
components = (
{
name = O;
}
);
layerId = "784662A0-BFC3-4940-8AA1-9AA8A3FE0938";
paths = (
{
closed = 1;
nodes = (
"533 815 LINE",
"225 -135 LINE",
"257 -135 LINE",
"565 815 LINE"
);
}
);
width = 816;
}
);
leftKerningGroup = O;
leftMetricsKey = O;
rightKerningGroup = O;
rightMetricsKey = O;
unicode = 00D8;
},
{
glyphname = OE;
layers = (
{
anchors = (
{
name = bottom;
position = "{768, 0}";
},
{
name = ogonek;
position = "{1029, 10}";
},
{
name = top;
position = "{546, 699}";
}
);
layerId = "784662A0-BFC3-4940-8AA1-9AA8A3FE0938";
paths = (
{
closed = 1;
nodes = (
"407 699 LINE",
"208 699 OFFCURVE",
"46 543 OFFCURVE",
"46 350 CURVE SMOOTH",
"46 156 OFFCURVE",
"208 0 OFFCURVE",
"407 0 CURVE",
"576 0 LINE",
"576 39 LINE",
"408 41 LINE",
"231 41 OFFCURVE",
"87 178 OFFCURVE",
"87 350 CURVE SMOOTH",
"87 521 OFFCURVE",
"231 658 OFFCURVE",
"408 658 CURVE",
"574 658 LINE",
"576 699 LINE"
);
},
{
closed = 1;
nodes = (
"564 699 LINE",
"564 0 LINE",
"1029 0 LINE",
"1029 42 LINE",
"606 42 LINE",
"606 337 LINE",
"970 337 LINE",
"970 379 LINE",
"606 379 LINE",
"606 658 LINE",
"1015 658 LINE",
"1015 699 LINE"
);
}
);
width = 1092;
}
);
leftKerningGroup = O;
leftMetricsKey = O;
rightKerningGroup = E;
rightMetricsKey = E;
unicode = 0152;
},
{
glyphname = P;
layers = (
{
layerId = "784662A0-BFC3-4940-8AA1-9AA8A3FE0938";
paths = (
{
closed = 1;
nodes = (
"120 699 LINE",
"120 0 LINE",
"162 0 LINE",
"162 233 LINE",
"366 233 LINE SMOOTH",
"538 233 OFFCURVE",
"635 319 OFFCURVE",
"635 469 CURVE SMOOTH",
"635 615 OFFCURVE",
"538 699 OFFCURVE",
"366 699 CURVE SMOOTH"
);
},
{
closed = 1;
nodes = (
"512 658 OFFCURVE",
"595 591 OFFCURVE",
"595 468 CURVE SMOOTH",
"595 343 OFFCURVE",
"512 274 OFFCURVE",
"366 274 CURVE SMOOTH",
"162 274 LINE",
"162 658 LINE",
"366 658 LINE SMOOTH"
);
}
);
width = 664;
}
);
leftKerningGroup = H;
rightKerningGroup = P;
unicode = 0050;
},
{
glyphname = Thorn;
layers = (
{
layerId = "784662A0-BFC3-4940-8AA1-9AA8A3FE0938";
paths = (
{
closed = 1;
nodes = (
"149 590 LINE",
"154 551 LINE",
"339 551 LINE SMOOTH",
"510 551 OFFCURVE",
"594 490 OFFCURVE",
"594 366 CURVE SMOOTH",
"594 239 OFFCURVE",
"510 176 OFFCURVE",
"339 176 CURVE SMOOTH",
"156 176 LINE",
"156 137 LINE",
"340 137 LINE SMOOTH",
"537 137 OFFCURVE",
"637 215 OFFCURVE",
"637 367 CURVE SMOOTH",
"637 515 OFFCURVE",
"537 590 OFFCURVE",
"340 590 CURVE SMOOTH"
);
},
{
closed = 1;
nodes = (
"120 699 LINE",
"120 0 LINE",
"162 0 LINE",
"162 699 LINE"
);
}
);
width = 666;
}
);
leftKerningGroup = H;
leftMetricsKey = H;
rightKerningGroup = Thorn;
rightMetricsKey = P;
unicode = 00DE;
},
{
glyphname = Q;
layers = (
{
components = (
{
name = O;
}
);
layerId = "784662A0-BFC3-4940-8AA1-9AA8A3FE0938";
paths = (
{
closed = 1;
nodes = (
"423 2 LINE",
"497 -86 OFFCURVE",
"570 -131 OFFCURVE",
"644 -131 CURVE SMOOTH",
"699 -131 OFFCURVE",
"756 -106 OFFCURVE",
"810 -55 CURVE",
"789 -24 LINE",
"740 -68 OFFCURVE",
"692 -92 OFFCURVE",
"647 -92 CURVE SMOOTH",
"587 -92 OFFCURVE",
"526 -53 OFFCURVE",
"457 22 CURVE"
);
}
);
width = 836;
}
);
leftKerningGroup = O;
rightKerningGroup = O;
unicode = 0051;
},
{
glyphname = R;
layers = (
{
anchors = (
{
name = bottom;
position = "{361, 0}";
},
{
name = top;
position = "{344, 699}";
}
);
layerId = "784662A0-BFC3-4940-8AA1-9AA8A3FE0938";
paths = (
{
closed = 1;
nodes = (
"120 699 LINE",
"120 0 LINE",
"162 0 LINE",
"162 233 LINE",
"367 233 LINE SMOOTH",
"540 233 OFFCURVE",
"638 319 OFFCURVE",
"638 469 CURVE SMOOTH",
"638 615 OFFCURVE",
"540 699 OFFCURVE",
"367 699 CURVE SMOOTH"
);
},
{
closed = 1;
nodes = (
"413 255 LINE",
"592 0 LINE",
"641 0 LINE",
"458 255 LINE"
);
},
{
closed = 1;
nodes = (
"514 658 OFFCURVE",
"598 591 OFFCURVE",
"598 468 CURVE SMOOTH",
"598 343 OFFCURVE",
"514 274 OFFCURVE",
"368 274 CURVE SMOOTH",
"162 274 LINE",
"162 658 LINE",
"368 658 LINE SMOOTH"
);
}
);
width = 722;
}
);
leftKerningGroup = H;
rightKerningGroup = R;
unicode = 0052;
},
{
glyphname = S;
layers = (
{
anchors = (
{
name = bottom;
position = "{301, 0}";
},
{
name = top;
position = "{294, 699}";
}
);
layerId = "784662A0-BFC3-4940-8AA1-9AA8A3FE0938";
paths = (
{
closed = 1;
nodes = (
"168 701 OFFCURVE",
"77 636 OFFCURVE",
"77 535 CURVE",
"77 283 OFFCURVE",
"487 395 OFFCURVE",
"486 176 CURVE",
"486 94 OFFCURVE",
"409 42 OFFCURVE",
"288 42 CURVE",
"206 42 OFFCURVE",
"117 78 OFFCURVE",
"60 137 CURVE",
"38 100 LINE",
"99 40 OFFCURVE",
"195 -1 OFFCURVE",
"287 -1 CURVE",
"434 -1 OFFCURVE",
"530 69 OFFCURVE",
"530 177 CURVE",
"532 435 OFFCURVE",
"122 325 OFFCURVE",
"122 538 CURVE",
"122 611 OFFCURVE",
"194 657 OFFCURVE",
"305 657 CURVE",
"365 657 OFFCURVE",
"435 640 OFFCURVE",
"487 606 CURVE",
"506 644 LINE",
"454 678 OFFCURVE",
"378 701 OFFCURVE",
"307 701 CURVE"
);
}
);
width = 599;
}
);
leftKerningGroup = S;
rightKerningGroup = S;
unicode = 0053;
},
{
glyphname = T;
layers = (
{
anchors = (
{
name = bottom;
position = "{257, 0}";
},
{
name = center;
position = "{267, 350}";
},
{
name = top;
position = "{271, 699}";
}
);
layerId = "784662A0-BFC3-4940-8AA1-9AA8A3FE0938";
paths = (
{
closed = 1;
nodes = (
"12 699 LINE",
"12 658 LINE",
"248 658 LINE",
"248 0 LINE",
"290 0 LINE",
"290 658 LINE",
"526 658 LINE",
"526 699 LINE"
);
}
);
width = 538;
}
);
leftKerningGroup = T;
rightKerningGroup = T;
unicode = 0054;
},
{
glyphname = U;
layers = (
{
anchors = (
{
name = ogonek;
position = "{531, 10}";
},
{
name = top;
position = "{386, 699}";
}
);
layerId = "784662A0-BFC3-4940-8AA1-9AA8A3FE0938";
paths = (
{
closed = 1;
nodes = (
"627 699 LINE",
"627 286 LINE",
"627 130 OFFCURVE",
"539 40 OFFCURVE",
"386 40 CURVE",
"234 40 OFFCURVE",
"145 130 OFFCURVE",
"145 286 CURVE",
"145 699 LINE",
"103 699 LINE",
"103 286 LINE",
"103 104 OFFCURVE",
"207 -1 OFFCURVE",
"386 -1 CURVE",
"565 -1 OFFCURVE",
"669 104 OFFCURVE",
"669 286 CURVE",
"669 699 LINE"
);
}
);
width = 772;
}
);
leftKerningGroup = U;
rightKerningGroup = U;
unicode = 0055;
},
{
glyphname = Uogonek;
layers = (
{
layerId = "784662A0-BFC3-4940-8AA1-9AA8A3FE0938";
paths = (
{
closed = 1;
nodes = (
"627 699 LINE",
"627 286 LINE",
"627 130 OFFCURVE",
"539 40 OFFCURVE",
"386 40 CURVE",
"234 40 OFFCURVE",
"145 130 OFFCURVE",
"145 286 CURVE",
"145 699 LINE",
"103 699 LINE",
"103 286 LINE",
"103 104 OFFCURVE",
"207 -1 OFFCURVE",
"386 -1 CURVE",
"565 -1 OFFCURVE",
"669 104 OFFCURVE",
"669 286 CURVE",
"669 699 LINE"
);
},
{
closed = 1;
nodes = (
"457 20 LINE",
"405 -48 OFFCURVE",
"385 -91 OFFCURVE",
"385 -129 CURVE SMOOTH",
"385 -174 OFFCURVE",
"416 -200 OFFCURVE",
"452 -200 CURVE SMOOTH",
"482 -200 OFFCURVE",
"511 -181 OFFCURVE",
"531 -155 CURVE",
"513 -135 LINE",
"495 -155 OFFCURVE",
"476 -169 OFFCURVE",
"455 -169 CURVE SMOOTH",
"432 -169 OFFCURVE",
"414 -153 OFFCURVE",
"414 -125 CURVE SMOOTH",
"414 -91 OFFCURVE",
"430 -52 OFFCURVE",
"486 20 CURVE"
);
}
);
width = 772;
}
);
leftKerningGroup = U;
rightKerningGroup = U;
unicode = 0172;
},
{
glyphname = V;
layers = (
{
layerId = "784662A0-BFC3-4940-8AA1-9AA8A3FE0938";
paths = (
{
closed = 1;
nodes = (
"585 699 LINE",
"320 50 LINE",
"54 699 LINE",
"8 699 LINE",
"297 0 LINE",
"341 0 LINE",
"631 699 LINE"
);
}
);
width = 640;
}
);
leftKerningGroup = V;
rightKerningGroup = V;
unicode = 0056;
},
{
glyphname = W;
layers = (
{
anchors = (
{
name = top;
position = "{500, 699}";
}
);
layerId = "784662A0-BFC3-4940-8AA1-9AA8A3FE0938";
paths = (
{
closed = 1;
nodes = (
"947 699 LINE",
"735 50 LINE",
"522 699 LINE",
"479 699 LINE",
"267 50 LINE",
"54 699 LINE",
"8 699 LINE",
"244 0 LINE",
"287 0 LINE",
"500 640 LINE",
"712 0 LINE",
"756 0 LINE",
"992 699 LINE"
);
}
);
width = 998;
}
);
leftKerningGroup = V;
rightKerningGroup = V;
unicode = 0057;
},
{
glyphname = X;
layers = (
{
layerId = "784662A0-BFC3-4940-8AA1-9AA8A3FE0938";
paths = (
{
closed = 1;
nodes = (
"531 699 LINE",
"314 398 LINE",
"97 699 LINE",
"48 699 LINE",
"288 361 LINE",
"29 0 LINE",
"78 0 LINE",
"314 326 LINE",
"550 0 LINE",
"600 0 LINE",
"340 363 LINE",
"581 699 LINE"
);
}
);
width = 638;
}
);
leftKerningGroup = X;
rightKerningGroup = X;
unicode = 0058;
},
{
glyphname = Y;
layers = (
{
anchors = (
{
name = top;
position = "{306, 699}";
}
);
layerId = "784662A0-BFC3-4940-8AA1-9AA8A3FE0938";
paths = (
{
closed = 1;
nodes = (
"560 699 LINE",
"308 306 LINE",
"53 699 LINE",
"8 699 LINE",
"304 229 LINE",
"312 229 LINE",
"605 699 LINE"
);
},
{
closed = 1;
nodes = (
"288 282 LINE",
"288 0 LINE",
"330 0 LINE",
"330 282 LINE"
);
}
);
width = 613;
}
);
leftKerningGroup = V;
rightKerningGroup = V;
unicode = 0059;
},
{
glyphname = Z;
layers = (
{
anchors = (
{
name = top;
position = "{329, 699}";
}
);
layerId = "784662A0-BFC3-4940-8AA1-9AA8A3FE0938";
paths = (
{
closed = 1;
nodes = (
"63 699 LINE",
"63 658 LINE",
"551 658 LINE",
"49 40 LINE",
"49 0 LINE",
"605 0 LINE",
"605 41 LINE",
"100 41 LINE",
"602 659 LINE",
"602 699 LINE"
);
}
);
width = 654;
}
);
leftKerningGroup = Z;
rightKerningGroup = Z;
unicode = 005A;
},
{
glyphname = A.ss01;
layers = (
{
anchors = (
{
name = ogonek;
position = "{704, 10}";
},
{
name = top;
position = "{386, 699}";
}
);
layerId = "784662A0-BFC3-4940-8AA1-9AA8A3FE0938";
paths = (
{
closed = 1;
nodes = (
"208 700 OFFCURVE",
"103 593 OFFCURVE",
"103 413 CURVE SMOOTH",
"103 0 LINE",
"145 0 LINE",
"145 215 LINE",
"628 215 LINE",
"628 0 LINE",
"670 0 LINE",
"670 413 LINE SMOOTH",
"670 593 OFFCURVE",
"565 700 OFFCURVE",
"386 700 CURVE SMOOTH"
);
},
{
closed = 1;
nodes = (
"539 659 OFFCURVE",
"628 567 OFFCURVE",
"628 413 CURVE SMOOTH",
"628 257 LINE",
"145 257 LINE",
"145 413 LINE SMOOTH",
"145 567 OFFCURVE",
"235 659 OFFCURVE",
"387 659 CURVE SMOOTH"
);
}
);
width = 773;
}
);
leftKerningGroup = A.ss01;
leftMetricsKey = U;
rightKerningGroup = A.ss01;
rightMetricsKey = U;
},
{
glyphname = Aogonek.ss01;
layers = (
{
layerId = "784662A0-BFC3-4940-8AA1-9AA8A3FE0938";
paths = (
{
closed = 1;
nodes = (
"208 700 OFFCURVE",
"103 593 OFFCURVE",
"103 413 CURVE SMOOTH",
"103 0 LINE",
"145 0 LINE",
"145 216 LINE",
"628 216 LINE",
"628 0 LINE",
"637 0 LINE",
"595 -59 OFFCURVE",
"577 -96 OFFCURVE",
"577 -129 CURVE SMOOTH",
"577 -174 OFFCURVE",
"608 -200 OFFCURVE",
"644 -200 CURVE SMOOTH",
"673 -200 OFFCURVE",
"703 -181 OFFCURVE",
"723 -155 CURVE",
"705 -135 LINE",
"687 -155 OFFCURVE",
"668 -169 OFFCURVE",
"647 -169 CURVE SMOOTH",
"624 -169 OFFCURVE",
"606 -153 OFFCURVE",
"606 -125 CURVE SMOOTH",
"606 -97 OFFCURVE",
"616 -64 OFFCURVE",
"664 0 CURVE",
"670 0 LINE",
"670 413 LINE SMOOTH",
"670 593 OFFCURVE",
"565 700 OFFCURVE",
"386 700 CURVE SMOOTH"
);
},
{
closed = 1;
nodes = (
"539 659 OFFCURVE",
"628 567 OFFCURVE",
"628 413 CURVE SMOOTH",
"628 257 LINE",
"145 257 LINE",
"145 413 LINE SMOOTH",
"145 567 OFFCURVE",
"235 659 OFFCURVE",
"387 659 CURVE SMOOTH"
);
}
);
width = 774;
}
);
leftKerningGroup = Aogonek.ss01;
rightKerningGroup = Aogonek.ss01;
},
{
glyphname = E.ss01;
layers = (
{
anchors = (
{
name = bottom;
position = "{274, 0}";
},
{
name = ogonek;
position = "{493, 10}";
},
{
name = top;
position = "{274, 699}";
}
);
layerId = "784662A0-BFC3-4940-8AA1-9AA8A3FE0938";
paths = (
{
closed = 1;
nodes = (
"184 701 OFFCURVE",
"87 628 OFFCURVE",
"87 527 CURVE SMOOTH",
"87 450 OFFCURVE",
"151 385 OFFCURVE",
"238 370 CURVE",
"132 356 OFFCURVE",
"56 280 OFFCURVE",
"56 189 CURVE SMOOTH",
"56 79 OFFCURVE",
"165 -1 OFFCURVE",
"313 -1 CURVE SMOOTH",
"386 -1 OFFCURVE",
"474 21 OFFCURVE",
"524 51 CURVE",
"506 88 LINE",
"458 61 OFFCURVE",
"377 40 OFFCURVE",
"315 40 CURVE SMOOTH",
"190 40 OFFCURVE",
"98 102 OFFCURVE",
"98 192 CURVE SMOOTH",
"98 282 OFFCURVE",
"191 348 OFFCURVE",
"317 348 CURVE SMOOTH",
"434 348 LINE",
"434 389 LINE",
"317 389 LINE SMOOTH",
"207 389 OFFCURVE",
"127 446 OFFCURVE",
"127 525 CURVE SMOOTH",
"127 604 OFFCURVE",
"208 660 OFFCURVE",
"319 660 CURVE SMOOTH",
"373 660 OFFCURVE",
"438 646 OFFCURVE",
"477 627 CURVE",
"493 663 LINE",
"451 685 OFFCURVE",
"377 701 OFFCURVE",
"318 701 CURVE SMOOTH"
);
}
);
width = 548;
}
);
leftKerningGroup = E.ss01;
leftMetricsKey = eight;
rightKerningGroup = E.ss01;
},
{
glyphname = Eogonek.ss01;
layers = (
{
layerId = "784662A0-BFC3-4940-8AA1-9AA8A3FE0938";
paths = (
{
closed = 1;
nodes = (
"184 701 OFFCURVE",
"87 628 OFFCURVE",
"87 527 CURVE SMOOTH",
"87 450 OFFCURVE",
"151 385 OFFCURVE",
"238 370 CURVE",
"132 356 OFFCURVE",
"56 280 OFFCURVE",
"56 189 CURVE SMOOTH",
"56 79 OFFCURVE",
"165 -1 OFFCURVE",
"313 -1 CURVE SMOOTH",
"386 -1 OFFCURVE",
"474 21 OFFCURVE",
"524 51 CURVE",
"506 88 LINE",
"458 61 OFFCURVE",
"377 40 OFFCURVE",
"315 40 CURVE SMOOTH",
"190 40 OFFCURVE",
"98 102 OFFCURVE",
"98 192 CURVE SMOOTH",
"98 282 OFFCURVE",
"191 348 OFFCURVE",
"317 348 CURVE SMOOTH",
"434 348 LINE",
"434 389 LINE",
"317 389 LINE SMOOTH",
"207 389 OFFCURVE",
"127 446 OFFCURVE",
"127 525 CURVE SMOOTH",
"127 604 OFFCURVE",
"208 660 OFFCURVE",
"319 660 CURVE SMOOTH",
"373 660 OFFCURVE",
"438 646 OFFCURVE",
"477 627 CURVE",
"493 663 LINE",
"451 685 OFFCURVE",
"377 701 OFFCURVE",
"318 701 CURVE SMOOTH"
);
},
{
closed = 1;
nodes = (
"423 24 LINE",
"368 -45 OFFCURVE",
"347 -90 OFFCURVE",
"347 -129 CURVE SMOOTH",
"347 -174 OFFCURVE",
"378 -200 OFFCURVE",
"414 -200 CURVE SMOOTH",
"443 -200 OFFCURVE",
"473 -181 OFFCURVE",
"493 -155 CURVE",
"475 -135 LINE",
"457 -155 OFFCURVE",
"438 -169 OFFCURVE",
"417 -169 CURVE SMOOTH",
"394 -169 OFFCURVE",
"376 -153 OFFCURVE",
"376 -125 CURVE SMOOTH",
"376 -88 OFFCURVE",
"395 -44 OFFCURVE",
"460 34 CURVE"
);
}
);
width = 548;
}
);
leftKerningGroup = Eogonek.ss01;
rightKerningGroup = Eogonek.ss01;
},
{
glyphname = F.ss01;
layers = (
{
layerId = "784662A0-BFC3-4940-8AA1-9AA8A3FE0938";
paths = (
{
closed = 1;
nodes = (
"144 0 LINE",
"144 495 LINE",
"144 594 OFFCURVE",
"208 659 OFFCURVE",
"305 659 CURVE",
"360 659 OFFCURVE",
"426 643 OFFCURVE",
"474 619 CURVE",
"487 659 LINE",
"436 684 OFFCURVE",
"367 700 OFFCURVE",
"303 700 CURVE",
"182 700 OFFCURVE",
"103 621 OFFCURVE",
"103 496 CURVE",
"103 0 LINE"
);
},
{
closed = 1;
nodes = (
"121 351 LINE",
"121 309 LINE",
"433 309 LINE",
"433 351 LINE"
);
}
);
width = 499;
}
);
leftKerningGroup = F.ss01;
leftMetricsKey = U;
rightKerningGroup = F.ss01;
},
{
glyphname = G.ss01;
layers = (
{
anchors = (
{
name = bottom;
position = "{379, 0}";
},
{
name = top;
position = "{379, 699}";
}
);
layerId = "784662A0-BFC3-4940-8AA1-9AA8A3FE0938";
paths = (
{
closed = 1;
nodes = (
"208 700 OFFCURVE",
"46 544 OFFCURVE",
"46 350 CURVE SMOOTH",
"46 156 OFFCURVE",
"207 -1 OFFCURVE",
"405 -1 CURVE SMOOTH",
"498 -1 OFFCURVE",
"586 42 OFFCURVE",
"649 108 CURVE",
"625 135 LINE",
"569 76 OFFCURVE",
"492 39 OFFCURVE",
"407 39 CURVE SMOOTH",
"231 39 OFFCURVE",
"87 178 OFFCURVE",
"87 350 CURVE SMOOTH",
"87 521 OFFCURVE",
"232 660 OFFCURVE",
"409 660 CURVE SMOOTH",
"493 660 OFFCURVE",
"571 629 OFFCURVE",
"630 577 CURVE",
"655 608 LINE",
"590 665 OFFCURVE",
"502 700 OFFCURVE",
"408 700 CURVE SMOOTH"
);
},
{
closed = 1;
nodes = (
"617 346 LINE",
"617 92 LINE",
"620 85 LINE",
"620 0 LINE",
"655 0 LINE",
"655 346 LINE"
);
}
);
width = 758;
}
);
leftKerningGroup = O;
leftMetricsKey = O;
rightKerningGroup = G;
},
{
glyphname = I.ss01;
layers = (
{
anchors = (
{
name = ogonek;
position = "{410, 10}";
},
{
name = top;
position = "{228, 699}";
}
);
layerId = "784662A0-BFC3-4940-8AA1-9AA8A3FE0938";
paths = (
{
closed = 1;
nodes = (
"58 658 LINE",
"398 658 LINE",
"398 699 LINE",
"58 699 LINE"
);
},
{
closed = 1;
nodes = (
"58 0 LINE",
"398 0 LINE",
"398 42 LINE",
"58 42 LINE"
);
},
{
closed = 1;
nodes = (
"207 699 LINE",
"207 0 LINE",
"249 0 LINE",
"249 699 LINE"
);
}
);
width = 456;
}
);
leftKerningGroup = I.ss01;
rightKerningGroup = I.ss01;
},
{
glyphname = J.ss01;
layers = (
{
anchors = (
{
name = top;
position = "{235, 699}";
}
);
layerId = "784662A0-BFC3-4940-8AA1-9AA8A3FE0938";
paths = (
{
closed = 1;
nodes = (
"66 699 LINE",
"66 658 LINE",
"323 658 LINE",
"323 103 LINE",
"323 -1 OFFCURVE",
"273 -58 OFFCURVE",
"183 -58 CURVE",
"123 -58 OFFCURVE",
"67 -27 OFFCURVE",
"25 30 CURVE",
"2 -3 LINE",
"48 -66 OFFCURVE",
"112 -101 OFFCURVE",
"183 -101 CURVE",
"299 -101 OFFCURVE",
"365 -29 OFFCURVE",
"365 102 CURVE",
"365 699 LINE"
);
}
);
width = 468;
}
);
leftKerningGroup = J.ss01;
leftMetricsKey = J;
rightKerningGroup = J.ss01;
rightMetricsKey = J;
},
{
glyphname = M.ss01;
layers = (
{
anchors = (
{
name = ogonek;
position = "{216, 10}";
},
{
name = top;
position = "{141, 699}";
}
);
layerId = "784662A0-BFC3-4940-8AA1-9AA8A3FE0938";
paths = (
{
closed = 1;
nodes = (
"250 696 OFFCURVE",
"135 580 OFFCURVE",
"135 420 CURVE",
"161 412 LINE",
"161 549 OFFCURVE",
"261 653 OFFCURVE",
"399 656 CURVE",
"514 656 OFFCURVE",
"597 564 OFFCURVE",
"597 438 CURVE",
"597 0 LINE SMOOTH",
"639 0 LINE",
"639 445 LINE",
"639 593 OFFCURVE",
"542 699 OFFCURVE",
"409 699 CURVE"
);
},
{
closed = 1;
nodes = (
"729 696 OFFCURVE",
"614 580 OFFCURVE",
"614 420 CURVE",
"640 412 LINE",
"640 549 OFFCURVE",
"740 653 OFFCURVE",
"878 656 CURVE",
"993 656 OFFCURVE",
"1076 564 OFFCURVE",
"1076 438 CURVE",
"1076 0 LINE SMOOTH",
"1118 0 LINE",
"1118 445 LINE",
"1118 593 OFFCURVE",
"1021 699 OFFCURVE",
"887 699 CURVE"
);
},
{
closed = 1;
nodes = (
"120 699 LINE",
"120 0 LINE",
"162 0 LINE",
"162 699 LINE"
);
}
);
width = 1221;
}
);
leftKerningGroup = M.ss01;
leftMetricsKey = H;
rightKerningGroup = M.ss01;
rightMetricsKey = U;
},
{
glyphname = N.ss01;
layers = (
{
anchors = (
{
name = bottom;
position = "{394, 0}";
},
{
name = ogonek;
position = "{216, 10}";
},
{
name = top;
position = "{394, 699}";
}
);
layerId = "784662A0-BFC3-4940-8AA1-9AA8A3FE0938";
paths = (
{
closed = 1;
nodes = (
"261 696 OFFCURVE",
"135 580 OFFCURVE",
"135 420 CURVE",
"161 412 LINE",
"161 549 OFFCURVE",
"272 653 OFFCURVE",
"426 656 CURVE",
"552 656 OFFCURVE",
"642 564 OFFCURVE",
"642 438 CURVE",
"642 0 LINE SMOOTH",
"684 0 LINE",
"684 445 LINE",
"684 593 OFFCURVE",
"580 699 OFFCURVE",
"435 699 CURVE"
);
},
{
closed = 1;
nodes = (
"120 699 LINE",
"120 0 LINE",
"162 0 LINE",
"162 699 LINE"
);
}
);
width = 787;
}
);
leftKerningGroup = N.ss01;
leftMetricsKey = H;
rightKerningGroup = N.ss01;
rightMetricsKey = U;
},
{
glyphname = Eng.ss01;
layers = (
{
anchors = (
{
name = bottom;
position = "{394, 0}";
},
{
name = ogonek;
position = "{216, 10}";
},
{
name = top;
position = "{394, 699}";
}
);
layerId = "784662A0-BFC3-4940-8AA1-9AA8A3FE0938";
paths = (
{
closed = 1;
nodes = (
"642 -98 OFFCURVE",
"591 -154 OFFCURVE",
"501 -154 CURVE SMOOTH",
"443 -154 OFFCURVE",
"388 -126 OFFCURVE",
"346 -71 CURVE",
"323 -105 LINE",
"368 -164 OFFCURVE",
"431 -198 OFFCURVE",
"502 -198 CURVE SMOOTH",
"618 -198 OFFCURVE",
"684 -125 OFFCURVE",
"684 0 CURVE",
"642 8 LINE"
);
},
{
closed = 1;
nodes = (
"261 696 OFFCURVE",
"135 580 OFFCURVE",
"135 420 CURVE",
"161 412 LINE",
"161 549 OFFCURVE",
"272 653 OFFCURVE",
"426 656 CURVE",
"552 656 OFFCURVE",
"642 564 OFFCURVE",
"642 438 CURVE",
"642 0 LINE SMOOTH",
"684 0 LINE",
"684 445 LINE",
"684 593 OFFCURVE",
"580 699 OFFCURVE",
"435 699 CURVE"
);
},
{
closed = 1;
nodes = (
"120 699 LINE",
"120 0 LINE",
"162 0 LINE",
"162 699 LINE"
);
}
);
width = 787;
}
);
leftKerningGroup = H;
rightKerningGroup = H;
},
{
glyphname = Q.ss01;
layers = (
{
components = (
{
name = O;
}
);
layerId = "784662A0-BFC3-4940-8AA1-9AA8A3FE0938";
paths = (
{
closed = 1;
nodes = (
"388 -133 LINE",
"426 -133 LINE",
"426 235 LINE",
"388 235 LINE"
);
}
);
width = 816;
}
);
leftKerningGroup = O;
leftMetricsKey = O;
rightKerningGroup = O;
rightMetricsKey = O;
},
{
glyphname = T.ss01;
layers = (
{
anchors = (
{
name = bottom;
position = "{292, 0}";
},
{
name = center;
position = "{307, 350}";
},
{
name = top;
position = "{307, 699}";
}
);
layerId = "784662A0-BFC3-4940-8AA1-9AA8A3FE0938";
paths = (
{
closed = 1;
nodes = (
"212 700 OFFCURVE",
"117 677 OFFCURVE",
"39 636 CURVE",
"54 597 LINE",
"129 636 OFFCURVE",
"219 657 OFFCURVE",
"305 657 CURVE SMOOTH",
"393 657 OFFCURVE",
"484 636 OFFCURVE",
"559 597 CURVE",
"574 635 LINE",
"494 677 OFFCURVE",
"400 700 OFFCURVE",
"305 700 CURVE SMOOTH"
);
},
{
closed = 1;
nodes = (
"285 676 LINE",
"285 0 LINE",
"327 0 LINE",
"327 676 LINE"
);
}
);
width = 613;
}
);
leftKerningGroup = T;
rightKerningGroup = T;
},
{
glyphname = W.ss01;
layers = (
{
anchors = (
{
name = top;
position = "{598, 699}";
}
);
layerId = "784662A0-BFC3-4940-8AA1-9AA8A3FE0938";
paths = (
{
closed = 1;
nodes = (
"1053 699 LINE",
"1053 241 LINE SMOOTH",
"1053 119 OFFCURVE",
"969 40 OFFCURVE",
"840 40 CURVE SMOOTH",
"708 40 OFFCURVE",
"620 119 OFFCURVE",
"620 241 CURVE SMOOTH",
"620 699 LINE",
"579 699 LINE",
"579 241 LINE SMOOTH",
"579 119 OFFCURVE",
"492 40 OFFCURVE",
"358 40 CURVE SMOOTH",
"229 40 OFFCURVE",
"145 119 OFFCURVE",
"145 241 CURVE SMOOTH",
"145 699 LINE",
"103 699 LINE",
"103 241 LINE SMOOTH",
"103 95 OFFCURVE",
"203 -1 OFFCURVE",
"354 -1 CURVE SMOOTH",
"474 -1 OFFCURVE",
"570 58 OFFCURVE",
"600 149 CURVE",
"629 58 OFFCURVE",
"724 -1 OFFCURVE",
"843 -1 CURVE SMOOTH",
"995 -1 OFFCURVE",
"1094 95 OFFCURVE",
"1094 241 CURVE SMOOTH",
"1094 699 LINE"
);
}
);
width = 1197;
}
);
leftKerningGroup = W.ss01;
leftMetricsKey = U;
rightKerningGroup = W.ss01;
rightMetricsKey = U;
},
{
glyphname = Y.ss01;
layers = (
{
anchors = (
{
name = top;
position = "{368, 699}";
}
);
layerId = "784662A0-BFC3-4940-8AA1-9AA8A3FE0938";
paths = (
{
closed = 1;
nodes = (
"506 162 OFFCURVE",
"618 279 OFFCURVE",
"618 441 CURVE",
"593 446 LINE",
"593 306 OFFCURVE",
"492 203 OFFCURVE",
"355 201 CURVE",
"233 201 OFFCURVE",
"145 292 OFFCURVE",
"145 418 CURVE",
"145 699 LINE SMOOTH",
"103 699 LINE",
"103 415 LINE",
"103 266 OFFCURVE",
"206 159 OFFCURVE",
"350 159 CURVE"
);
},
{
closed = 1;
nodes = (
"592 699 LINE",
"592 154 LINE",
"592 30 OFFCURVE",
"498 -60 OFFCURVE",
"369 -60 CURVE",
"277 -60 OFFCURVE",
"177 -16 OFFCURVE",
"130 44 CURVE",
"106 13 LINE",
"156 -54 OFFCURVE",
"267 -101 OFFCURVE",
"372 -101 CURVE",
"524 -101 OFFCURVE",
"633 5 OFFCURVE",
"633 153 CURVE",
"633 699 LINE"
);
}
);
width = 736;
}
);
leftKerningGroup = Y.ss01;
leftMetricsKey = U;
rightKerningGroup = Y.ss01;
rightMetricsKey = J;
},
{
glyphname = Z.ss01;
layers = (
{
anchors = (
{
name = top;
position = "{327, 699}";
}
);
layerId = "784662A0-BFC3-4940-8AA1-9AA8A3FE0938";
paths = (
{
closed = 1;
nodes = (
"323 367 LINE",
"323 328 LINE",
"538 328 LINE",
"538 367 LINE"
);
},
{
closed = 1;
nodes = (
"114 371 LINE",
"114 332 LINE",
"327 332 LINE",
"327 371 LINE"
);
},
{
closed = 1;
nodes = (
"63 699 LINE",
"63 658 LINE",
"551 658 LINE",
"49 40 LINE",
"49 0 LINE",
"605 0 LINE",
"605 41 LINE",
"100 41 LINE",
"602 659 LINE",
"602 699 LINE"
);
}
);
width = 654;
}
);
leftKerningGroup = Z.ss01;
leftMetricsKey = Z;
rightKerningGroup = Z.ss01;
rightMetricsKey = Z;
},
{
glyphname = a;
layers = (
{
anchors = (
{
name = ogonek;
position = "{514, 10}";
},
{
name = top;
position = "{278, 521}";
}
);
layerId = "784662A0-BFC3-4940-8AA1-9AA8A3FE0938";
paths = (
{
closed = 1;
nodes = (
"208 522 OFFCURVE",
"148 493 OFFCURVE",
"86 448 CURVE",
"106 416 LINE",
"161 458 OFFCURVE",
"216 484 OFFCURVE",
"281 484 CURVE",
"385 484 OFFCURVE",
"436 431 OFFCURVE",
"437 343 CURVE",
"439 0 LINE",
"480 0 LINE",
"478 346 LINE",
"477 454 OFFCURVE",
"410 522 OFFCURVE",
"287 522 CURVE"
);
},
{
closed = 1;
nodes = (
"252 292 LINE",
"132 292 OFFCURVE",
"58 239 OFFCURVE",
"58 152 CURVE",
"58 64 OFFCURVE",
"127 -1 OFFCURVE",
"230 -1 CURVE",
"335 -1 OFFCURVE",
"417 42 OFFCURVE",
"458 141 CURVE",
"439 173 LINE",
"407 80 OFFCURVE",
"334 37 OFFCURVE",
"236 37 CURVE",
"151 37 OFFCURVE",
"98 84 OFFCURVE",
"98 153 CURVE",
"98 220 OFFCURVE",
"154 255 OFFCURVE",
"256 255 CURVE",
"449 255 LINE",
"449 292 LINE"
);
}
);
width = 567;
}
);
leftKerningGroup = a;
rightKerningGroup = n;
unicode = 0061;
},
{
glyphname = aogonek;
layers = (
{
layerId = "784662A0-BFC3-4940-8AA1-9AA8A3FE0938";
paths = (
{
closed = 1;
nodes = (
"207 522 OFFCURVE",
"148 493 OFFCURVE",
"86 448 CURVE",
"106 416 LINE",
"162 458 OFFCURVE",
"216 484 OFFCURVE",
"285 484 CURVE SMOOTH",
"386 484 OFFCURVE",
"439 431 OFFCURVE",
"440 343 CURVE SMOOTH",
"440 292 LINE",
"253 292 LINE SMOOTH",
"133 292 OFFCURVE",
"58 240 OFFCURVE",
"58 150 CURVE SMOOTH",
"58 66 OFFCURVE",
"124 -1 OFFCURVE",
"236 -1 CURVE SMOOTH",
"316 -1 OFFCURVE",
"395 29 OFFCURVE",
"440 102 CURVE",
"440 5 LINE",
"446 5 LINE",
"385 -54 OFFCURVE",
"363 -94 OFFCURVE",
"363 -130 CURVE SMOOTH",
"363 -173 OFFCURVE",
"394 -200 OFFCURVE",
"430 -200 CURVE SMOOTH",
"459 -200 OFFCURVE",
"488 -182 OFFCURVE",
"509 -155 CURVE",
"491 -135 LINE",
"474 -155 OFFCURVE",
"454 -169 OFFCURVE",
"433 -169 CURVE SMOOTH",
"410 -169 OFFCURVE",
"392 -153 OFFCURVE",
"392 -125 CURVE SMOOTH",
"392 -95 OFFCURVE",
"409 -61 OFFCURVE",
"473 0 CURVE",
"481 0 LINE",
"481 346 LINE",
"480 454 OFFCURVE",
"411 522 OFFCURVE",
"291 522 CURVE SMOOTH"
);
},
{
closed = 1;
nodes = (
"441 167 LINE",
"407 77 OFFCURVE",
"326 37 OFFCURVE",
"243 37 CURVE SMOOTH",
"146 37 OFFCURVE",
"98 88 OFFCURVE",
"98 151 CURVE SMOOTH",
"98 220 OFFCURVE",
"154 255 OFFCURVE",
"258 255 CURVE SMOOTH",
"441 255 LINE"
);
}
);
width = 571;
}
);
leftKerningGroup = a;
rightKerningGroup = n;
unicode = 0105;
},
{
glyphname = ae;
layers = (
{
anchors = (
{
name = top;
position = "{493, 521}";
}
);
layerId = "784662A0-BFC3-4940-8AA1-9AA8A3FE0938";
paths = (
{
closed = 0;
nodes = (
"556 124 LINE"
);
},
{
closed = 1;
nodes = (
"212 522 OFFCURVE",
"148 493 OFFCURVE",
"85 449 CURVE",
"101 416 LINE",
"158 458 OFFCURVE",
"214 484 OFFCURVE",
"281 484 CURVE",
"385 484 OFFCURVE",
"437 431 OFFCURVE",
"438 343 CURVE",
"440 244 LINE",
"481 238 LINE",
"479 346 LINE",
"478 454 OFFCURVE",
"410 522 OFFCURVE",
"287 522 CURVE"
);
},
{
closed = 1;
nodes = (
"253 288 LINE",
"133 288 OFFCURVE",
"58 238 OFFCURVE",
"58 151 CURVE",
"58 62 OFFCURVE",
"128 -1 OFFCURVE",
"231 -1 CURVE",
"341 -1 OFFCURVE",
"426 47 OFFCURVE",
"469 157 CURVE",
"454 196 LINE",
"411 75 OFFCURVE",
"336 34 OFFCURVE",
"237 34 CURVE",
"153 34 OFFCURVE",
"98 83 OFFCURVE",
"98 153 CURVE",
"98 220 OFFCURVE",
"156 257 OFFCURVE",
"258 257 CURVE",
"451 257 LINE",
"451 288 LINE"
);
},
{
closed = 1;
nodes = (
"471 254 LINE",
"940 254 LINE",
"942 411 OFFCURVE",
"843 522 OFFCURVE",
"695 522 CURVE SMOOTH",
"550 522 OFFCURVE",
"444 413 OFFCURVE",
"444 261 CURVE SMOOTH",
"444 107 OFFCURVE",
"549 -1 OFFCURVE",
"696 -1 CURVE SMOOTH",
"778 -1 OFFCURVE",
"849 30 OFFCURVE",
"898 82 CURVE",
"873 109 LINE",
"831 63 OFFCURVE",
"769 37 OFFCURVE",
"698 37 CURVE SMOOTH",
"572 37 OFFCURVE",
"481 128 OFFCURVE",
"481 262 CURVE SMOOTH",
"481 393 OFFCURVE",
"571 486 OFFCURVE",
"695 486 CURVE SMOOTH",
"813 486 OFFCURVE",
"892 403 OFFCURVE",
"899 285 CURVE",
"471 285 LINE"
);
}
);
width = 985;
}
);
leftKerningGroup = a;
leftMetricsKey = a;
rightKerningGroup = e;
rightMetricsKey = e;
unicode = 00E6;
},
{
glyphname = b;
layers = (
{
layerId = "784662A0-BFC3-4940-8AA1-9AA8A3FE0938";
paths = (
{
closed = 1;
nodes = (
"109 742 LINE",
"109 0 LINE",
"150 0 LINE",
"150 742 LINE"
);
},
{
closed = 1;
nodes = (
"227 522 OFFCURVE",
"125 415 OFFCURVE",
"125 260 CURVE",
"125 106 OFFCURVE",
"226 -1 OFFCURVE",
"372 -1 CURVE SMOOTH",
"518 -1 OFFCURVE",
"623 108 OFFCURVE",
"623 260 CURVE SMOOTH",
"623 413 OFFCURVE",
"517 522 OFFCURVE",
"371 522 CURVE SMOOTH"
);
},
{
closed = 1;
nodes = (
"492 483 OFFCURVE",
"582 389 OFFCURVE",
"582 260 CURVE SMOOTH",
"582 131 OFFCURVE",
"492 38 OFFCURVE",
"367 38 CURVE SMOOTH",
"241 38 OFFCURVE",
"151 131 OFFCURVE",
"151 260 CURVE SMOOTH",
"151 389 OFFCURVE",
"241 483 OFFCURVE",
"367 483 CURVE SMOOTH"
);
}
);
width = 671;
}
);
leftKerningGroup = h;
rightKerningGroup = o;
unicode = 0062;
},
{
glyphname = c;
layers = (
{
anchors = (
{
name = bottom;
position = "{289, 0}";
},
{
name = top;
position = "{281, 521}";
}
);
layerId = "784662A0-BFC3-4940-8AA1-9AA8A3FE0938";
paths = (
{
closed = 1;
nodes = (
"156 522 OFFCURVE",
"48 413 OFFCURVE",
"48 260 CURVE SMOOTH",
"48 107 OFFCURVE",
"156 -1 OFFCURVE",
"303 -1 CURVE SMOOTH",
"384 -1 OFFCURVE",
"453 30 OFFCURVE",
"498 84 CURVE",
"474 111 LINE",
"434 64 OFFCURVE",
"374 38 OFFCURVE",
"304 38 CURVE SMOOTH",
"179 38 OFFCURVE",
"88 129 OFFCURVE",
"88 261 CURVE SMOOTH",
"88 391 OFFCURVE",
"179 482 OFFCURVE",
"304 482 CURVE SMOOTH",
"369 482 OFFCURVE",
"423 458 OFFCURVE",
"465 419 CURVE",
"488 449 LINE",
"443 495 OFFCURVE",
"378 522 OFFCURVE",
"303 522 CURVE SMOOTH"
);
}
);
width = 559;
}
);
leftKerningGroup = o;
rightKerningGroup = c;
unicode = 0063;
},
{
glyphname = d;
layers = (
{
anchors = (
{
name = center;
position = "{-8, 0}";
}
);
layerId = "784662A0-BFC3-4940-8AA1-9AA8A3FE0938";
paths = (
{
closed = 0;
nodes = (
"418 264 LINE"
);
},
{
closed = 1;
nodes = (
"154 524 OFFCURVE",
"48 414 OFFCURVE",
"48 260 CURVE SMOOTH",
"48 107 OFFCURVE",
"154 -3 OFFCURVE",
"301 -3 CURVE SMOOTH",
"447 -3 OFFCURVE",
"549 105 OFFCURVE",
"549 260 CURVE",
"549 416 OFFCURVE",
"447 524 OFFCURVE",
"301 524 CURVE SMOOTH"
);
},
{
closed = 1;
nodes = (
"433 484 OFFCURVE",
"524 390 OFFCURVE",
"524 260 CURVE SMOOTH",
"524 130 OFFCURVE",
"433 36 OFFCURVE",
"307 36 CURVE SMOOTH",
"180 36 OFFCURVE",
"89 130 OFFCURVE",
"89 260 CURVE SMOOTH",
"89 389 OFFCURVE",
"180 484 OFFCURVE",
"307 484 CURVE SMOOTH"
);
},
{
closed = 1;
nodes = (
"524 742 LINE",
"524 0 LINE",
"565 0 LINE",
"565 742 LINE"
);
}
);
width = 675;
}
);
leftKerningGroup = o;
rightKerningGroup = l;
unicode = 0064;
},
{
glyphname = eth;
layers = (
{
layerId = "784662A0-BFC3-4940-8AA1-9AA8A3FE0938";
paths = (
{
closed = 1;
nodes = (
"149 716 LINE",
"309 631 OFFCURVE",
"440 478 OFFCURVE",
"482 327 CURVE",
"450 395 OFFCURVE",
"371 439 OFFCURVE",
"282 439 CURVE SMOOTH",
"144 439 OFFCURVE",
"55 354 OFFCURVE",
"55 223 CURVE SMOOTH",
"55 87 OFFCURVE",
"144 -1 OFFCURVE",
"282 -1 CURVE SMOOTH",
"430 -1 OFFCURVE",
"525 92 OFFCURVE",
"525 236 CURVE SMOOTH",
"525 427 OFFCURVE",
"387 626 OFFCURVE",
"175 743 CURVE"
);
},
{
closed = 1;
nodes = (
"406 403 OFFCURVE",
"482 331 OFFCURVE",
"482 219 CURVE",
"482 110 OFFCURVE",
"406 39 OFFCURVE",
"287 39 CURVE SMOOTH",
"170 39 OFFCURVE",
"95 112 OFFCURVE",
"95 226 CURVE SMOOTH",
"95 334 OFFCURVE",
"170 403 OFFCURVE",
"288 403 CURVE SMOOTH"
);
},
{
closed = 1;
nodes = (
"154 595 LINE",
"162 566 LINE",
"444 652 LINE",
"436 682 LINE"
);
}
);
width = 572;
}
);
leftKerningGroup = o;
rightKerningGroup = O;
rightMetricsKey = O;
unicode = 00F0;
},
{
glyphname = dcroat;
layers = (
{
components = (
{
name = d;
}
);
layerId = "784662A0-BFC3-4940-8AA1-9AA8A3FE0938";
paths = (
{
closed = 1;
nodes = (
"408 678 LINE",
"408 647 LINE",
"640 647 LINE",
"640 678 LINE"
);
}
);
width = 675;
}
);
leftKerningGroup = o;
rightKerningGroup = l;
unicode = 0111;
},
{
glyphname = e;
layers = (
{
anchors = (
{
name = bottom;
position = "{296, 0}";
},
{
name = ogonek;
position = "{513, 10}";
},
{
name = top;
position = "{296, 521}";
}
);
layerId = "784662A0-BFC3-4940-8AA1-9AA8A3FE0938";
paths = (
{
closed = 1;
nodes = (
"78 249 LINE",
"544 249 LINE",
"546 410 OFFCURVE",
"455 522 OFFCURVE",
"301 522 CURVE SMOOTH",
"155 522 OFFCURVE",
"48 413 OFFCURVE",
"48 260 CURVE SMOOTH",
"48 107 OFFCURVE",
"155 -1 OFFCURVE",
"302 -1 CURVE SMOOTH",
"385 -1 OFFCURVE",
"456 30 OFFCURVE",
"504 82 CURVE",
"480 109 LINE",
"438 63 OFFCURVE",
"375 37 OFFCURVE",
"304 37 CURVE SMOOTH",
"178 37 OFFCURVE",
"88 128 OFFCURVE",
"88 262 CURVE SMOOTH",
"88 393 OFFCURVE",
"177 484 OFFCURVE",
"302 484 CURVE SMOOTH",
"421 484 OFFCURVE",
"498 404 OFFCURVE",
"506 286 CURVE",
"78 286 LINE"
);
}
);
width = 589;
}
);
leftKerningGroup = o;
rightKerningGroup = o;
unicode = 0065;
},
{
glyphname = eogonek;
layers = (
{
layerId = "784662A0-BFC3-4940-8AA1-9AA8A3FE0938";
paths = (
{
closed = 1;
nodes = (
"152 520 OFFCURVE",
"48 411 OFFCURVE",
"48 261 CURVE SMOOTH",
"48 107 OFFCURVE",
"155 -1 OFFCURVE",
"301 -1 CURVE SMOOTH",
"357 -1 OFFCURVE",
"407 15 OFFCURVE",
"449 45 CURVE",
"397 -28 OFFCURVE",
"377 -83 OFFCURVE",
"377 -129 CURVE SMOOTH",
"377 -174 OFFCURVE",
"408 -200 OFFCURVE",
"444 -200 CURVE SMOOTH",
"473 -200 OFFCURVE",
"502 -180 OFFCURVE",
"522 -155 CURVE",
"504 -135 LINE",
"487 -154 OFFCURVE",
"468 -169 OFFCURVE",
"447 -169 CURVE SMOOTH",
"424 -169 OFFCURVE",
"406 -153 OFFCURVE",
"406 -124 CURVE SMOOTH",
"406 -75 OFFCURVE",
"429 -14 OFFCURVE",
"504 82 CURVE",
"480 109 LINE",
"438 63 OFFCURVE",
"375 37 OFFCURVE",
"304 37 CURVE SMOOTH",
"181 37 OFFCURVE",
"93 124 OFFCURVE",
"89 249 CURVE",
"544 249 LINE",
"547 411 OFFCURVE",
"453 523 OFFCURVE",
"301 522 CURVE SMOOTH"
);
},
{
closed = 1;
nodes = (
"421 484 OFFCURVE",
"498 403 OFFCURVE",
"506 286 CURVE",
"90 286 LINE",
"98 403 OFFCURVE",
"185 484 OFFCURVE",
"302 484 CURVE SMOOTH"
);
}
);
width = 589;
}
);
leftKerningGroup = o;
rightKerningGroup = e;
unicode = 0119;
},
{
glyphname = f;
layers = (
{
layerId = "784662A0-BFC3-4940-8AA1-9AA8A3FE0938";
paths = (
{
closed = 1;
nodes = (
"186 744 OFFCURVE",
"115 677 OFFCURVE",
"115 576 CURVE",
"115 0 LINE",
"156 0 LINE",
"156 579 LINE",
"156 653 OFFCURVE",
"206 704 OFFCURVE",
"270 703 CURVE",
"300 703 OFFCURVE",
"331 691 OFFCURVE",
"356 672 CURVE",
"375 706 LINE",
"346 729 OFFCURVE",
"307 743 OFFCURVE",
"269 743 CURVE"
);
},
{
closed = 1;
nodes = (
"49 508 LINE",
"49 472 LINE",
"318 472 LINE",
"318 508 LINE"
);
}
);
width = 306;
}
);
leftKerningGroup = f;
rightKerningGroup = f;
unicode = 0066;
},
{
glyphname = g;
layers = (
{
anchors = (
{
name = top;
position = "{316, 521}";
}
);
layerId = "784662A0-BFC3-4940-8AA1-9AA8A3FE0938";
paths = (
{
closed = 1;
nodes = (
"502 521 LINE",
"502 57 LINE",
"502 -73 OFFCURVE",
"418 -156 OFFCURVE",
"289 -155 CURVE SMOOTH",
"214 -153 OFFCURVE",
"155 -129 OFFCURVE",
"101 -78 CURVE",
"79 -109 LINE",
"140 -164 OFFCURVE",
"207 -192 OFFCURVE",
"290 -194 CURVE SMOOTH",
"443 -195 OFFCURVE",
"543 -97 OFFCURVE",
"543 57 CURVE",
"543 521 LINE"
);
},
{
closed = 1;
nodes = (
"148 522 OFFCURVE",
"48 417 OFFCURVE",
"48 271 CURVE SMOOTH",
"48 126 OFFCURVE",
"149 21 OFFCURVE",
"289 21 CURVE SMOOTH",
"428 21 OFFCURVE",
"525 123 OFFCURVE",
"525 271 CURVE",
"525 419 OFFCURVE",
"428 522 OFFCURVE",
"288 522 CURVE SMOOTH"
);
},
{
closed = 1;
nodes = (
"414 484 OFFCURVE",
"502 394 OFFCURVE",
"502 270 CURVE SMOOTH",
"502 147 OFFCURVE",
"414 57 OFFCURVE",
"294 57 CURVE SMOOTH",
"173 57 OFFCURVE",
"87 147 OFFCURVE",
"87 270 CURVE SMOOTH",
"87 394 OFFCURVE",
"174 484 OFFCURVE",
"294 484 CURVE SMOOTH"
);
}
);
width = 632;
}
);
leftKerningGroup = o;
rightKerningGroup = j;
unicode = 0067;
},
{
glyphname = h;
layers = (
{
anchors = (
{
name = bottom;
position = "{581, 0}";
},
{
name = center;
position = "{329, 261}";
},
{
name = top;
position = "{130, 742}";
},
{
name = topright;
position = "{231, 522}";
}
);
layerId = "784662A0-BFC3-4940-8AA1-9AA8A3FE0938";
paths = (
{
closed = 1;
nodes = (
"566 0 LINE",
"566 318 LINE",
"566 445 OFFCURVE",
"491 522 OFFCURVE",
"364 522 CURVE",
"217 519 OFFCURVE",
"129 427 OFFCURVE",
"129 255 CURVE",
"150 255 LINE",
"150 391 OFFCURVE",
"226 477 OFFCURVE",
"354 480 CURVE",
"461 480 OFFCURVE",
"525 417 OFFCURVE",
"525 310 CURVE",
"525 0 LINE SMOOTH"
);
},
{
closed = 1;
nodes = (
"150 0 LINE",
"150 742 LINE",
"109 742 LINE",
"109 0 LINE"
);
}
);
width = 654;
}
);
leftKerningGroup = h;
rightKerningGroup = n;
unicode = 0068;
},
{
glyphname = hbar;
layers = (
{
components = (
{
name = h;
}
);
layerId = "784662A0-BFC3-4940-8AA1-9AA8A3FE0938";
paths = (
{
closed = 1;
nodes = (
"21 641 LINE",
"21 609 LINE",
"322 609 LINE",
"322 641 LINE"
);
}
);
width = 680;
}
);
leftKerningGroup = h;
rightKerningGroup = n;
unicode = 0127;
},
{
glyphname = i;
layers = (
{
anchors = (
{
name = _top;
position = "{125, 521}";
},
{
name = ogonek;
position = "{202, 10}";
},
{
name = top;
position = "{125, 521}";
}
);
layerId = "784662A0-BFC3-4940-8AA1-9AA8A3FE0938";
paths = (
{
closed = 1;
nodes = (
"104 521 LINE",
"104 0 LINE",
"145 0 LINE",
"145 521 LINE"
);
},
{
closed = 1;
nodes = (
"106 707 OFFCURVE",
"90 691 OFFCURVE",
"90 671 CURVE SMOOTH",
"90 650 OFFCURVE",
"106 634 OFFCURVE",
"125 634 CURVE SMOOTH",
"144 634 OFFCURVE",
"160 650 OFFCURVE",
"160 671 CURVE SMOOTH",
"160 691 OFFCURVE",
"144 707 OFFCURVE",
"125 707 CURVE SMOOTH"
);
}
);
width = 250;
}
);
leftKerningGroup = dotlessi;
rightKerningGroup = dotlessi;
unicode = 0069;
},
{
glyphname = idotless;
layers = (
{
anchors = (
{
name = ogonek;
position = "{202, 10}";
},
{
name = top;
position = "{125, 521}";
}
);
layerId = "784662A0-BFC3-4940-8AA1-9AA8A3FE0938";
paths = (
{
closed = 1;
nodes = (
"104 521 LINE",
"104 0 LINE",
"145 0 LINE",
"145 521 LINE"
);
}
);
width = 250;
}
);
leftKerningGroup = i;
rightKerningGroup = i;
unicode = 0131;
},
{
glyphname = iogonek;
layers = (
{
layerId = "784662A0-BFC3-4940-8AA1-9AA8A3FE0938";
paths = (
{
closed = 1;
nodes = (
"99 521 LINE",
"99 0 LINE",
"107 0 LINE",
"70 -58 OFFCURVE",
"54 -96 OFFCURVE",
"54 -129 CURVE SMOOTH",
"54 -174 OFFCURVE",
"85 -200 OFFCURVE",
"121 -200 CURVE SMOOTH",
"151 -200 OFFCURVE",
"180 -181 OFFCURVE",
"200 -155 CURVE",
"182 -135 LINE",
"164 -155 OFFCURVE",
"145 -169 OFFCURVE",
"124 -169 CURVE SMOOTH",
"101 -169 OFFCURVE",
"83 -153 OFFCURVE",
"83 -125 CURVE SMOOTH",
"83 -95 OFFCURVE",
"94 -61 OFFCURVE",
"134 0 CURVE",
"140 0 LINE",
"140 521 LINE"
);
},
{
closed = 1;
nodes = (
"100 707 OFFCURVE",
"84 691 OFFCURVE",
"84 671 CURVE SMOOTH",
"84 650 OFFCURVE",
"100 634 OFFCURVE",
"119 634 CURVE SMOOTH",
"139 634 OFFCURVE",
"154 650 OFFCURVE",
"154 671 CURVE SMOOTH",
"154 691 OFFCURVE",
"139 707 OFFCURVE",
"119 707 CURVE SMOOTH"
);
}
);
width = 238;
}
);
leftKerningGroup = i;
rightKerningGroup = i;
unicode = 012F;
},
{
glyphname = j;
layers = (
{
layerId = "784662A0-BFC3-4940-8AA1-9AA8A3FE0938";
paths = (
{
closed = 1;
nodes = (
"100 521 LINE",
"100 -30 LINE",
"100 -113 OFFCURVE",
"68 -155 OFFCURVE",
"11 -154 CURVE",
"-18 -154 OFFCURVE",
"-49 -143 OFFCURVE",
"-74 -123 CURVE",
"-91 -158 LINE",
"-61 -181 OFFCURVE",
"-25 -194 OFFCURVE",
"13 -195 CURVE",
"91 -195 OFFCURVE",
"141 -140 OFFCURVE",
"141 -27 CURVE",
"141 521 LINE"
);
},
{
closed = 1;
nodes = (
"101 707 OFFCURVE",
"85 691 OFFCURVE",
"85 671 CURVE SMOOTH",
"85 650 OFFCURVE",
"101 634 OFFCURVE",
"121 634 CURVE SMOOTH",
"141 634 OFFCURVE",
"157 650 OFFCURVE",
"157 671 CURVE SMOOTH",
"157 691 OFFCURVE",
"141 707 OFFCURVE",
"121 707 CURVE SMOOTH"
);
}
);
width = 247;
}
);
leftKerningGroup = j;
rightKerningGroup = j;
unicode = 006A;
},
{
glyphname = jdotless;
layers = (
{
anchors = (
{
name = top;
position = "{120, 521}";
}
);
layerId = "784662A0-BFC3-4940-8AA1-9AA8A3FE0938";
paths = (
{
closed = 1;
nodes = (
"101 521 LINE",
"101 -25 LINE",
"101 -111 OFFCURVE",
"70 -156 OFFCURVE",
"10 -155 CURVE",
"-21 -154 OFFCURVE",
"-51 -144 OFFCURVE",
"-76 -125 CURVE",
"-92 -158 LINE",
"-61 -181 OFFCURVE",
"-24 -193 OFFCURVE",
"15 -194 CURVE",
"97 -195 OFFCURVE",
"142 -138 OFFCURVE",
"142 -29 CURVE",
"142 521 LINE"
);
}
);
width = 232;
}
);
leftKerningGroup = j;
rightKerningGroup = j;
rightMetricsKey = i;
unicode = 0237;
},
{
glyphname = k;
layers = (
{
anchors = (
{
name = bottom;
position = "{109, 0}";
},
{
name = top;
position = "{130, 742}";
},
{
name = topright;
position = "{233, 521}";
}
);
layerId = "784662A0-BFC3-4940-8AA1-9AA8A3FE0938";
paths = (
{
closed = 0;
nodes = (
"230 111 LINE"
);
},
{
closed = 1;
nodes = (
"109 742 LINE",
"109 0 LINE",
"150 0 LINE",
"150 742 LINE"
);
},
{
closed = 1;
nodes = (
"459 521 LINE",
"143 205 LINE",
"143 145 LINE",
"510 521 LINE"
);
},
{
closed = 1;
nodes = (
"273 303 LINE",
"487 0 LINE",
"536 0 LINE",
"305 330 LINE"
);
}
);
width = 551;
}
);
leftKerningGroup = h;
rightKerningGroup = x;
unicode = 006B;
},
{
glyphname = kgreenlandic;
layers = (
{
anchors = (
{
name = bottom;
position = "{272, 0}";
},
{
name = ogonek;
position = "{202, 10}";
},
{
name = top;
position = "{125, 521}";
}
);
layerId = "784662A0-BFC3-4940-8AA1-9AA8A3FE0938";
paths = (
{
closed = 0;
nodes = (
"230 111 LINE"
);
},
{
closed = 1;
nodes = (
"104 521 LINE",
"104 0 LINE",
"145 0 LINE",
"145 521 LINE"
);
},
{
closed = 1;
nodes = (
"456 521 LINE",
"140 205 LINE",
"140 145 LINE",
"507 521 LINE"
);
},
{
closed = 1;
nodes = (
"270 303 LINE",
"484 0 LINE",
"533 0 LINE",
"301 330 LINE"
);
}
);
width = 548;
}
);
leftKerningGroup = h;
leftMetricsKey = n;
rightKerningGroup = k;
rightMetricsKey = k;
unicode = 0138;
},
{
glyphname = l;
layers = (
{
anchors = (
{
name = bottom;
position = "{130, 0}";
},
{
name = top;
position = "{130, 742}";
},
{
name = topright;
position = "{233, 521}";
}
);
layerId = "784662A0-BFC3-4940-8AA1-9AA8A3FE0938";
paths = (
{
closed = 1;
nodes = (
"109 742 LINE",
"109 0 LINE",
"150 0 LINE",
"150 742 LINE"
);
}
);
width = 260;
}
);
leftKerningGroup = h;
rightKerningGroup = l;
unicode = 006C;
},
{
glyphname = ldot;
layers = (
{
components = (
{
name = l;
}
);
layerId = "784662A0-BFC3-4940-8AA1-9AA8A3FE0938";
paths = (
{
closed = 1;
nodes = (
"227 342 OFFCURVE",
"212 326 OFFCURVE",
"212 306 CURVE SMOOTH",
"212 286 OFFCURVE",
"227 271 OFFCURVE",
"246 271 CURVE SMOOTH",
"265 271 OFFCURVE",
"280 286 OFFCURVE",
"280 306 CURVE SMOOTH",
"280 326 OFFCURVE",
"265 342 OFFCURVE",
"246 342 CURVE SMOOTH"
);
}
);
width = 257;
}
);
leftKerningGroup = h;
leftMetricsKey = l;
rightKerningGroup = l;
unicode = 0140;
},
{
glyphname = lslash;
layers = (
{
components = (
{
name = l;
transform = "{1, 0, 0, 1, 40, 0}";
}
);
layerId = "784662A0-BFC3-4940-8AA1-9AA8A3FE0938";
paths = (
{
closed = 1;
nodes = (
"24 439 LINE",
"32 406 LINE",
"311 487 LINE",
"303 521 LINE"
);
}
);
width = 325;
}
);
leftKerningGroup = lslash;
rightKerningGroup = lslash;
unicode = 0142;
},
{
glyphname = m;
layers = (
{
layerId = "784662A0-BFC3-4940-8AA1-9AA8A3FE0938";
paths = (
{
closed = 1;
nodes = (
"104 521 LINE",
"104 0 LINE",
"145 0 LINE",
"145 521 LINE"
);
},
{
closed = 1;
nodes = (
"210 519 OFFCURVE",
"124 427 OFFCURVE",
"124 255 CURVE",
"145 255 LINE",
"145 391 OFFCURVE",
"219 477 OFFCURVE",
"344 480 CURVE",
"448 480 OFFCURVE",
"511 417 OFFCURVE",
"511 310 CURVE",
"511 0 LINE SMOOTH",
"552 0 LINE",
"552 318 LINE",
"552 445 OFFCURVE",
"478 522 OFFCURVE",
"354 522 CURVE"
);
},
{
closed = 1;
nodes = (
"617 519 OFFCURVE",
"531 427 OFFCURVE",
"531 255 CURVE",
"552 255 LINE",
"552 391 OFFCURVE",
"625 477 OFFCURVE",
"750 480 CURVE",
"855 480 OFFCURVE",
"917 417 OFFCURVE",
"917 310 CURVE",
"917 0 LINE SMOOTH",
"958 0 LINE",
"958 318 LINE",
"958 445 OFFCURVE",
"885 522 OFFCURVE",
"761 522 CURVE"
);
}
);
width = 1045;
}
);
leftKerningGroup = n;
rightKerningGroup = n;
unicode = 006D;
},
{
glyphname = n;
layers = (
{
anchors = (
{
name = bottom;
position = "{327, 0}";
},
{
name = top;
position = "{335, 521}";
}
);
layerId = "784662A0-BFC3-4940-8AA1-9AA8A3FE0938";
paths = (
{
closed = 1;
nodes = (
"104 521 LINE",
"104 0 LINE",
"145 0 LINE",
"145 521 LINE"
);
},
{
closed = 1;
nodes = (
"211 519 OFFCURVE",
"123 427 OFFCURVE",
"123 255 CURVE",
"144 255 LINE",
"144 391 OFFCURVE",
"220 477 OFFCURVE",
"348 480 CURVE",
"455 480 OFFCURVE",
"519 417 OFFCURVE",
"519 310 CURVE",
"519 0 LINE SMOOTH",
"560 0 LINE",
"560 318 LINE",
"560 445 OFFCURVE",
"485 522 OFFCURVE",
"358 522 CURVE"
);
}
);
width = 648;
}
);
leftKerningGroup = n;
rightKerningGroup = n;
unicode = 006E;
},
{
glyphname = eng;
layers = (
{
anchors = (
{
name = bottom;
position = "{327, 0}";
},
{
name = top;
position = "{335, 521}";
}
);
layerId = "784662A0-BFC3-4940-8AA1-9AA8A3FE0938";
paths = (
{
closed = 1;
nodes = (
"211 519 OFFCURVE",
"123 427 OFFCURVE",
"123 255 CURVE",
"144 255 LINE",
"144 391 OFFCURVE",
"220 477 OFFCURVE",
"348 480 CURVE SMOOTH",
"455 480 OFFCURVE",
"519 417 OFFCURVE",
"519 310 CURVE SMOOTH",
"519 -31 LINE SMOOTH",
"519 -114 OFFCURVE",
"487 -155 OFFCURVE",
"430 -154 CURVE SMOOTH",
"401 -154 OFFCURVE",
"370 -143 OFFCURVE",
"345 -123 CURVE",
"327 -158 LINE",
"358 -181 OFFCURVE",
"394 -194 OFFCURVE",
"431 -195 CURVE SMOOTH",
"509 -195 OFFCURVE",
"560 -141 OFFCURVE",
"560 -27 CURVE SMOOTH",
"560 318 LINE SMOOTH",
"560 445 OFFCURVE",
"485 522 OFFCURVE",
"358 522 CURVE SMOOTH"
);
},
{
closed = 1;
nodes = (
"104 521 LINE",
"104 0 LINE",
"145 0 LINE",
"145 521 LINE"
);
}
);
width = 648;
}
);
leftKerningGroup = i;
rightKerningGroup = i;
unicode = 014B;
},
{
glyphname = o;
layers = (
{
anchors = (
{
name = top;
position = "{305, 521}";
}
);
layerId = "784662A0-BFC3-4940-8AA1-9AA8A3FE0938";
paths = (
{
closed = 1;
nodes = (
"156 522 OFFCURVE",
"48 413 OFFCURVE",
"48 261 CURVE SMOOTH",
"48 107 OFFCURVE",
"156 -1 OFFCURVE",
"305 -1 CURVE SMOOTH",
"453 -1 OFFCURVE",
"562 107 OFFCURVE",
"562 261 CURVE SMOOTH",
"562 413 OFFCURVE",
"453 522 OFFCURVE",
"305 522 CURVE SMOOTH"
);
},
{
closed = 1;
nodes = (
"430 482 OFFCURVE",
"520 391 OFFCURVE",
"520 260 CURVE SMOOTH",
"520 129 OFFCURVE",
"430 38 OFFCURVE",
"305 38 CURVE SMOOTH",
"179 38 OFFCURVE",
"89 129 OFFCURVE",
"89 260 CURVE SMOOTH",
"89 391 OFFCURVE",
"179 482 OFFCURVE",
"305 482 CURVE SMOOTH"
);
}
);
width = 610;
}
);
leftKerningGroup = o;
rightKerningGroup = o;
unicode = 006F;
},
{
glyphname = oslash;
layers = (
{
anchors = (
{
name = top;
position = "{305, 521}";
}
);
layerId = "784662A0-BFC3-4940-8AA1-9AA8A3FE0938";
paths = (
{
closed = 1;
nodes = (
"417 656 LINE",
"159 -151 LINE",
"187 -151 LINE",
"445 656 LINE"
);
},
{
closed = 1;
nodes = (
"156 522 OFFCURVE",
"48 413 OFFCURVE",
"48 261 CURVE SMOOTH",
"48 107 OFFCURVE",
"156 -1 OFFCURVE",
"305 -1 CURVE SMOOTH",
"453 -1 OFFCURVE",
"562 107 OFFCURVE",
"562 261 CURVE SMOOTH",
"562 413 OFFCURVE",
"453 522 OFFCURVE",
"305 522 CURVE SMOOTH"
);
},
{
closed = 1;
nodes = (
"432 485 OFFCURVE",
"523 393 OFFCURVE",
"523 260 CURVE SMOOTH",
"523 127 OFFCURVE",
"432 36 OFFCURVE",
"305 36 CURVE SMOOTH",
"179 36 OFFCURVE",
"88 127 OFFCURVE",
"88 260 CURVE SMOOTH",
"88 393 OFFCURVE",
"179 485 OFFCURVE",
"305 485 CURVE SMOOTH"
);
}
);
width = 610;
}
);
leftKerningGroup = o;
leftMetricsKey = o;
rightKerningGroup = o;
rightMetricsKey = o;
unicode = 00F8;
},
{
glyphname = oe;
layers = (
{
anchors = (
{
name = top;
position = "{535, 521}";
}
);
layerId = "784662A0-BFC3-4940-8AA1-9AA8A3FE0938";
paths = (
{
closed = 0;
nodes = (
"388 210 LINE"
);
},
{
closed = 1;
nodes = (
"156 522 OFFCURVE",
"48 413 OFFCURVE",
"48 261 CURVE SMOOTH",
"48 107 OFFCURVE",
"156 -1 OFFCURVE",
"305 -1 CURVE SMOOTH",
"452 -1 OFFCURVE",
"557 107 OFFCURVE",
"557 261 CURVE SMOOTH",
"557 413 OFFCURVE",
"452 522 OFFCURVE",
"305 522 CURVE SMOOTH"
);
},
{
closed = 1;
nodes = (
"430 482 OFFCURVE",
"520 391 OFFCURVE",
"520 260 CURVE SMOOTH",
"520 129 OFFCURVE",
"430 38 OFFCURVE",
"305 38 CURVE SMOOTH",
"179 38 OFFCURVE",
"89 129 OFFCURVE",
"89 260 CURVE SMOOTH",
"89 391 OFFCURVE",
"179 482 OFFCURVE",
"305 482 CURVE SMOOTH"
);
},
{
closed = 1;
nodes = (
"551 255 LINE",
"1023 255 LINE",
"1024 411 OFFCURVE",
"925 522 OFFCURVE",
"776 522 CURVE SMOOTH",
"631 522 OFFCURVE",
"526 413 OFFCURVE",
"526 260 CURVE SMOOTH",
"526 107 OFFCURVE",
"630 -1 OFFCURVE",
"777 -1 CURVE SMOOTH",
"860 -1 OFFCURVE",
"931 30 OFFCURVE",
"980 82 CURVE",
"956 109 LINE",
"913 63 OFFCURVE",
"850 37 OFFCURVE",
"779 37 CURVE SMOOTH",
"652 37 OFFCURVE",
"561 128 OFFCURVE",
"561 262 CURVE SMOOTH",
"561 393 OFFCURVE",
"651 486 OFFCURVE",
"776 486 CURVE SMOOTH",
"895 486 OFFCURVE",
"974 404 OFFCURVE",
"982 285 CURVE",
"551 285 LINE"
);
}
);
width = 1068;
}
);
leftKerningGroup = o;
leftMetricsKey = o;
rightKerningGroup = e;
rightMetricsKey = e;
unicode = 0153;
},
{
glyphname = p;
layers = (
{
layerId = "784662A0-BFC3-4940-8AA1-9AA8A3FE0938";
paths = (
{
closed = 1;
nodes = (
"109 521 LINE",
"109 -194 LINE",
"150 -194 LINE",
"150 521 LINE"
);
},
{
closed = 0;
nodes = (
"168 34 LINE"
);
},
{
closed = 1;
nodes = (
"227 522 OFFCURVE",
"125 415 OFFCURVE",
"125 260 CURVE",
"125 106 OFFCURVE",
"226 -1 OFFCURVE",
"372 -1 CURVE SMOOTH",
"518 -1 OFFCURVE",
"623 108 OFFCURVE",
"623 260 CURVE SMOOTH",
"623 413 OFFCURVE",
"517 522 OFFCURVE",
"371 522 CURVE SMOOTH"
);
},
{
closed = 1;
nodes = (
"492 483 OFFCURVE",
"582 389 OFFCURVE",
"582 260 CURVE SMOOTH",
"582 131 OFFCURVE",
"492 38 OFFCURVE",
"367 38 CURVE SMOOTH",
"241 38 OFFCURVE",
"151 131 OFFCURVE",
"151 260 CURVE SMOOTH",
"151 389 OFFCURVE",
"241 483 OFFCURVE",
"367 483 CURVE SMOOTH"
);
}
);
width = 671;
}
);
leftKerningGroup = p;
rightKerningGroup = o;
unicode = 0070;
},
{
glyphname = thorn;
layers = (
{
anchors = (
{
name = bottom;
position = "{130, 0}";
},
{
name = top;
position = "{130, 742}";
},
{
name = topright;
position = "{233, 521}";
}
);
layerId = "784662A0-BFC3-4940-8AA1-9AA8A3FE0938";
paths = (
{
closed = 0;
nodes = (
"313 323 LINE"
);
},
{
closed = 1;
nodes = (
"109 521 LINE",
"109 -194 LINE",
"150 -194 LINE",
"150 521 LINE"
);
},
{
closed = 0;
nodes = (
"168 34 LINE"
);
},
{
closed = 1;
nodes = (
"227 522 OFFCURVE",
"125 415 OFFCURVE",
"125 260 CURVE",
"125 106 OFFCURVE",
"226 -1 OFFCURVE",
"372 -1 CURVE SMOOTH",
"518 -1 OFFCURVE",
"623 108 OFFCURVE",
"623 260 CURVE SMOOTH",
"623 413 OFFCURVE",
"517 522 OFFCURVE",
"371 522 CURVE SMOOTH"
);
},
{
closed = 1;
nodes = (
"492 483 OFFCURVE",
"582 389 OFFCURVE",
"582 260 CURVE SMOOTH",
"582 131 OFFCURVE",
"492 38 OFFCURVE",
"367 38 CURVE SMOOTH",
"241 38 OFFCURVE",
"151 131 OFFCURVE",
"151 260 CURVE SMOOTH",
"151 389 OFFCURVE",
"241 483 OFFCURVE",
"367 483 CURVE SMOOTH"
);
},
{
closed = 1;
nodes = (
"109 742 LINE",
"109 0 LINE",
"150 0 LINE",
"150 742 LINE"
);
}
);
width = 671;
}
);
leftKerningGroup = h;
leftMetricsKey = l;
rightKerningGroup = o;
rightMetricsKey = o;
unicode = 00FE;
},
{
glyphname = q;
layers = (
{
layerId = "784662A0-BFC3-4940-8AA1-9AA8A3FE0938";
paths = (
{
closed = 1;
nodes = (
"524 521 LINE",
"524 -194 LINE",
"565 -194 LINE",
"565 521 LINE"
);
},
{
closed = 0;
nodes = (
"425 67 LINE"
);
},
{
closed = 1;
nodes = (
"154 524 OFFCURVE",
"48 414 OFFCURVE",
"48 260 CURVE SMOOTH",
"48 107 OFFCURVE",
"154 -3 OFFCURVE",
"301 -3 CURVE SMOOTH",
"447 -3 OFFCURVE",
"549 105 OFFCURVE",
"549 260 CURVE",
"549 416 OFFCURVE",
"447 524 OFFCURVE",
"301 524 CURVE SMOOTH"
);
},
{
closed = 1;
nodes = (
"433 484 OFFCURVE",
"524 390 OFFCURVE",
"524 260 CURVE SMOOTH",
"524 130 OFFCURVE",
"433 36 OFFCURVE",
"307 36 CURVE SMOOTH",
"180 36 OFFCURVE",
"89 130 OFFCURVE",
"89 260 CURVE SMOOTH",
"89 389 OFFCURVE",
"180 484 OFFCURVE",
"307 484 CURVE SMOOTH"
);
}
);
width = 675;
}
);
leftKerningGroup = o;
rightKerningGroup = q;
unicode = 0071;
},
{
glyphname = r;
layers = (
{
anchors = (
{
name = bottom;
position = "{124, 0}";
},
{
name = top;
position = "{174, 521}";
}
);
layerId = "784662A0-BFC3-4940-8AA1-9AA8A3FE0938";
paths = (
{
closed = 1;
nodes = (
"104 521 LINE",
"104 0 LINE",
"145 0 LINE",
"145 521 LINE"
);
},
{
closed = 1;
nodes = (
"203 519 OFFCURVE",
"123 422 OFFCURVE",
"123 255 CURVE",
"144 254 LINE",
"144 392 OFFCURVE",
"216 479 OFFCURVE",
"340 479 CURVE",
"340 522 LINE"
);
}
);
width = 350;
}
);
leftKerningGroup = n;
rightKerningGroup = r;
unicode = 0072;
},
{
glyphname = s;
layers = (
{
anchors = (
{
name = bottom;
position = "{215, 0}";
},
{
name = top;
position = "{219, 521}";
}
);
layerId = "784662A0-BFC3-4940-8AA1-9AA8A3FE0938";
paths = (
{
closed = 1;
nodes = (
"135 522 OFFCURVE",
"56 482 OFFCURVE",
"56 391 CURVE SMOOTH",
"56 212 OFFCURVE",
"364 279 OFFCURVE",
"360 132 CURVE SMOOTH",
"357 66 OFFCURVE",
"294 37 OFFCURVE",
"221 37 CURVE SMOOTH",
"155 37 OFFCURVE",
"92 61 OFFCURVE",
"47 103 CURVE",
"28 71 LINE",
"76 25 OFFCURVE",
"146 -1 OFFCURVE",
"219 -1 CURVE SMOOTH",
"313 -1 OFFCURVE",
"400 42 OFFCURVE",
"400 139 CURVE SMOOTH",
"400 323 OFFCURVE",
"96 254 OFFCURVE",
"96 394 CURVE SMOOTH",
"96 456 OFFCURVE",
"153 484 OFFCURVE",
"226 484 CURVE SMOOTH",
"276 484 OFFCURVE",
"322 470 OFFCURVE",
"358 447 CURVE",
"376 481 LINE",
"335 506 OFFCURVE",
"285 522 OFFCURVE",
"227 522 CURVE SMOOTH"
);
}
);
width = 437;
}
);
leftKerningGroup = s;
rightKerningGroup = s;
unicode = 0073;
},
{
glyphname = germandbls;
layers = (
{
layerId = "784662A0-BFC3-4940-8AA1-9AA8A3FE0938";
paths = (
{
closed = 1;
nodes = (
"192 743 OFFCURVE",
"103 645 OFFCURVE",
"103 494 CURVE SMOOTH",
"103 0 LINE",
"144 0 LINE",
"144 496 LINE SMOOTH",
"144 623 OFFCURVE",
"217 705 OFFCURVE",
"331 705 CURVE SMOOTH",
"433 705 OFFCURVE",
"499 646 OFFCURVE",
"499 554 CURVE SMOOTH",
"499 456 OFFCURVE",
"427 392 OFFCURVE",
"316 392 CURVE",
"316 355 LINE",
"322 355 LINE",
"452 355 OFFCURVE",
"536 295 OFFCURVE",
"536 199 CURVE SMOOTH",
"536 102 OFFCURVE",
"457 37 OFFCURVE",
"335 37 CURVE SMOOTH",
"279 37 LINE",
"279 0 LINE",
"333 0 LINE SMOOTH",
"481 0 OFFCURVE",
"577 80 OFFCURVE",
"577 200 CURVE SMOOTH",
"577 297 OFFCURVE",
"505 364 OFFCURVE",
"398 378 CURVE",
"484 397 OFFCURVE",
"540 468 OFFCURVE",
"540 558 CURVE SMOOTH",
"540 671 OFFCURVE",
"457 743 OFFCURVE",
"332 743 CURVE SMOOTH"
);
}
);
width = 643;
}
);
leftKerningGroup = f;
leftMetricsKey = U;
rightKerningGroup = B;
rightMetricsKey = B;
unicode = 00DF;
},
{
glyphname = t;
layers = (
{
anchors = (
{
name = bottom;
position = "{226, 0}";
},
{
name = center;
position = "{186, 261}";
}
);
layerId = "784662A0-BFC3-4940-8AA1-9AA8A3FE0938";
paths = (
{
closed = 1;
nodes = (
"122 637 LINE",
"122 144 LINE",
"122 46 OFFCURVE",
"167 -2 OFFCURVE",
"241 -1 CURVE",
"279 -1 OFFCURVE",
"316 13 OFFCURVE",
"349 36 CURVE",
"333 70 LINE",
"306 51 OFFCURVE",
"276 40 OFFCURVE",
"246 40 CURVE",
"192 39 OFFCURVE",
"163 75 OFFCURVE",
"163 149 CURVE",
"163 637 LINE"
);
},
{
closed = 1;
nodes = (
"46 508 LINE",
"46 472 LINE",
"339 472 LINE",
"339 508 LINE"
);
}
);
width = 372;
}
);
leftKerningGroup = u;
rightKerningGroup = t;
unicode = 0074;
},
{
glyphname = tbar;
layers = (
{
anchors = (
{
name = bottom;
position = "{226, 0}";
},
{
name = center;
position = "{186, 261}";
}
);
layerId = "784662A0-BFC3-4940-8AA1-9AA8A3FE0938";
paths = (
{
closed = 1;
nodes = (
"122 637 LINE",
"122 144 LINE",
"122 46 OFFCURVE",
"167 -2 OFFCURVE",
"241 -1 CURVE",
"279 -1 OFFCURVE",
"316 13 OFFCURVE",
"349 36 CURVE",
"333 70 LINE",
"306 51 OFFCURVE",
"276 40 OFFCURVE",
"246 40 CURVE",
"192 39 OFFCURVE",
"163 75 OFFCURVE",
"163 149 CURVE",
"163 637 LINE"
);
},
{
closed = 1;
nodes = (
"46 508 LINE",
"46 472 LINE",
"339 472 LINE",
"339 508 LINE"
);
},
{
closed = 1;
nodes = (
"46 321 LINE",
"46 284 LINE",
"339 284 LINE",
"339 321 LINE"
);
}
);
width = 372;
}
);
leftKerningGroup = t;
rightKerningGroup = t;
unicode = 0167;
},
{
glyphname = u;
layers = (
{
anchors = (
{
name = ogonek;
position = "{573, 10}";
},
{
name = top;
position = "{318, 521}";
}
);
layerId = "784662A0-BFC3-4940-8AA1-9AA8A3FE0938";
paths = (
{
closed = 1;
nodes = (
"536 0 LINE",
"536 521 LINE",
"495 521 LINE",
"495 0 LINE"
);
},
{
closed = 1;
nodes = (
"430 1 OFFCURVE",
"515 94 OFFCURVE",
"515 266 CURVE",
"495 266 LINE",
"495 130 OFFCURVE",
"421 44 OFFCURVE",
"296 41 CURVE",
"191 41 OFFCURVE",
"128 104 OFFCURVE",
"128 211 CURVE",
"128 521 LINE SMOOTH",
"87 521 LINE",
"87 203 LINE",
"87 75 OFFCURVE",
"161 -1 OFFCURVE",
"286 -1 CURVE"
);
}
);
width = 641;
}
);
leftKerningGroup = u;
rightKerningGroup = i;
unicode = 0075;
},
{
glyphname = uogonek;
layers = (
{
layerId = "784662A0-BFC3-4940-8AA1-9AA8A3FE0938";
paths = (
{
closed = 1;
nodes = (
"500 521 LINE",
"500 239 LINE",
"491 118 OFFCURVE",
"413 42 OFFCURVE",
"299 41 CURVE SMOOTH",
"194 40 OFFCURVE",
"128 102 OFFCURVE",
"128 211 CURVE SMOOTH",
"128 521 LINE",
"87 521 LINE",
"87 203 LINE SMOOTH",
"87 75 OFFCURVE",
"159 0 OFFCURVE",
"287 0 CURVE SMOOTH",
"394 0 OFFCURVE",
"466 50 OFFCURVE",
"500 134 CURVE",
"500 4 LINE",
"507 4 LINE",
"458 -60 OFFCURVE",
"443 -99 OFFCURVE",
"443 -131 CURVE SMOOTH",
"443 -179 OFFCURVE",
"477 -200 OFFCURVE",
"509 -200 CURVE SMOOTH",
"538 -200 OFFCURVE",
"567 -182 OFFCURVE",
"589 -155 CURVE",
"570 -135 LINE",
"552 -156 OFFCURVE",
"534 -169 OFFCURVE",
"512 -169 CURVE SMOOTH",
"489 -169 OFFCURVE",
"472 -156 OFFCURVE",
"472 -125 CURVE SMOOTH",
"472 -100 OFFCURVE",
"482 -62 OFFCURVE",
"534 0 CURVE",
"541 0 LINE",
"541 521 LINE"
);
}
);
width = 640;
}
);
leftKerningGroup = u;
leftMetricsKey = u;
rightKerningGroup = u;
unicode = 0173;
},
{
glyphname = v;
layers = (
{
layerId = "784662A0-BFC3-4940-8AA1-9AA8A3FE0938";
paths = (
{
closed = 1;
nodes = (
"428 521 LINE",
"241 45 LINE",
"53 521 LINE",
"8 521 LINE",
"219 0 LINE",
"262 0 LINE",
"472 521 LINE"
);
}
);
width = 471;
}
);
leftKerningGroup = v;
rightKerningGroup = v;
unicode = 0076;
},
{
glyphname = w;
layers = (
{
anchors = (
{
name = top;
position = "{417, 521}";
}
);
layerId = "784662A0-BFC3-4940-8AA1-9AA8A3FE0938";
paths = (
{
closed = 1;
nodes = (
"792 521 LINE",
"619 45 LINE",
"445 521 LINE",
"400 521 LINE",
"227 45 LINE",
"53 521 LINE",
"8 521 LINE",
"205 0 LINE",
"248 0 LINE",
"423 466 LINE",
"596 0 LINE",
"639 0 LINE",
"836 521 LINE"
);
}
);
width = 835;
}
);
leftKerningGroup = v;
rightKerningGroup = v;
unicode = 0077;
},
{
glyphname = x;
layers = (
{
layerId = "784662A0-BFC3-4940-8AA1-9AA8A3FE0938";
paths = (
{
closed = 1;
nodes = (
"42 521 LINE",
"224 269 LINE",
"27 0 LINE",
"75 0 LINE",
"250 237 LINE",
"423 0 LINE",
"472 0 LINE",
"277 269 LINE",
"459 521 LINE",
"412 521 LINE",
"251 300 LINE",
"90 521 LINE"
);
}
);
width = 503;
}
);
leftKerningGroup = x;
rightKerningGroup = x;
unicode = 0078;
},
{
glyphname = y;
layers = (
{
anchors = (
{
name = top;
position = "{241, 521}";
}
);
layerId = "784662A0-BFC3-4940-8AA1-9AA8A3FE0938";
paths = (
{
closed = 1;
nodes = (
"430 521 LINE",
"243 49 LINE",
"51 521 LINE",
"7 521 LINE",
"223 0 LINE",
"198 -59 LINE SMOOTH",
"173 -120 OFFCURVE",
"134 -153 OFFCURVE",
"86 -153 CURVE SMOOTH",
"57 -153 OFFCURVE",
"30 -145 OFFCURVE",
"8 -129 CURVE",
"-10 -165 LINE",
"17 -185 OFFCURVE",
"50 -195 OFFCURVE",
"89 -195 CURVE SMOOTH",
"149 -195 OFFCURVE",
"200 -153 OFFCURVE",
"232 -75 CURVE SMOOTH",
"474 521 LINE"
);
}
);
width = 473;
}
);
leftKerningGroup = v;
rightKerningGroup = v;
unicode = 0079;
},
{
glyphname = z;
layers = (
{
anchors = (
{
name = top;
position = "{258, 521}";
}
);
layerId = "784662A0-BFC3-4940-8AA1-9AA8A3FE0938";
paths = (
{
closed = 1;
nodes = (
"67 521 LINE",
"67 482 LINE",
"413 482 LINE",
"58 38 LINE",
"58 0 LINE",
"468 -1 LINE",
"468 37 LINE",
"105 38 LINE",
"461 482 LINE",
"461 520 LINE"
);
}
);
width = 516;
}
);
leftKerningGroup = z;
rightKerningGroup = z;
unicode = 007A;
},
{
glyphname = a.ss01;
layers = (
{
anchors = (
{
name = ogonek;
position = "{618, 10}";
},
{
name = top;
position = "{332, 521}";
}
);
layerId = "784662A0-BFC3-4940-8AA1-9AA8A3FE0938";
paths = (
{
closed = 1;
nodes = (
"524 521 LINE",
"524 0 LINE",
"565 0 LINE",
"565 521 LINE"
);
},
{
closed = 1;
nodes = (
"154 523 OFFCURVE",
"48 414 OFFCURVE",
"48 260 CURVE SMOOTH",
"48 107 OFFCURVE",
"154 -3 OFFCURVE",
"301 -3 CURVE SMOOTH",
"447 -3 OFFCURVE",
"549 105 OFFCURVE",
"549 260 CURVE",
"549 416 OFFCURVE",
"447 524 OFFCURVE",
"301 524 CURVE SMOOTH"
);
},
{
closed = 1;
nodes = (
"433 484 OFFCURVE",
"524 390 OFFCURVE",
"524 260 CURVE SMOOTH",
"524 130 OFFCURVE",
"433 36 OFFCURVE",
"307 36 CURVE SMOOTH",
"180 36 OFFCURVE",
"89 130 OFFCURVE",
"89 260 CURVE SMOOTH",
"89 389 OFFCURVE",
"180 484 OFFCURVE",
"307 484 CURVE SMOOTH"
);
}
);
width = 670;
}
);
leftKerningGroup = o;
leftMetricsKey = o;
rightKerningGroup = dotlessi;
rightMetricsKey = dotlessi;
},
{
glyphname = ae.ss01;
layers = (
{
anchors = (
{
name = top;
position = "{485, 521}";
}
);
layerId = "784662A0-BFC3-4940-8AA1-9AA8A3FE0938";
paths = (
{
closed = 0;
nodes = (
"557 124 LINE"
);
},
{
closed = 1;
nodes = (
"253 292 LINE",
"133 292 OFFCURVE",
"58 239 OFFCURVE",
"58 152 CURVE",
"58 64 OFFCURVE",
"128 -1 OFFCURVE",
"232 -1 CURVE",
"342 -1 OFFCURVE",
"429 47 OFFCURVE",
"472 157 CURVE",
"453 199 LINE",
"418 83 OFFCURVE",
"340 37 OFFCURVE",
"237 37 CURVE",
"152 37 OFFCURVE",
"98 84 OFFCURVE",
"98 153 CURVE",
"98 220 OFFCURVE",
"154 255 OFFCURVE",
"257 255 CURVE",
"452 255 LINE",
"452 292 LINE"
);
},
{
closed = 1;
nodes = (
"105 416 LINE",
"161 458 OFFCURVE",
"216 484 OFFCURVE",
"282 484 CURVE",
"386 484 OFFCURVE",
"438 431 OFFCURVE",
"439 343 CURVE",
"440 230 LINE",
"480 230 LINE",
"480 346 LINE",
"479 454 OFFCURVE",
"411 522 OFFCURVE",
"288 522 CURVE",
"207 522 OFFCURVE",
"147 493 OFFCURVE",
"85 448 CURVE"
);
},
{
closed = 1;
nodes = (
"836 66 OFFCURVE",
"775 37 OFFCURVE",
"704 37 CURVE SMOOTH",
"575 37 OFFCURVE",
"485 130 OFFCURVE",
"485 262 CURVE SMOOTH",
"485 395 OFFCURVE",
"573 483 OFFCURVE",
"699 483 CURVE SMOOTH",
"786 483 OFFCURVE",
"855 443 OFFCURVE",
"883 368 CURVE",
"474 211 LINE",
"480 175 LINE",
"928 346 LINE",
"903 455 OFFCURVE",
"813 522 OFFCURVE",
"699 522 CURVE SMOOTH",
"549 521 OFFCURVE",
"444 411 OFFCURVE",
"444 261 CURVE SMOOTH",
"444 108 OFFCURVE",
"551 -1 OFFCURVE",
"701 -1 CURVE SMOOTH",
"785 -1 OFFCURVE",
"856 32 OFFCURVE",
"912 104 CURVE",
"884 127 LINE"
);
}
);
width = 973;
}
);
leftKerningGroup = ae.ss01;
leftMetricsKey = a;
rightKerningGroup = ae.ss01;
rightMetricsKey = e;
},
{
glyphname = e.ss01;
layers = (
{
anchors = (
{
name = bottom;
position = "{297, 0}";
},
{
name = ogonek;
position = "{535, 10}";
},
{
name = top;
position = "{297, 521}";
}
);
layerId = "784662A0-BFC3-4940-8AA1-9AA8A3FE0938";
paths = (
{
closed = 1;
nodes = (
"85 175 LINE",
"532 346 LINE",
"507 455 OFFCURVE",
"417 522 OFFCURVE",
"303 522 CURVE SMOOTH",
"153 521 OFFCURVE",
"48 411 OFFCURVE",
"48 261 CURVE SMOOTH",
"48 108 OFFCURVE",
"156 -1 OFFCURVE",
"306 -1 CURVE SMOOTH",
"389 -1 OFFCURVE",
"460 32 OFFCURVE",
"516 104 CURVE",
"488 128 LINE",
"440 66 OFFCURVE",
"379 37 OFFCURVE",
"308 37 CURVE SMOOTH",
"179 37 OFFCURVE",
"89 130 OFFCURVE",
"89 262 CURVE SMOOTH",
"89 395 OFFCURVE",
"178 483 OFFCURVE",
"303 483 CURVE SMOOTH",
"390 483 OFFCURVE",
"459 443 OFFCURVE",
"487 368 CURVE",
"78 211 LINE"
);
}
);
width = 593;
}
);
leftKerningGroup = o;
leftMetricsKey = o;
rightKerningGroup = e;
},
{
glyphname = eogonek.ss01;
layers = (
{
layerId = "784662A0-BFC3-4940-8AA1-9AA8A3FE0938";
paths = (
{
closed = 1;
nodes = (
"179 37 OFFCURVE",
"89 130 OFFCURVE",
"89 262 CURVE SMOOTH",
"89 395 OFFCURVE",
"178 483 OFFCURVE",
"303 483 CURVE SMOOTH",
"390 483 OFFCURVE",
"459 443 OFFCURVE",
"487 368 CURVE",
"78 211 LINE",
"85 175 LINE",
"532 346 LINE",
"507 455 OFFCURVE",
"417 522 OFFCURVE",
"303 522 CURVE SMOOTH",
"153 521 OFFCURVE",
"48 411 OFFCURVE",
"48 261 CURVE SMOOTH",
"48 108 OFFCURVE",
"156 -1 OFFCURVE",
"306 -1 CURVE",
"361 -1 OFFCURVE",
"411 16 OFFCURVE",
"453 45 CURVE",
"400 -29 OFFCURVE",
"381 -83 OFFCURVE",
"381 -129 CURVE SMOOTH",
"381 -174 OFFCURVE",
"411 -200 OFFCURVE",
"448 -200 CURVE SMOOTH",
"476 -200 OFFCURVE",
"506 -181 OFFCURVE",
"526 -155 CURVE",
"507 -135 LINE",
"490 -155 OFFCURVE",
"471 -169 OFFCURVE",
"451 -169 CURVE SMOOTH",
"428 -169 OFFCURVE",
"410 -153 OFFCURVE",
"410 -125 CURVE SMOOTH",
"410 -75 OFFCURVE",
"432 -13 OFFCURVE",
"508 82 CURVE",
"483 109 LINE",
"441 63 OFFCURVE",
"379 37 OFFCURVE",
"308 37 CURVE"
);
}
);
width = 593;
}
);
leftKerningGroup = o;
rightKerningGroup = e;
},
{
glyphname = f.ss01;
layers = (
{
layerId = "784662A0-BFC3-4940-8AA1-9AA8A3FE0938";
paths = (
{
closed = 1;
nodes = (
"164 751 OFFCURVE",
"93 684 OFFCURVE",
"93 583 CURVE",
"93 0 LINE",
"134 0 LINE",
"134 587 LINE",
"134 661 OFFCURVE",
"184 711 OFFCURVE",
"248 711 CURVE",
"278 710 OFFCURVE",
"309 699 OFFCURVE",
"334 680 CURVE",
"353 714 LINE",
"324 736 OFFCURVE",
"285 750 OFFCURVE",
"247 751 CURVE"
);
},
{
closed = 1;
nodes = (
"99 508 LINE",
"99 472 LINE",
"295 472 LINE",
"295 508 LINE"
);
}
);
width = 286;
}
);
leftKerningGroup = f.ss01;
rightKerningGroup = f.ss01;
},
{
glyphname = g.ss01;
layers = (
{
anchors = (
{
name = top;
position = "{313, 521}";
}
);
layerId = "784662A0-BFC3-4940-8AA1-9AA8A3FE0938";
paths = (
{
closed = 1;
nodes = (
"501 521 LINE",
"501 57 LINE",
"501 -73 OFFCURVE",
"417 -156 OFFCURVE",
"288 -155 CURVE",
"208 -152 OFFCURVE",
"143 -107 OFFCURVE",
"118 -42 CURVE",
"90 -65 LINE",
"117 -141 OFFCURVE",
"195 -191 OFFCURVE",
"290 -194 CURVE",
"443 -195 OFFCURVE",
"542 -97 OFFCURVE",
"542 57 CURVE",
"542 521 LINE"
);
},
{
closed = 1;
nodes = (
"148 522 OFFCURVE",
"48 417 OFFCURVE",
"48 271 CURVE SMOOTH",
"48 126 OFFCURVE",
"149 21 OFFCURVE",
"289 21 CURVE SMOOTH",
"428 21 OFFCURVE",
"525 123 OFFCURVE",
"525 271 CURVE",
"525 419 OFFCURVE",
"428 522 OFFCURVE",
"288 522 CURVE SMOOTH"
);
},
{
closed = 1;
nodes = (
"414 484 OFFCURVE",
"501 394 OFFCURVE",
"502 270 CURVE SMOOTH",
"501 147 OFFCURVE",
"414 57 OFFCURVE",
"294 57 CURVE SMOOTH",
"173 57 OFFCURVE",
"87 147 OFFCURVE",
"87 270 CURVE SMOOTH",
"87 394 OFFCURVE",
"174 484 OFFCURVE",
"294 484 CURVE SMOOTH"
);
}
);
width = 632;
}
);
leftKerningGroup = o;
leftMetricsKey = o;
rightKerningGroup = j;
rightMetricsKey = j;
},
{
glyphname = l.ss01;
layers = (
{
anchors = (
{
name = bottom;
position = "{136, 0}";
},
{
name = top;
position = "{136, 521}";
},
{
name = topright;
position = "{252, 521}";
}
);
layerId = "784662A0-BFC3-4940-8AA1-9AA8A3FE0938";
paths = (
{
closed = 1;
nodes = (
"96 104 LINE SMOOTH",
"96 35 OFFCURVE",
"129 -1 OFFCURVE",
"182 -1 CURVE SMOOTH",
"207 -1 OFFCURVE",
"235 11 OFFCURVE",
"260 34 CURVE",
"247 67 LINE",
"227 49 OFFCURVE",
"207 40 OFFCURVE",
"189 40 CURVE SMOOTH",
"155 40 OFFCURVE",
"136 62 OFFCURVE",
"136 108 CURVE SMOOTH",
"136 742 LINE",
"96 742 LINE"
);
}
);
width = 270;
}
);
leftKerningGroup = l.ss01;
rightKerningGroup = l.ss01;
},
{
glyphname = oe.ss01;
layers = (
{
anchors = (
{
name = bottom;
position = "{908, 0}";
},
{
name = ogonek;
position = "{1145, 10}";
},
{
name = top;
position = "{908, 521}";
}
);
layerId = "784662A0-BFC3-4940-8AA1-9AA8A3FE0938";
paths = (
{
closed = 1;
nodes = (
"156 522 OFFCURVE",
"48 413 OFFCURVE",
"48 261 CURVE SMOOTH",
"48 107 OFFCURVE",
"156 -1 OFFCURVE",
"305 -1 CURVE SMOOTH",
"452 -1 OFFCURVE",
"557 107 OFFCURVE",
"557 261 CURVE SMOOTH",
"557 413 OFFCURVE",
"452 522 OFFCURVE",
"305 522 CURVE SMOOTH"
);
},
{
closed = 1;
nodes = (
"430 482 OFFCURVE",
"521 391 OFFCURVE",
"521 261 CURVE SMOOTH",
"521 129 OFFCURVE",
"430 38 OFFCURVE",
"305 38 CURVE SMOOTH",
"179 38 OFFCURVE",
"89 129 OFFCURVE",
"89 261 CURVE SMOOTH",
"89 391 OFFCURVE",
"179 482 OFFCURVE",
"305 482 CURVE SMOOTH"
);
},
{
closed = 1;
nodes = (
"627 521 OFFCURVE",
"525 411 OFFCURVE",
"525 261 CURVE SMOOTH",
"525 108 OFFCURVE",
"629 -1 OFFCURVE",
"778 -1 CURVE SMOOTH",
"862 -1 OFFCURVE",
"933 32 OFFCURVE",
"989 104 CURVE",
"961 128 LINE",
"913 66 OFFCURVE",
"852 37 OFFCURVE",
"780 37 CURVE SMOOTH",
"652 37 OFFCURVE",
"562 130 OFFCURVE",
"562 262 CURVE SMOOTH",
"562 395 OFFCURVE",
"650 483 OFFCURVE",
"776 483 CURVE SMOOTH",
"862 483 OFFCURVE",
"931 443 OFFCURVE",
"959 368 CURVE",
"551 211 LINE",
"557 175 LINE",
"1004 346 LINE",
"980 455 OFFCURVE",
"890 522 OFFCURVE",
"775 522 CURVE SMOOTH"
);
}
);
width = 1065;
}
);
leftKerningGroup = o;
leftMetricsKey = "=o";
rightKerningGroup = o;
rightMetricsKey = e.ss01;
},
{
glyphname = t.ss01;
layers = (
{
anchors = (
{
name = bottom;
position = "{192, 0}";
},
{
name = center;
position = "{154, 261}";
}
);
layerId = "784662A0-BFC3-4940-8AA1-9AA8A3FE0938";
paths = (
{
closed = 1;
nodes = (
"90 637 LINE",
"90 164 LINE",
"90 53 OFFCURVE",
"135 -2 OFFCURVE",
"209 -1 CURVE",
"247 -1 OFFCURVE",
"284 13 OFFCURVE",
"317 36 CURVE",
"301 70 LINE",
"274 51 OFFCURVE",
"244 40 OFFCURVE",
"214 40 CURVE",
"160 39 OFFCURVE",
"131 82 OFFCURVE",
"131 169 CURVE",
"131 637 LINE"
);
},
{
closed = 1;
nodes = (
"106 508 LINE",
"106 472 LINE",
"307 472 LINE",
"307 508 LINE"
);
}
);
width = 340;
}
);
leftKerningGroup = u;
rightKerningGroup = t;
rightMetricsKey = t;
},
{
glyphname = tbar.ss01;
layers = (
{
anchors = (
{
name = bottom;
position = "{192, 0}";
},
{
name = center;
position = "{154, 261}";
}
);
layerId = "784662A0-BFC3-4940-8AA1-9AA8A3FE0938";
paths = (
{
closed = 1;
nodes = (
"90 637 LINE",
"90 164 LINE",
"90 53 OFFCURVE",
"135 -2 OFFCURVE",
"209 -1 CURVE",
"247 -1 OFFCURVE",
"284 13 OFFCURVE",
"317 36 CURVE",
"301 70 LINE",
"274 51 OFFCURVE",
"244 40 OFFCURVE",
"214 40 CURVE",
"160 39 OFFCURVE",
"131 82 OFFCURVE",
"131 169 CURVE",
"131 637 LINE"
);
},
{
closed = 1;
nodes = (
"106 508 LINE",
"106 472 LINE",
"307 472 LINE",
"307 508 LINE"
);
},
{
closed = 1;
nodes = (
"106 321 LINE",
"106 284 LINE",
"307 284 LINE",
"307 321 LINE"
);
}
);
width = 340;
}
);
leftKerningGroup = tbar.ss01;
rightKerningGroup = tbar.ss01;
},
{
glyphname = w.ss01;
layers = (
{
anchors = (
{
name = top;
position = "{480, 521}";
}
);
layerId = "784662A0-BFC3-4940-8AA1-9AA8A3FE0938";
paths = (
{
closed = 1;
nodes = (
"834 521 LINE",
"834 202 LINE SMOOTH",
"834 104 OFFCURVE",
"769 41 OFFCURVE",
"670 41 CURVE SMOOTH",
"568 41 OFFCURVE",
"501 104 OFFCURVE",
"501 202 CURVE SMOOTH",
"501 521 LINE",
"460 521 LINE",
"460 202 LINE SMOOTH",
"460 104 OFFCURVE",
"394 41 OFFCURVE",
"291 41 CURVE SMOOTH",
"191 41 OFFCURVE",
"126 104 OFFCURVE",
"126 202 CURVE SMOOTH",
"126 521 LINE",
"85 521 LINE",
"85 200 LINE SMOOTH",
"85 78 OFFCURVE",
"165 -1 OFFCURVE",
"286 -1 CURVE SMOOTH",
"379 -1 OFFCURVE",
"456 48 OFFCURVE",
"481 123 CURVE",
"505 48 OFFCURVE",
"581 -1 OFFCURVE",
"674 -1 CURVE SMOOTH",
"795 -1 OFFCURVE",
"875 78 OFFCURVE",
"875 200 CURVE SMOOTH",
"875 521 LINE"
);
}
);
width = 960;
}
);
leftKerningGroup = u;
rightKerningGroup = w.ss01;
},
{
glyphname = y.ss01;
layers = (
{
anchors = (
{
name = top;
position = "{313, 521}";
}
);
layerId = "784662A0-BFC3-4940-8AA1-9AA8A3FE0938";
paths = (
{
closed = 1;
nodes = (
"440 47 OFFCURVE",
"525 143 OFFCURVE",
"525 313 CURVE",
"503 313 LINE",
"503 174 OFFCURVE",
"427 89 OFFCURVE",
"299 86 CURVE",
"192 86 OFFCURVE",
"128 149 OFFCURVE",
"128 257 CURVE",
"128 521 LINE SMOOTH",
"87 521 LINE",
"87 249 LINE",
"87 121 OFFCURVE",
"162 44 OFFCURVE",
"289 44 CURVE"
);
},
{
closed = 1;
nodes = (
"502 521 LINE",
"502 59 LINE",
"502 -77 OFFCURVE",
"427 -156 OFFCURVE",
"298 -155 CURVE",
"225 -152 OFFCURVE",
"157 -121 OFFCURVE",
"110 -71 CURVE",
"93 -102 LINE",
"144 -157 OFFCURVE",
"221 -191 OFFCURVE",
"300 -194 CURVE",
"453 -195 OFFCURVE",
"543 -101 OFFCURVE",
"543 58 CURVE",
"543 521 LINE"
);
}
);
width = 632;
}
);
leftKerningGroup = u;
leftMetricsKey = u;
rightKerningGroup = j;
rightMetricsKey = g;
},
{
glyphname = z.ss01;
layers = (
{
anchors = (
{
name = top;
position = "{258, 521}";
}
);
layerId = "784662A0-BFC3-4940-8AA1-9AA8A3FE0938";
paths = (
{
closed = 1;
nodes = (
"256 279 LINE",
"256 242 LINE",
"430 242 LINE",
"430 279 LINE"
);
},
{
closed = 1;
nodes = (
"98 282 LINE",
"98 245 LINE",
"260 245 LINE",
"260 282 LINE"
);
},
{
closed = 1;
nodes = (
"67 521 LINE",
"67 482 LINE",
"413 482 LINE",
"58 38 LINE",
"58 0 LINE",
"468 -1 LINE",
"468 37 LINE",
"105 38 LINE",
"461 482 LINE",
"461 520 LINE"
);
}
);
width = 516;
}
);
leftKerningGroup = z;
leftMetricsKey = z;
rightKerningGroup = z;
rightMetricsKey = z;
},
{
glyphname = fi;
layers = (
{
components = (
{
name = i;
transform = "{1, 0, 0, 1, 306, 0}";
}
);
layerId = "784662A0-BFC3-4940-8AA1-9AA8A3FE0938";
paths = (
{
closed = 1;
nodes = (
"186 751 OFFCURVE",
"115 685 OFFCURVE",
"115 583 CURVE",
"115 0 LINE",
"156 0 LINE",
"156 587 LINE",
"156 661 OFFCURVE",
"206 711 OFFCURVE",
"270 710 CURVE",
"301 710 OFFCURVE",
"333 698 OFFCURVE",
"360 680 CURVE",
"361 723 LINE",
"336 739 OFFCURVE",
"302 750 OFFCURVE",
"269 751 CURVE"
);
},
{
closed = 1;
nodes = (
"49 516 LINE",
"49 479 LINE",
"318 479 LINE",
"318 516 LINE"
);
}
);
width = 556;
}
);
leftKerningGroup = f;
leftMetricsKey = f;
rightKerningGroup = dotlessi;
rightMetricsKey = i;
unicode = FB01;
},
{
glyphname = fl;
layers = (
{
components = (
{
name = l;
transform = "{1, 0, 0, 1, 309, 0}";
}
);
layerId = "784662A0-BFC3-4940-8AA1-9AA8A3FE0938";
paths = (
{
closed = 1;
nodes = (
"182 753 OFFCURVE",
"115 682 OFFCURVE",
"115 587 CURVE",
"115 0 LINE",
"156 0 LINE",
"156 583 LINE",
"156 658 OFFCURVE",
"207 714 OFFCURVE",
"274 713 CURVE",
"305 712 OFFCURVE",
"336 701 OFFCURVE",
"361 682 CURVE",
"361 725 LINE",
"336 741 OFFCURVE",
"302 751 OFFCURVE",
"269 752 CURVE"
);
},
{
closed = 1;
nodes = (
"49 516 LINE",
"49 479 LINE",
"318 479 LINE",
"318 516 LINE"
);
}
);
width = 569;
}
);
leftKerningGroup = f;
leftMetricsKey = f;
rightKerningGroup = l;
rightMetricsKey = l;
unicode = FB02;
},
{
glyphname = fi.ss01;
layers = (
{
components = (
{
name = i;
transform = "{1, 0, 0, 1, 286, 0}";
}
);
layerId = "784662A0-BFC3-4940-8AA1-9AA8A3FE0938";
paths = (
{
closed = 1;
nodes = (
"164 751 OFFCURVE",
"93 685 OFFCURVE",
"93 583 CURVE",
"93 0 LINE",
"134 0 LINE",
"134 587 LINE",
"134 661 OFFCURVE",
"184 711 OFFCURVE",
"248 710 CURVE",
"279 710 OFFCURVE",
"311 698 OFFCURVE",
"338 680 CURVE",
"339 723 LINE",
"314 739 OFFCURVE",
"280 750 OFFCURVE",
"247 751 CURVE"
);
},
{
closed = 1;
nodes = (
"111 508 LINE",
"111 472 LINE",
"295 472 LINE",
"295 508 LINE"
);
}
);
width = 536;
}
);
leftKerningGroup = f;
leftMetricsKey = f.ss01;
rightKerningGroup = dotlessi;
rightMetricsKey = i;
},
{
glyphname = fl.ss01;
layers = (
{
anchors = (
{
name = caret_1;
position = "{290, 0}";
}
);
layerId = "784662A0-BFC3-4940-8AA1-9AA8A3FE0938";
paths = (
{
closed = 1;
nodes = (
"556 -33 LINE",
"536 -51 OFFCURVE",
"516 -60 OFFCURVE",
"498 -60 CURVE SMOOTH",
"464 -60 OFFCURVE",
"445 -38 OFFCURVE",
"445 8 CURVE SMOOTH",
"445 592 LINE SMOOTH",
"445 689 OFFCURVE",
"384 749 OFFCURVE",
"283 750 CURVE SMOOTH",
"179 751 OFFCURVE",
"115 689 OFFCURVE",
"115 586 CURVE SMOOTH",
"115 508 LINE",
"49 508 LINE",
"49 472 LINE",
"115 472 LINE",
"115 0 LINE",
"156 0 LINE",
"156 472 LINE",
"289 472 LINE",
"289 508 LINE",
"156 508 LINE",
"156 587 LINE SMOOTH",
"156 664 OFFCURVE",
"204 712 OFFCURVE",
"281 711 CURVE SMOOTH",
"358 709 OFFCURVE",
"405 663 OFFCURVE",
"405 590 CURVE SMOOTH",
"405 4 LINE SMOOTH",
"405 -65 OFFCURVE",
"438 -101 OFFCURVE",
"491 -101 CURVE SMOOTH",
"516 -101 OFFCURVE",
"544 -89 OFFCURVE",
"569 -66 CURVE"
);
}
);
width = 579;
}
);
leftKerningGroup = f;
leftMetricsKey = f;
rightKerningGroup = l;
rightMetricsKey = l.ss01;
},
{
glyphname = ordfeminine;
layers = (
{
layerId = "784662A0-BFC3-4940-8AA1-9AA8A3FE0938";
paths = (
{
closed = 1;
nodes = (
"145 764 OFFCURVE",
"103 748 OFFCURVE",
"64 723 CURVE",
"76 697 LINE",
"111 720 OFFCURVE",
"146 734 OFFCURVE",
"184 734 CURVE",
"245 734 OFFCURVE",
"276 706 OFFCURVE",
"276 657 CURVE",
"277 458 LINE",
"311 458 LINE",
"310 660 LINE",
"310 724 OFFCURVE",
"267 764 OFFCURVE",
"191 764 CURVE"
);
},
{
closed = 1;
nodes = (
"284 628 LINE",
"166 628 LINE",
"92 628 OFFCURVE",
"47 598 OFFCURVE",
"47 546 CURVE",
"47 494 OFFCURVE",
"88 457 OFFCURVE",
"151 457 CURVE",
"215 457 OFFCURVE",
"264 484 OFFCURVE",
"289 543 CURVE",
"277 555 LINE",
"254 504 OFFCURVE",
"213 483 OFFCURVE",
"160 483 CURVE",
"111 483 OFFCURVE",
"80 510 OFFCURVE",
"80 549 CURVE",
"80 586 OFFCURVE",
"113 606 OFFCURVE",
"171 606 CURVE",
"284 606 LINE"
);
}
);
width = 375;
}
);
leftKerningGroup = asterisk;
rightKerningGroup = asterisk;
unicode = 00AA;
},
{
glyphname = ordmasculine;
layers = (
{
layerId = "784662A0-BFC3-4940-8AA1-9AA8A3FE0938";
paths = (
{
closed = 1;
nodes = (
"107 764 OFFCURVE",
"42 701 OFFCURVE",
"42 611 CURVE SMOOTH",
"42 520 OFFCURVE",
"107 457 OFFCURVE",
"200 457 CURVE SMOOTH",
"291 457 OFFCURVE",
"357 520 OFFCURVE",
"357 611 CURVE SMOOTH",
"357 701 OFFCURVE",
"291 764 OFFCURVE",
"200 764 CURVE SMOOTH"
);
},
{
closed = 1;
nodes = (
"271 733 OFFCURVE",
"322 683 OFFCURVE",
"322 610 CURVE SMOOTH",
"322 537 OFFCURVE",
"271 487 OFFCURVE",
"199 487 CURVE SMOOTH",
"127 487 OFFCURVE",
"75 537 OFFCURVE",
"75 610 CURVE SMOOTH",
"75 683 OFFCURVE",
"127 733 OFFCURVE",
"199 733 CURVE SMOOTH"
);
}
);
width = 398;
}
);
leftKerningGroup = asterisk;
rightKerningGroup = asterisk;
unicode = 00BA;
},
{
glyphname = Delta;
layers = (
{
layerId = "784662A0-BFC3-4940-8AA1-9AA8A3FE0938";
paths = (
{
closed = 1;
nodes = (
"326 699 LINE",
"8 0 LINE",
"54 0 LINE",
"347 651 LINE",
"644 0 LINE",
"690 0 LINE",
"370 699 LINE"
);
},
{
closed = 1;
nodes = (
"42 38 LINE",
"42 0 LINE",
"653 0 LINE",
"653 38 LINE"
);
}
);
width = 698;
}
);
leftKerningGroup = A;
rightKerningGroup = A;
unicode = 0394;
},
{
glyphname = Omega;
layers = (
{
anchors = (
{
name = topleft;
position = "{20, 699}";
}
);
layerId = "784662A0-BFC3-4940-8AA1-9AA8A3FE0938";
paths = (
{
closed = 1;
nodes = (
"252 701 OFFCURVE",
"99 554 OFFCURVE",
"99 358 CURVE SMOOTH",
"99 236 OFFCURVE",
"168 107 OFFCURVE",
"266 40 CURVE",
"12 40 LINE",
"12 0 LINE",
"323 0 LINE",
"323 38 LINE",
"215 95 OFFCURVE",
"138 228 OFFCURVE",
"138 355 CURVE SMOOTH",
"138 531 OFFCURVE",
"273 660 OFFCURVE",
"458 660 CURVE SMOOTH",
"643 660 OFFCURVE",
"778 531 OFFCURVE",
"778 355 CURVE SMOOTH",
"778 228 OFFCURVE",
"701 96 OFFCURVE",
"594 39 CURVE",
"594 0 LINE",
"904 0 LINE",
"904 40 LINE",
"651 40 LINE",
"749 107 OFFCURVE",
"817 236 OFFCURVE",
"817 358 CURVE SMOOTH",
"817 554 OFFCURVE",
"664 701 OFFCURVE",
"458 701 CURVE SMOOTH"
);
}
);
width = 916;
}
);
leftMetricsKey = T;
rightMetricsKey = T;
unicode = 03A9;
},
{
glyphname = pi;
layers = (
{
layerId = "784662A0-BFC3-4940-8AA1-9AA8A3FE0938";
paths = (
{
closed = 1;
nodes = (
"162 521 LINE",
"68 521 OFFCURVE",
"-3 455 OFFCURVE",
"-2 373 CURVE",
"-1 336 OFFCURVE",
"13 295 OFFCURVE",
"35 265 CURVE",
"65 281 LINE",
"46 307 OFFCURVE",
"34 338 OFFCURVE",
"33 368 CURVE",
"32 434 OFFCURVE",
"89 484 OFFCURVE",
"165 484 CURVE",
"712 484 LINE",
"712 521 LINE"
);
},
{
closed = 1;
nodes = (
"501 503 LINE",
"501 0 LINE",
"538 0 LINE",
"538 503 LINE"
);
},
{
closed = 1;
nodes = (
"245 503 LINE",
"187 0 LINE",
"224 0 LINE",
"282 503 LINE"
);
}
);
width = 720;
}
);
unicode = 03C0;
},
{
glyphname = "aaMatra-gurmukhi";
layers = (
{
anchors = (
{
name = bindu;
position = "{109, 680}";
},
{
name = candra;
position = "{109, 690}";
},
{
name = top;
position = "{109, 670}";
}
);
layerId = "784662A0-BFC3-4940-8AA1-9AA8A3FE0938";
paths = (
{
closed = 1;
nodes = (
"130 302 LINE",
"130 643 LINE",
"236 643 LINE",
"236 682 LINE",
"0 682 LINE",
"0 643 LINE",
"89 643 LINE",
"89 302 LINE"
);
}
);
width = 236;
}
);
unicode = 0A3E;
},
{
glyphname = "iMatra-gurmukhi";
layers = (
{
anchors = (
{
name = bindu;
position = "{484, 670}";
},
{
name = candra;
position = "{651, 690}";
}
);
layerId = "784662A0-BFC3-4940-8AA1-9AA8A3FE0938";
paths = (
{
closed = 1;
nodes = (
"122 643 LINE",
"122 750 LINE SMOOTH",
"122 835 OFFCURVE",
"155 875 OFFCURVE",
"227 875 CURVE SMOOTH",
"314 875 OFFCURVE",
"366 816 OFFCURVE",
"404 756 CURVE",
"434 774 LINE",
"375 872 OFFCURVE",
"304 914 OFFCURVE",
"223 914 CURVE SMOOTH",
"128 914 OFFCURVE",
"83 852 OFFCURVE",
"83 751 CURVE SMOOTH",
"83 682 LINE",
"0 682 LINE",
"0 643 LINE"
);
},
{
closed = 1;
nodes = (
"122 0 LINE",
"122 661 LINE",
"110 643 LINE",
"228 643 LINE",
"228 682 LINE",
"81 682 LINE",
"81 0 LINE"
);
}
);
width = 228;
}
);
unicode = 0A3F;
},
{
glyphname = "iiMatra-gurmukhi";
layers = (
{
anchors = (
{
name = bindu;
position = "{200, 670}";
},
{
name = candra;
position = "{366, 690}";
}
);
layerId = "784662A0-BFC3-4940-8AA1-9AA8A3FE0938";
paths = (
{
closed = 1;
nodes = (
"129 643 LINE",
"129 743 LINE SMOOTH",
"129 848 OFFCURVE",
"78 914 OFFCURVE",
"-9 914 CURVE SMOOTH",
"-92 914 OFFCURVE",
"-135 856 OFFCURVE",
"-146 769 CURVE",
"-111 757 LINE",
"-100 819 OFFCURVE",
"-77 875 OFFCURVE",
"-7 875 CURVE SMOOTH",
"58 875 OFFCURVE",
"90 826 OFFCURVE",
"90 748 CURVE SMOOTH",
"90 661 LINE",
"109 682 LINE",
"-8 682 LINE",
"-8 643 LINE"
);
},
{
closed = 1;
nodes = (
"129 0 LINE",
"129 661 LINE",
"117 643 LINE",
"235 643 LINE",
"235 682 LINE",
"88 682 LINE",
"88 0 LINE"
);
}
);
width = 235;
}
);
rightMetricsKey = "STEM-GURM";
unicode = 0A40;
},
{
glyphname = "a-gurmukhi";
layers = (
{
anchors = (
{
name = bindu;
position = "{678, 682}";
},
{
name = candra;
position = "{678, 692}";
},
{
name = top;
position = "{681, 672}";
}
);
layerId = "784662A0-BFC3-4940-8AA1-9AA8A3FE0938";
paths = (
{
closed = 1;
nodes = (
"431 195 OFFCURVE",
"455 283 OFFCURVE",
"455 381 CURVE SMOOTH",
"455 515 OFFCURVE",
"409 592 OFFCURVE",
"307 592 CURVE SMOOTH",
"224 592 OFFCURVE",
"179 542 OFFCURVE",
"155 476 CURVE",
"170 497 LINE",
"159 628 OFFCURVE",
"92 682 OFFCURVE",
"9 682 CURVE SMOOTH",
"-2 682 LINE",
"-2 643 LINE",
"12 643 LINE SMOOTH",
"123 643 OFFCURVE",
"146 507 OFFCURVE",
"140 430 CURVE",
"150 482 LINE",
"118 402 OFFCURVE",
"91 310 OFFCURVE",
"76 206 CURVE",
"111 196 LINE",
"158 312 OFFCURVE",
"176 378 OFFCURVE",
"175 456 CURVE",
"163 391 LINE",
"190 510 OFFCURVE",
"245 551 OFFCURVE",
"310 551 CURVE SMOOTH",
"404 551 OFFCURVE",
"422 466 OFFCURVE",
"419 341 CURVE",
"428 410 LINE",
"404 345 OFFCURVE",
"384 266 OFFCURVE",
"373 198 CURVE SMOOTH",
"368 170 OFFCURVE",
"360 119 OFFCURVE",
"358 100 CURVE",
"394 94 LINE"
);
},
{
closed = 1;
nodes = (
"678 351 LINE",
"678 390 LINE",
"435 390 LINE",
"435 351 LINE"
);
},
{
closed = 1;
nodes = (
"701 0 LINE",
"701 661 LINE",
"689 643 LINE",
"807 643 LINE",
"807 682 LINE",
"660 682 LINE",
"660 0 LINE"
);
}
);
width = 807;
}
);
rightMetricsKey = "STEM-GURM";
unicode = 0A05;
},
{
glyphname = "ee-gurmukhi";
layers = (
{
anchors = (
{
name = _top;
position = "{484, 670}";
},
{
name = bindu;
position = "{597, 680}";
},
{
name = bottom;
position = "{361, 2}";
},
{
name = candra;
position = "{654, 690}";
},
{
name = caret_1;
position = "{353, 30}";
},
{
name = nukta;
position = "{94, -9}";
},
{
name = top;
position = "{573, 670}";
}
);
components = (
{
name = "iri-gurmukhi";
}
);
layerId = "784662A0-BFC3-4940-8AA1-9AA8A3FE0938";
paths = (
{
closed = 1;
nodes = (
"502 663 LINE",
"502 816 OFFCURVE",
"416 915 OFFCURVE",
"250 915 CURVE SMOOTH",
"206 915 OFFCURVE",
"161 908 OFFCURVE",
"125 895 CURVE",
"135 859 LINE",
"168 869 OFFCURVE",
"211 876 OFFCURVE",
"253 876 CURVE SMOOTH",
"408 876 OFFCURVE",
"466 784 OFFCURVE",
"467 663 CURVE"
);
}
);
width = 614;
}
);
unicode = 0A0F;
},
{
glyphname = "ai-gurmukhi";
layers = (
{
anchors = (
{
name = _top;
position = "{678, 672}";
},
{
name = bindu;
position = "{788, 680}";
},
{
name = candra;
position = "{845, 690}";
},
{
name = top;
position = "{762, 672}";
}
);
components = (
{
name = "a-gurmukhi";
}
);
layerId = "784662A0-BFC3-4940-8AA1-9AA8A3FE0938";
paths = (
{
closed = 1;
nodes = (
"696 668 LINE",
"695 885 OFFCURVE",
"580 971 OFFCURVE",
"444 971 CURVE",
"444 935 LINE",
"556 935 OFFCURVE",
"651 876 OFFCURVE",
"668 708 CURVE",
"674 725 LINE",
"642 807 OFFCURVE",
"541 851 OFFCURVE",
"439 851 CURVE SMOOTH",
"389 851 OFFCURVE",
"341 842 OFFCURVE",
"304 827 CURVE",
"313 793 LINE",
"347 805 OFFCURVE",
"394 813 OFFCURVE",
"443 813 CURVE SMOOTH",
"548 813 OFFCURVE",
"660 766 OFFCURVE",
"661 668 CURVE"
);
}
);
width = 807;
}
);
unicode = 0A10;
},
{
glyphname = "oo-gurmukhi";
layers = (
{
anchors = (
{
name = bindu;
position = "{617, 680}";
},
{
name = bottom;
position = "{363, 0}";
},
{
name = candra;
position = "{710, 650}";
},
{
name = caret_1;
position = "{354, 30}";
},
{
name = nukta;
position = "{92, -3}";
},
{
name = top;
position = "{537, 670}";
}
);
layerId = "784662A0-BFC3-4940-8AA1-9AA8A3FE0938";
paths = (
{
closed = 1;
nodes = (
"475 -2 OFFCURVE",
"549 81 OFFCURVE",
"549 188 CURVE SMOOTH",
"549 292 OFFCURVE",
"479 383 OFFCURVE",
"318 386 CURVE",
"327 373 LINE",
"459 383 OFFCURVE",
"560 497 OFFCURVE",
"560 656 CURVE",
"520 660 LINE",
"520 524 OFFCURVE",
"444 401 OFFCURVE",
"272 401 CURVE SMOOTH",
"91 401 LINE",
"91 365 LINE",
"280 365 LINE SMOOTH",
"459 365 OFFCURVE",
"509 277 OFFCURVE",
"509 193 CURVE SMOOTH",
"509 93 OFFCURVE",
"439 37 OFFCURVE",
"354 37 CURVE SMOOTH",
"176 37 OFFCURVE",
"98 290 OFFCURVE",
"98 547 CURVE SMOOTH",
"98 765 OFFCURVE",
"170 881 OFFCURVE",
"324 881 CURVE SMOOTH",
"360 881 OFFCURVE",
"424 874 OFFCURVE",
"478 862 CURVE",
"487 899 LINE",
"432 912 OFFCURVE",
"362 920 OFFCURVE",
"323 920 CURVE SMOOTH",
"148 920 OFFCURVE",
"59 794 OFFCURVE",
"59 549 CURVE SMOOTH",
"59 249 OFFCURVE",
"156 -2 OFFCURVE",
"360 -2 CURVE SMOOTH"
);
},
{
closed = 1;
nodes = (
"630 643 LINE",
"630 682 LINE",
"-2 682 LINE",
"-2 643 LINE"
);
}
);
width = 627;
}
);
leftMetricsKey = "ura-gurmukhi";
rightMetricsKey = "ura-gurmukhi";
unicode = 0A13;
},
{
glyphname = "ka-gurmukhi";
layers = (
{
anchors = (
{
name = bindu;
position = "{515, 680}";
},
{
name = bottom;
position = "{539, 0}";
},
{
name = candra;
position = "{515, 690}";
},
{
name = caret_1;
position = "{270, 25}";
},
{
name = nukta;
position = "{97, -6}";
},
{
name = top;
position = "{516, 670}";
}
);
layerId = "784662A0-BFC3-4940-8AA1-9AA8A3FE0938";
paths = (
{
closed = 1;
nodes = (
"559 0 LINE",
"559 33 LINE SMOOTH",
"559 151 OFFCURVE",
"532 251 OFFCURVE",
"489 328 CURVE",
"489 304 LINE",
"519 380 OFFCURVE",
"536 473 OFFCURVE",
"536 580 CURVE SMOOTH",
"536 654 LINE",
"496 654 LINE",
"496 582 LINE SMOOTH",
"496 495 OFFCURVE",
"486 421 OFFCURVE",
"466 359 CURVE",
"408 445 OFFCURVE",
"325 489 OFFCURVE",
"236 489 CURVE SMOOTH",
"121 489 OFFCURVE",
"39 415 OFFCURVE",
"39 300 CURVE SMOOTH",
"39 180 OFFCURVE",
"134 106 OFFCURVE",
"243 106 CURVE SMOOTH",
"343 106 OFFCURVE",
"429 167 OFFCURVE",
"479 287 CURVE",
"467 285 LINE",
"499 219 OFFCURVE",
"519 135 OFFCURVE",
"519 34 CURVE SMOOTH",
"519 0 LINE"
);
},
{
closed = 1;
nodes = (
"151 145 OFFCURVE",
"80 205 OFFCURVE",
"80 297 CURVE SMOOTH",
"80 391 OFFCURVE",
"146 450 OFFCURVE",
"240 450 CURVE SMOOTH",
"325 450 OFFCURVE",
"405 402 OFFCURVE",
"458 309 CURVE",
"457 326 LINE",
"414 207 OFFCURVE",
"335 145 OFFCURVE",
"243 145 CURVE SMOOTH"
);
},
{
closed = 1;
nodes = (
"641 643 LINE",
"641 682 LINE",
"0 682 LINE",
"0 643 LINE"
);
}
);
width = 641;
}
);
leftMetricsKey = "ra-gurmukhi";
rightMetricsKey = "STEM-GURM";
unicode = 0A15;
},
{
glyphname = "kha-gurmukhi";
layers = (
{
anchors = (
{
name = bindu;
position = "{504, 680}";
},
{
name = bottom;
position = "{507, 0}";
},
{
name = candra;
position = "{504, 690}";
},
{
name = caret_1;
position = "{312, 30}";
},
{
name = nukta;
position = "{121, 68}";
},
{
name = top;
position = "{507, 670}";
}
);
components = (
{
name = "pa-gurmukhi";
}
);
layerId = "784662A0-BFC3-4940-8AA1-9AA8A3FE0938";
paths = (
{
closed = 1;
nodes = (
"506 415 LINE",
"506 455 LINE",
"160 455 LINE",
"160 415 LINE"
);
}
);
width = 633;
}
);
leftMetricsKey = "pa-gurmukhi";
rightMetricsKey = "pa-gurmukhi";
unicode = 0A16;
},
{
glyphname = "ga-gurmukhi";
layers = (
{
anchors = (
{
name = bindu;
position = "{624, 680}";
},
{
name = bottom;
position = "{627, 0}";
},
{
name = candra;
position = "{624, 690}";
},
{
name = caret_1;
position = "{424, 30}";
},
{
name = nukta;
position = "{72, 0}";
},
{
name = top;
position = "{627, 670}";
}
);
layerId = "784662A0-BFC3-4940-8AA1-9AA8A3FE0938";
paths = (
{
closed = 1;
nodes = (
"404 -2 OFFCURVE",
"448 27 OFFCURVE",
"448 112 CURVE SMOOTH",
"449 660 LINE",
"409 660 LINE",
"408 430 LINE",
"427 442 LINE",
"193 442 LINE SMOOTH",
"104 442 OFFCURVE",
"48 383 OFFCURVE",
"48 283 CURVE SMOOTH",
"48 113 OFFCURVE",
"219 -2 OFFCURVE",
"343 -2 CURVE SMOOTH"
);
},
{
closed = 1;
nodes = (
"221 37 OFFCURVE",
"89 148 OFFCURVE",
"89 277 CURVE SMOOTH",
"89 347 OFFCURVE",
"126 402 OFFCURVE",
"202 402 CURVE SMOOTH",
"427 402 LINE",
"408 411 LINE",
"407 121 LINE SMOOTH",
"407 70 OFFCURVE",
"398 37 OFFCURVE",
"337 37 CURVE SMOOTH"
);
},
{
closed = 1;
nodes = (
"635 643 LINE",
"635 682 LINE",
"0 682 LINE",
"0 643 LINE"
);
},
{
closed = 1;
nodes = (
"647 0 LINE",
"647 661 LINE",
"635 643 LINE",
"753 643 LINE",
"753 682 LINE",
"606 682 LINE",
"606 0 LINE"
);
}
);
width = 753;
}
);
leftMetricsKey = "ra-gurmukhi";
rightMetricsKey = "STEM-GURM";
unicode = 0A17;
},
{
glyphname = "gha-gurmukhi";
layers = (
{
anchors = (
{
name = bindu;
position = "{674, 680}";
},
{
name = bottom;
position = "{678, 0}";
},
{
name = candra;
position = "{674, 690}";
},
{
name = caret_1;
position = "{401, 30}";
},
{
name = nukta;
position = "{127, 0}";
},
{
name = top;
position = "{678, 670}";
}
);
layerId = "784662A0-BFC3-4940-8AA1-9AA8A3FE0938";
paths = (
{
closed = 1;
nodes = (
"309 149 OFFCURVE",
"400 175 OFFCURVE",
"408 286 CURVE",
"390 278 LINE",
"413 199 OFFCURVE",
"464 149 OFFCURVE",
"549 149 CURVE SMOOTH",
"592 149 OFFCURVE",
"642 161 OFFCURVE",
"674 200 CURVE",
"670 260 LINE",
"642 201 OFFCURVE",
"586 188 OFFCURVE",
"549 188 CURVE SMOOTH",
"460 188 OFFCURVE",
"418 256 OFFCURVE",
"412 336 CURVE",
"411 269 LINE",
"427 352 OFFCURVE",
"436 425 OFFCURVE",
"436 477 CURVE SMOOTH",
"436 535 OFFCURVE",
"431 596 OFFCURVE",
"420 655 CURVE",
"382 655 LINE",
"382 303 LINE",
"370 206 OFFCURVE",
"292 188 OFFCURVE",
"242 188 CURVE SMOOTH",
"155 188 OFFCURVE",
"102 241 OFFCURVE",
"92 315 CURVE",
"83 294 LINE",
"152 334 OFFCURVE",
"192 415 OFFCURVE",
"192 496 CURVE SMOOTH",
"192 590 OFFCURVE",
"137 682 OFFCURVE",
"22 682 CURVE SMOOTH",
"0 682 LINE",
"0 643 LINE",
"26 643 LINE SMOOTH",
"113 643 OFFCURVE",
"152 577 OFFCURVE",
"152 502 CURVE SMOOTH",
"152 432 OFFCURVE",
"118 359 OFFCURVE",
"54 319 CURVE",
"69 213 OFFCURVE",
"141 149 OFFCURVE",
"242 149 CURVE SMOOTH"
);
},
{
closed = 1;
nodes = (
"698 0 LINE",
"698 661 LINE",
"686 643 LINE",
"804 643 LINE",
"804 682 LINE",
"657 682 LINE",
"657 0 LINE"
);
}
);
width = 804;
}
);
leftMetricsKey = "pa-gurmukhi";
rightMetricsKey = "STEM-GURM";
unicode = 0A18;
},
{
glyphname = "nga-gurmukhi";
layers = (
{
anchors = (
{
name = bindu;
position = "{449, 680}";
},
{
name = bottom;
position = "{289, 0}";
},
{
name = candra;
position = "{449, 690}";
},
{
name = caret_1;
position = "{308, 30}";
},
{
name = nukta;
position = "{74, -15}";
},
{
name = top;
position = "{449, 670}";
}
);
layerId = "784662A0-BFC3-4940-8AA1-9AA8A3FE0938";
paths = (
{
closed = 1;
nodes = (
"517 142 LINE",
"456 207 OFFCURVE",
"364 246 OFFCURVE",
"261 246 CURVE SMOOTH",
"150 246 OFFCURVE",
"85 200 OFFCURVE",
"85 129 CURVE SMOOTH",
"85 53 OFFCURVE",
"159 -2 OFFCURVE",
"289 -2 CURVE SMOOTH",
"463 -2 OFFCURVE",
"565 97 OFFCURVE",
"565 231 CURVE SMOOTH",
"565 340 OFFCURVE",
"497 450 OFFCURVE",
"326 450 CURVE SMOOTH",
"150 450 LINE",
"150 655 LINE",
"110 655 LINE",
"110 411 LINE",
"318 411 LINE SMOOTH",
"475 411 OFFCURVE",
"525 320 OFFCURVE",
"525 234 CURVE SMOOTH",
"525 129 OFFCURVE",
"449 34 OFFCURVE",
"287 34 CURVE SMOOTH",
"184 34 OFFCURVE",
"123 72 OFFCURVE",
"123 128 CURVE SMOOTH",
"123 180 OFFCURVE",
"176 212 OFFCURVE",
"263 212 CURVE SMOOTH",
"355 212 OFFCURVE",
"438 177 OFFCURVE",
"493 117 CURVE"
);
},
{
closed = 1;
nodes = (
"641 643 LINE",
"641 682 LINE",
"0 682 LINE",
"0 643 LINE"
);
}
);
width = 641;
}
);
rightMetricsKey = "ttha-gurmukhi";
unicode = 0A19;
},
{
glyphname = "ca-gurmukhi";
layers = (
{
anchors = (
{
name = bindu;
position = "{535, 680}";
},
{
name = bottom;
position = "{452, 2}";
},
{
name = candra;
position = "{535, 690}";
},
{
name = caret_1;
position = "{393, 30}";
},
{
name = nukta;
position = "{153, 0}";
},
{
name = top;
position = "{539, 670}";
}
);
layerId = "784662A0-BFC3-4940-8AA1-9AA8A3FE0938";
paths = (
{
closed = 1;
nodes = (
"513 -2 OFFCURVE",
"559 27 OFFCURVE",
"559 114 CURVE",
"559 656 LINE",
"518 656 LINE",
"518 123 LINE",
"518 70 OFFCURVE",
"508 37 OFFCURVE",
"446 37 CURVE SMOOTH",
"313 37 OFFCURVE",
"165 184 OFFCURVE",
"165 355 CURVE",
"124 360 LINE",
"124 144 OFFCURVE",
"313 -2 OFFCURVE",
"451 -2 CURVE SMOOTH"
);
},
{
closed = 1;
nodes = (
"173 377 LINE",
"142 408 OFFCURVE",
"113 411 OFFCURVE",
"32 413 CURVE",
"24 376 LINE",
"55 359 OFFCURVE",
"95 346 OFFCURVE",
"140 349 CURVE"
);
},
{
closed = 1;
nodes = (
"529 348 LINE",
"529 387 LINE",
"130 387 LINE",
"130 348 LINE"
);
},
{
closed = 1;
nodes = (
"666 643 LINE",
"666 682 LINE",
"0 682 LINE",
"0 643 LINE"
);
}
);
width = 666;
}
);
leftMetricsKey = "da-gurmukhi";
rightMetricsKey = "STEM-GURM";
unicode = 0A1A;
},
{
glyphname = "cha-gurmukhi";
layers = (
{
anchors = (
{
name = bindu;
position = "{497, 680}";
},
{
name = bottom;
position = "{311, 2}";
},
{
name = candra;
position = "{497, 690}";
},
{
name = caret_1;
position = "{310, 30}";
},
{
name = nukta;
position = "{74, -15}";
},
{
name = top;
position = "{501, 670}";
}
);
layerId = "784662A0-BFC3-4940-8AA1-9AA8A3FE0938";
paths = (
{
closed = 1;
nodes = (
"499 -2 OFFCURVE",
"577 55 OFFCURVE",
"577 137 CURVE SMOOTH",
"577 224 OFFCURVE",
"484 278 OFFCURVE",
"302 278 CURVE SMOOTH",
"281 278 OFFCURVE",
"261 277 OFFCURVE",
"244 277 CURVE SMOOTH",
"182 275 OFFCURVE",
"118 304 OFFCURVE",
"118 366 CURVE SMOOTH",
"118 405 OFFCURVE",
"145 452 OFFCURVE",
"244 452 CURVE SMOOTH",
"521 452 LINE",
"521 661 LINE",
"480 661 LINE",
"480 490 LINE",
"228 490 LINE SMOOTH",
"123 490 OFFCURVE",
"77 431 OFFCURVE",
"77 374 CURVE SMOOTH",
"77 321 OFFCURVE",
"110 282 OFFCURVE",
"167 264 CURVE",
"83 243 OFFCURVE",
"48 201 OFFCURVE",
"48 142 CURVE SMOOTH",
"48 54 OFFCURVE",
"128 -2 OFFCURVE",
"313 -2 CURVE SMOOTH"
);
},
{
closed = 1;
nodes = (
"149 35 OFFCURVE",
"88 76 OFFCURVE",
"88 141 CURVE SMOOTH",
"88 203 OFFCURVE",
"147 241 OFFCURVE",
"301 241 CURVE SMOOTH",
"462 241 OFFCURVE",
"538 201 OFFCURVE",
"538 136 CURVE SMOOTH",
"538 78 OFFCURVE",
"476 35 OFFCURVE",
"312 35 CURVE SMOOTH"
);
},
{
closed = 1;
nodes = (
"330 24 LINE",
"330 251 LINE",
"289 251 LINE",
"289 24 LINE"
);
},
{
closed = 1;
nodes = (
"630 643 LINE",
"630 682 LINE",
"0 682 LINE",
"0 643 LINE"
);
}
);
width = 630;
}
);
leftMetricsKey = "ttha-gurmukhi";
rightMetricsKey = "ttha-gurmukhi";
unicode = 0A1B;
},
{
glyphname = "ja-gurmukhi";
layers = (
{
anchors = (
{
name = bindu;
position = "{505, 680}";
},
{
name = bottom;
position = "{508, 0}";
},
{
name = candra;
position = "{505, 690}";
},
{
name = caret_1;
position = "{322, 30}";
},
{
name = nukta;
position = "{322, -2}";
},
{
name = top;
position = "{508, 670}";
}
);
layerId = "784662A0-BFC3-4940-8AA1-9AA8A3FE0938";
paths = (
{
closed = 1;
nodes = (
"164 62 OFFCURVE",
"178 137 OFFCURVE",
"179 206 CURVE SMOOTH",
"179 246 OFFCURVE",
"175 283 OFFCURVE",
"164 319 CURVE",
"504 319 LINE",
"504 358 LINE",
"147 358 LINE",
"124 382 OFFCURVE",
"100 388 OFFCURVE",
"39 403 CURVE",
"24 367 LINE",
"46 348 OFFCURVE",
"81 328 OFFCURVE",
"123 321 CURVE",
"135 286 OFFCURVE",
"139 250 OFFCURVE",
"139 209 CURVE SMOOTH",
"138 141 OFFCURVE",
"124 69 OFFCURVE",
"107 9 CURVE",
"106 4 LINE",
"146 0 LINE"
);
},
{
closed = 1;
nodes = (
"577 643 LINE",
"577 682 LINE",
"0 682 LINE",
"0 643 LINE"
);
},
{
closed = 1;
nodes = (
"528 0 LINE",
"528 661 LINE",
"516 643 LINE",
"634 643 LINE",
"634 682 LINE",
"487 682 LINE",
"487 0 LINE"
);
}
);
width = 634;
}
);
leftMetricsKey = "da-gurmukhi";
rightMetricsKey = "STEM-GURM";
unicode = 0A1C;
},
{
glyphname = "jha-gurmukhi";
layers = (
{
anchors = (
{
name = bindu;
position = "{537, 680}";
},
{
name = bottom;
position = "{188, -44}";
},
{
name = candra;
position = "{537, 690}";
},
{
name = caret_1;
position = "{313, -3}";
},
{
name = nukta;
position = "{104, -6}";
},
{
name = top;
position = "{541, 670}";
}
);
layerId = "784662A0-BFC3-4940-8AA1-9AA8A3FE0938";
paths = (
{
closed = 1;
nodes = (
"208 -44 LINE",
"211 93 LINE",
"196 77 LINE",
"228 72 OFFCURVE",
"259 70 OFFCURVE",
"287 70 CURVE SMOOTH",
"468 70 OFFCURVE",
"560 141 OFFCURVE",
"560 246 CURVE SMOOTH",
"560 318 OFFCURVE",
"509 401 OFFCURVE",
"355 421 CURVE",
"375 404 LINE",
"477 425 OFFCURVE",
"560 502 OFFCURVE",
"560 656 CURVE",
"520 657 LINE",
"521 490 OFFCURVE",
"416 430 OFFCURVE",
"314 430 CURVE SMOOTH",
"212 430 OFFCURVE",
"111 488 OFFCURVE",
"112 657 CURVE",
"71 656 LINE",
"72 532 OFFCURVE",
"128 462 OFFCURVE",
"201 430 CURVE",
"89 430 LINE",
"90 395 LINE",
"293 395 LINE SMOOTH",
"473 395 OFFCURVE",
"520 315 OFFCURVE",
"520 252 CURVE SMOOTH",
"520 170 OFFCURVE",
"451 107 OFFCURVE",
"286 107 CURVE SMOOTH",
"244 107 OFFCURVE",
"203 113 OFFCURVE",
"167 123 CURVE",
"205 111 LINE",
"178 133 OFFCURVE",
"152 145 OFFCURVE",
"127 153 CURVE SMOOTH",
"109 159 OFFCURVE",
"89 163 OFFCURVE",
"63 165 CURVE",
"51 130 LINE",
"84 107 OFFCURVE",
"126 92 OFFCURVE",
"170 82 CURVE",
"168 -38 LINE",
"168 -44 LINE"
);
},
{
closed = 1;
nodes = (
"620 643 LINE",
"620 682 LINE",
"0 682 LINE",
"0 643 LINE"
);
}
);
width = 620;
}
);
leftMetricsKey = "ta-gurmukhi";
rightMetricsKey = "ta-gurmukhi";
unicode = 0A1D;
},
{
glyphname = "nya-gurmukhi";
layers = (
{
anchors = (
{
name = bindu;
position = "{488, 680}";
},
{
name = bottom;
position = "{387, 2}";
},
{
name = candra;
position = "{488, 690}";
},
{
name = caret_1;
position = "{351, 30}";
},
{
name = nukta;
position = "{102, -7}";
},
{
name = top;
position = "{491, 670}";
}
);
components = (
{
name = "va-gurmukhi";
}
);
layerId = "784662A0-BFC3-4940-8AA1-9AA8A3FE0938";
paths = (
{
closed = 1;
nodes = (
"379 465 LINE",
"241 465 OFFCURVE",
"109 516 OFFCURVE",
"110 658 CURVE",
"69 659 LINE",
"69 503 OFFCURVE",
"220 442 OFFCURVE",
"377 442 CURVE"
);
}
);
width = 618;
}
);
leftMetricsKey = "va-gurmukhi";
rightMetricsKey = "va-gurmukhi";
unicode = 0A1E;
},
{
glyphname = "tta-gurmukhi";
layers = (
{
anchors = (
{
name = bindu;
position = "{454, 680}";
},
{
name = bottom;
position = "{362, 2}";
},
{
name = candra;
position = "{454, 690}";
},
{
name = caret_1;
position = "{351, 30}";
},
{
name = nukta;
position = "{100, -6}";
},
{
name = top;
position = "{451, 670}";
}
);
layerId = "784662A0-BFC3-4940-8AA1-9AA8A3FE0938";
paths = (
{
closed = 1;
nodes = (
"425 -2 OFFCURVE",
"488 12 OFFCURVE",
"527 31 CURVE",
"516 68 LINE",
"474 48 OFFCURVE",
"416 37 OFFCURVE",
"363 37 CURVE SMOOTH",
"168 37 OFFCURVE",
"88 198 OFFCURVE",
"85 239 CURVE",
"83 213 LINE",
"98 254 OFFCURVE",
"162 414 OFFCURVE",
"460 415 CURVE",
"471 415 LINE",
"471 664 LINE",
"430 664 LINE",
"430 434 LINE",
"445 454 LINE",
"161 454 OFFCURVE",
"71 301 OFFCURVE",
"48 235 CURVE",
"63 152 OFFCURVE",
"162 -2 OFFCURVE",
"363 -2 CURVE SMOOTH"
);
},
{
closed = 1;
nodes = (
"577 643 LINE",
"577 682 LINE",
"0 682 LINE",
"0 643 LINE"
);
}
);
width = 577;
}
);
leftMetricsKey = "ra-gurmukhi";
rightMetricsKey = "STEM-GURM";
unicode = 0A1F;
},
{
glyphname = "ttha-gurmukhi";
layers = (
{
anchors = (
{
name = bindu;
position = "{483, 680}";
},
{
name = bottom;
position = "{320, 2}";
},
{
name = candra;
position = "{320, 690}";
},
{
name = caret_1;
position = "{320, 30}";
},
{
name = nukta;
position = "{76, -6}";
},
{
name = top;
position = "{483, 670}";
}
);
layerId = "784662A0-BFC3-4940-8AA1-9AA8A3FE0938";
paths = (
{
closed = 1;
nodes = (
"484 -2 OFFCURVE",
"592 92 OFFCURVE",
"592 227 CURVE SMOOTH",
"592 362 OFFCURVE",
"483 456 OFFCURVE",
"319 455 CURVE SMOOTH",
"156 455 OFFCURVE",
"48 362 OFFCURVE",
"48 227 CURVE SMOOTH",
"48 92 OFFCURVE",
"158 -2 OFFCURVE",
"320 -2 CURVE SMOOTH"
);
},
{
closed = 1;
nodes = (
"178 37 OFFCURVE",
"89 117 OFFCURVE",
"89 227 CURVE SMOOTH",
"89 336 OFFCURVE",
"179 416 OFFCURVE",
"319 416 CURVE SMOOTH",
"460 416 OFFCURVE",
"551 336 OFFCURVE",
"551 226 CURVE SMOOTH",
"551 117 OFFCURVE",
"461 37 OFFCURVE",
"320 37 CURVE SMOOTH"
);
},
{
closed = 1;
nodes = (
"340 433 LINE",
"340 658 LINE",
"299 658 LINE",
"299 433 LINE"
);
},
{
closed = 1;
nodes = (
"641 643 LINE",
"641 682 LINE",
"0 682 LINE",
"0 643 LINE"
);
}
);
width = 641;
}
);
unicode = 0A20;
},
{
glyphname = "dda-gurmukhi";
layers = (
{
anchors = (
{
name = bindu;
position = "{493, 680}";
},
{
name = bottom;
position = "{258, 2}";
},
{
name = candra;
position = "{493, 690}";
},
{
name = caret_1;
position = "{267, 30}";
},
{
name = nukta;
position = "{55, -12}";
},
{
name = top;
position = "{491, 670}";
}
);
layerId = "784662A0-BFC3-4940-8AA1-9AA8A3FE0938";
paths = (
{
closed = 1;
nodes = (
"419 -2 OFFCURVE",
"521 90 OFFCURVE",
"521 207 CURVE SMOOTH",
"521 297 OFFCURVE",
"460 397 OFFCURVE",
"295 400 CURVE",
"310 390 LINE",
"434 407 OFFCURVE",
"511 505 OFFCURVE",
"511 662 CURVE",
"471 662 LINE",
"471 530 OFFCURVE",
"411 425 OFFCURVE",
"258 416 CURVE",
"316 416 LINE",
"286 425 OFFCURVE",
"236 428 OFFCURVE",
"188 428 CURVE SMOOTH",
"165 428 OFFCURVE",
"133 427 OFFCURVE",
"102 422 CURVE",
"104 383 LINE",
"135 378 OFFCURVE",
"166 375 OFFCURVE",
"203 375 CURVE SMOOTH",
"235 375 OFFCURVE",
"285 377 OFFCURVE",
"311 385 CURVE",
"237 383 LINE",
"430 385 OFFCURVE",
"481 290 OFFCURVE",
"481 212 CURVE SMOOTH",
"481 117 OFFCURVE",
"403 34 OFFCURVE",
"253 34 CURVE SMOOTH",
"149 34 OFFCURVE",
"87 74 OFFCURVE",
"87 129 CURVE SMOOTH",
"87 182 OFFCURVE",
"145 211 OFFCURVE",
"226 211 CURVE SMOOTH",
"315 211 OFFCURVE",
"391 175 OFFCURVE",
"457 115 CURVE",
"479 142 LINE",
"411 205 OFFCURVE",
"328 245 OFFCURVE",
"222 245 CURVE SMOOTH",
"123 245 OFFCURVE",
"49 207 OFFCURVE",
"49 131 CURVE SMOOTH",
"49 51 OFFCURVE",
"131 -2 OFFCURVE",
"255 -2 CURVE SMOOTH"
);
},
{
closed = 1;
nodes = (
"579 643 LINE",
"579 682 LINE",
"0 682 LINE",
"0 643 LINE"
);
}
);
width = 579;
}
);
leftMetricsKey = "ta-gurmukhi";
rightMetricsKey = "ta-gurmukhi";
unicode = 0A21;
},
{
glyphname = "ddha-gurmukhi";
layers = (
{
anchors = (
{
name = bindu;
position = "{535, 680}";
},
{
name = bottom;
position = "{410, 2}";
},
{
name = candra;
position = "{535, 690}";
},
{
name = caret_1;
position = "{382, 30}";
},
{
name = nukta;
position = "{128, 0}";
},
{
name = top;
position = "{533, 670}";
}
);
layerId = "784662A0-BFC3-4940-8AA1-9AA8A3FE0938";
paths = (
{
closed = 1;
nodes = (
"537 -2 OFFCURVE",
"608 54 OFFCURVE",
"608 128 CURVE SMOOTH",
"608 200 OFFCURVE",
"539 247 OFFCURVE",
"427 247 CURVE SMOOTH",
"318 247 OFFCURVE",
"237 202 OFFCURVE",
"180 140 CURVE",
"202 113 LINE",
"258 174 OFFCURVE",
"329 213 OFFCURVE",
"426 213 CURVE SMOOTH",
"516 213 OFFCURVE",
"570 180 OFFCURVE",
"570 128 CURVE SMOOTH",
"570 72 OFFCURVE",
"507 34 OFFCURVE",
"407 34 CURVE SMOOTH",
"240 34 OFFCURVE",
"162 140 OFFCURVE",
"162 270 CURVE SMOOTH",
"162 404 LINE",
"153 390 LINE",
"553 390 LINE",
"553 665 LINE",
"512 665 LINE",
"512 427 LINE",
"115 427 LINE",
"183 411 LINE",
"138 444 OFFCURVE",
"123 448 OFFCURVE",
"32 454 CURVE",
"24 416 LINE",
"51 403 OFFCURVE",
"83 390 OFFCURVE",
"124 389 CURVE",
"124 269 LINE SMOOTH",
"124 113 OFFCURVE",
"233 -2 OFFCURVE",
"412 -2 CURVE SMOOTH"
);
},
{
closed = 1;
nodes = (
"662 643 LINE",
"662 682 LINE",
"0 682 LINE",
"0 643 LINE"
);
}
);
width = 662;
}
);
leftMetricsKey = "da-gurmukhi";
rightMetricsKey = "ttha-gurmukhi";
unicode = 0A22;
},
{
glyphname = "nna-gurmukhi";
layers = (
{
anchors = (
{
name = bindu;
position = "{416, 680}";
},
{
name = bottom;
position = "{362, 2}";
},
{
name = candra;
position = "{416, 690}";
},
{
name = caret_1;
position = "{340, 30}";
},
{
name = nukta;
position = "{100, -7}";
},
{
name = top;
position = "{416, 670}";
}
);
layerId = "784662A0-BFC3-4940-8AA1-9AA8A3FE0938";
paths = (
{
closed = 1;
nodes = (
"427 -2 OFFCURVE",
"489 12 OFFCURVE",
"528 31 CURVE",
"516 69 LINE",
"474 49 OFFCURVE",
"416 37 OFFCURVE",
"359 37 CURVE SMOOTH",
"168 37 OFFCURVE",
"84 170 OFFCURVE",
"84 204 CURVE",
"82 178 LINE",
"93 205 OFFCURVE",
"159 328 OFFCURVE",
"380 336 CURVE",
"380 461 LINE",
"339 467 LINE",
"339 346 LINE",
"361 372 LINE",
"152 368 OFFCURVE",
"67 249 OFFCURVE",
"48 199 CURVE",
"62 129 OFFCURVE",
"162 -2 OFFCURVE",
"361 -2 CURVE SMOOTH"
);
},
{
closed = 1;
nodes = (
"529 449 LINE",
"347 456 OFFCURVE",
"219 543 OFFCURVE",
"220 661 CURVE",
"181 664 LINE",
"181 525 OFFCURVE",
"336 416 OFFCURVE",
"528 413 CURVE"
);
},
{
closed = 1;
nodes = (
"586 643 LINE",
"586 682 LINE",
"0 682 LINE",
"0 643 LINE"
);
}
);
width = 586;
}
);
leftMetricsKey = "ra-gurmukhi";
unicode = 0A23;
},
{
glyphname = "ta-gurmukhi";
layers = (
{
anchors = (
{
name = bindu;
position = "{492, 680}";
},
{
name = bottom;
position = "{254, 2}";
},
{
name = candra;
position = "{492, 690}";
},
{
name = caret_1;
position = "{260, 30}";
},
{
name = nukta;
position = "{40, -44}";
},
{
name = top;
position = "{490, 670}";
}
);
layerId = "784662A0-BFC3-4940-8AA1-9AA8A3FE0938";
paths = (
{
closed = 1;
nodes = (
"418 -2 OFFCURVE",
"520 90 OFFCURVE",
"520 203 CURVE SMOOTH",
"520 290 OFFCURVE",
"454 385 OFFCURVE",
"286 385 CURVE",
"303 377 LINE",
"431 388 OFFCURVE",
"510 489 OFFCURVE",
"510 654 CURVE SMOOTH",
"510 663 LINE",
"469 663 LINE",
"469 656 LINE SMOOTH",
"469 518 OFFCURVE",
"415 409 OFFCURVE",
"250 399 CURVE",
"309 399 LINE",
"280 407 OFFCURVE",
"237 410 OFFCURVE",
"191 410 CURVE SMOOTH",
"168 410 OFFCURVE",
"134 409 OFFCURVE",
"102 404 CURVE",
"103 365 LINE",
"135 360 OFFCURVE",
"167 357 OFFCURVE",
"201 357 CURVE SMOOTH",
"236 357 OFFCURVE",
"281 361 OFFCURVE",
"309 365 CURVE",
"232 364 LINE",
"427 368 OFFCURVE",
"479 282 OFFCURVE",
"479 207 CURVE SMOOTH",
"479 110 OFFCURVE",
"391 37 OFFCURVE",
"249 37 CURVE SMOOTH",
"185 37 OFFCURVE",
"106 52 OFFCURVE",
"60 73 CURVE",
"49 35 LINE",
"103 13 OFFCURVE",
"181 -2 OFFCURVE",
"251 -2 CURVE SMOOTH"
);
},
{
closed = 1;
nodes = (
"579 643 LINE",
"579 682 LINE",
"0 682 LINE",
"0 643 LINE"
);
}
);
width = 579;
}
);
unicode = 0A24;
},
{
glyphname = "tha-gurmukhi";
layers = (
{
anchors = (
{
name = bindu;
position = "{504, 680}";
},
{
name = bottom;
position = "{507, 0}";
},
{
name = candra;
position = "{504, 690}";
},
{
name = caret_1;
position = "{310, 30}";
},
{
name = nukta;
position = "{127, 0}";
},
{
name = top;
position = "{507, 670}";
}
);
components = (
{
name = "dha-gurmukhi";
}
);
layerId = "784662A0-BFC3-4940-8AA1-9AA8A3FE0938";
paths = (
{
closed = 1;
nodes = (
"508 415 LINE",
"508 446 LINE",
"159 446 LINE",
"159 415 LINE"
);
}
);
width = 633;
}
);
leftMetricsKey = "pa-gurmukhi";
rightMetricsKey = "pa-gurmukhi";
unicode = 0A25;
},
{
glyphname = "da-gurmukhi";
layers = (
{
anchors = (
{
name = bindu;
position = "{533, 680}";
},
{
name = bottom;
position = "{406, 2}";
},
{
name = candra;
position = "{533, 690}";
},
{
name = caret_1;
position = "{394, 30}";
},
{
name = nukta;
position = "{121, 0}";
},
{
name = top;
position = "{531, 670}";
}
);
layerId = "784662A0-BFC3-4940-8AA1-9AA8A3FE0938";
paths = (
{
closed = 1;
nodes = (
"479 -2 OFFCURVE",
"535 14 OFFCURVE",
"568 31 CURVE",
"556 68 LINE",
"510 49 OFFCURVE",
"458 37 OFFCURVE",
"404 37 CURVE SMOOTH",
"258 37 OFFCURVE",
"164 119 OFFCURVE",
"164 268 CURVE SMOOTH",
"164 399 LINE",
"151 385 LINE",
"551 385 LINE",
"551 659 LINE",
"510 659 LINE",
"510 424 LINE",
"117 424 LINE",
"184 407 LINE",
"139 441 OFFCURVE",
"126 446 OFFCURVE",
"32 451 CURVE",
"24 414 LINE",
"50 402 OFFCURVE",
"82 388 OFFCURVE",
"125 387 CURVE",
"125 270 LINE SMOOTH",
"125 106 OFFCURVE",
"232 -2 OFFCURVE",
"408 -2 CURVE SMOOTH"
);
},
{
closed = 1;
nodes = (
"657 643 LINE",
"657 682 LINE",
"0 682 LINE",
"0 643 LINE"
);
}
);
width = 657;
}
);
rightMetricsKey = "STEM-GURM";
unicode = 0A26;
},
{
glyphname = "dha-gurmukhi";
layers = (
{
anchors = (
{
name = bindu;
position = "{504, 680}";
},
{
name = bottom;
position = "{507, 0}";
},
{
name = candra;
position = "{504, 690}";
},
{
name = caret_1;
position = "{310, 30}";
},
{
name = nukta;
position = "{127, 0}";
},
{
name = top;
position = "{507, 670}";
}
);
components = (
{
name = "pa-gurmukhi";
}
);
layerId = "784662A0-BFC3-4940-8AA1-9AA8A3FE0938";
paths = (
{
closed = 1;
nodes = (
"581 643 LINE",
"581 682 LINE",
"1 682 LINE",
"1 643 LINE"
);
}
);
width = 633;
}
);
leftMetricsKey = "pa-gurmukhi";
rightMetricsKey = "pa-gurmukhi";
unicode = 0A27;
},
{
glyphname = "na-gurmukhi";
layers = (
{
anchors = (
{
name = bindu;
position = "{483, 680}";
},
{
name = bottom;
position = "{410, 20}";
},
{
name = candra;
position = "{320, 690}";
},
{
name = caret_1;
position = "{320, 30}";
},
{
name = nukta;
position = "{67, -6}";
},
{
name = top;
position = "{483, 670}";
}
);
layerId = "784662A0-BFC3-4940-8AA1-9AA8A3FE0938";
paths = (
{
closed = 1;
nodes = (
"249 40 LINE",
"151 56 OFFCURVE",
"89 127 OFFCURVE",
"89 226 CURVE SMOOTH",
"89 344 OFFCURVE",
"179 416 OFFCURVE",
"320 416 CURVE SMOOTH",
"461 416 OFFCURVE",
"551 343 OFFCURVE",
"551 226 CURVE SMOOTH",
"551 132 OFFCURVE",
"494 58 OFFCURVE",
"396 40 CURVE",
"400 2 LINE",
"519 20 OFFCURVE",
"592 109 OFFCURVE",
"592 225 CURVE SMOOTH",
"592 366 OFFCURVE",
"482 455 OFFCURVE",
"320 455 CURVE SMOOTH",
"157 455 OFFCURVE",
"48 367 OFFCURVE",
"48 224 CURVE SMOOTH",
"48 104 OFFCURVE",
"127 19 OFFCURVE",
"244 2 CURVE"
);
},
{
closed = 1;
nodes = (
"341 430 LINE",
"341 668 LINE",
"300 668 LINE",
"300 430 LINE"
);
},
{
closed = 1;
nodes = (
"641 643 LINE",
"641 682 LINE",
"0 682 LINE",
"0 643 LINE"
);
}
);
width = 641;
}
);
leftMetricsKey = "ttha-gurmukhi";
rightMetricsKey = "ttha-gurmukhi";
unicode = 0A28;
},
{
glyphname = "pa-gurmukhi";
layers = (
{
anchors = (
{
name = bindu;
position = "{504, 680}";
},
{
name = bottom;
position = "{507, 0}";
},
{
name = candra;
position = "{504, 690}";
},
{
name = caret_1;
position = "{310, 30}";
},
{
name = nukta;
position = "{127, 0}";
},
{
name = top;
position = "{507, 670}";
}
);
layerId = "784662A0-BFC3-4940-8AA1-9AA8A3FE0938";
paths = (
{
closed = 1;
nodes = (
"370 149 OFFCURVE",
"449 169 OFFCURVE",
"502 206 CURVE",
"498 260 LINE",
"448 210 OFFCURVE",
"361 188 OFFCURVE",
"286 188 CURVE SMOOTH",
"165 188 OFFCURVE",
"107 246 OFFCURVE",
"92 318 CURVE",
"82 293 LINE",
"150 334 OFFCURVE",
"193 413 OFFCURVE",
"193 496 CURVE SMOOTH",
"193 590 OFFCURVE",
"138 682 OFFCURVE",
"23 682 CURVE SMOOTH",
"0 682 LINE",
"0 643 LINE",
"26 643 LINE SMOOTH",
"114 643 OFFCURVE",
"153 577 OFFCURVE",
"153 502 CURVE SMOOTH",
"153 432 OFFCURVE",
"119 359 OFFCURVE",
"55 319 CURVE",
"75 210 OFFCURVE",
"156 149 OFFCURVE",
"288 149 CURVE SMOOTH"
);
},
{
closed = 1;
nodes = (
"527 0 LINE",
"527 661 LINE",
"515 643 LINE",
"633 643 LINE",
"633 682 LINE",
"486 682 LINE",
"486 0 LINE"
);
}
);
width = 633;
}
);
leftMetricsKey = "ma-gurmukhi";
rightMetricsKey = "STEM-GURM";
unicode = 0A2A;
},
{
glyphname = "pha-gurmukhi";
layers = (
{
anchors = (
{
name = bindu;
position = "{456, 680}";
},
{
name = bottom;
position = "{329, 2}";
},
{
name = candra;
position = "{456, 690}";
},
{
name = caret_1;
position = "{315, 30}";
},
{
name = nukta;
position = "{75, -6}";
},
{
name = top;
position = "{454, 670}";
}
);
layerId = "784662A0-BFC3-4940-8AA1-9AA8A3FE0938";
paths = (
{
closed = 1;
nodes = (
"119 117 LINE",
"176 177 OFFCURVE",
"249 213 OFFCURVE",
"345 213 CURVE SMOOTH",
"436 213 OFFCURVE",
"490 180 OFFCURVE",
"490 128 CURVE SMOOTH",
"490 72 OFFCURVE",
"428 34 OFFCURVE",
"326 34 CURVE SMOOTH",
"170 34 OFFCURVE",
"85 123 OFFCURVE",
"85 237 CURVE SMOOTH",
"85 325 OFFCURVE",
"136 416 OFFCURVE",
"297 416 CURVE SMOOTH",
"474 416 LINE",
"474 662 LINE",
"433 662 LINE",
"433 456 LINE",
"285 456 LINE SMOOTH",
"113 456 OFFCURVE",
"48 349 OFFCURVE",
"48 239 CURVE SMOOTH",
"48 102 OFFCURVE",
"151 -2 OFFCURVE",
"328 -2 CURVE SMOOTH",
"458 -2 OFFCURVE",
"528 54 OFFCURVE",
"528 127 CURVE SMOOTH",
"528 200 OFFCURVE",
"460 247 OFFCURVE",
"346 247 CURVE SMOOTH",
"236 247 OFFCURVE",
"154 204 OFFCURVE",
"97 144 CURVE"
);
},
{
closed = 1;
nodes = (
"583 643 LINE",
"583 682 LINE",
"0 682 LINE",
"0 643 LINE"
);
}
);
width = 583;
}
);
leftMetricsKey = "ra-gurmukhi";
rightMetricsKey = "ttha-gurmukhi";
unicode = 0A2B;
},
{
glyphname = "ba-gurmukhi";
layers = (
{
anchors = (
{
name = bindu;
position = "{502, 680}";
},
{
name = bottom;
position = "{506, 0}";
},
{
name = candra;
position = "{502, 690}";
},
{
name = caret_1;
position = "{314, 30}";
},
{
name = nukta;
position = "{103, -8}";
},
{
name = top;
position = "{506, 670}";
}
);
layerId = "784662A0-BFC3-4940-8AA1-9AA8A3FE0938";
paths = (
{
closed = 1;
nodes = (
"363 38 OFFCURVE",
"445 59 OFFCURVE",
"500 106 CURVE",
"498 158 LINE",
"443 99 OFFCURVE",
"361 77 OFFCURVE",
"304 77 CURVE SMOOTH",
"200 77 OFFCURVE",
"93 152 OFFCURVE",
"84 240 CURVE",
"85 204 LINE",
"102 246 OFFCURVE",
"173 362 OFFCURVE",
"401 369 CURVE SMOOTH",
"506 369 LINE",
"506 405 LINE",
"429 405 LINE SMOOTH",
"255 405 OFFCURVE",
"121 513 OFFCURVE",
"124 658 CURVE",
"83 660 LINE",
"83 525 OFFCURVE",
"191 414 OFFCURVE",
"338 386 CURVE",
"356 399 LINE",
"149 387 OFFCURVE",
"67 272 OFFCURVE",
"50 223 CURVE",
"78 112 OFFCURVE",
"197 38 OFFCURVE",
"305 38 CURVE SMOOTH"
);
},
{
closed = 1;
nodes = (
"559 643 LINE",
"559 682 LINE",
"0 682 LINE",
"0 643 LINE"
);
},
{
closed = 1;
nodes = (
"526 0 LINE",
"526 661 LINE",
"514 643 LINE",
"632 643 LINE",
"632 682 LINE",
"485 682 LINE",
"485 0 LINE"
);
}
);
width = 632;
}
);
leftMetricsKey = "ra-gurmukhi";
rightMetricsKey = "STEM-GURM";
unicode = 0A2C;
},
{
glyphname = "bha-gurmukhi";
layers = (
{
anchors = (
{
name = bindu;
position = "{493, 680}";
},
{
name = bottom;
position = "{253, 2}";
},
{
name = candra;
position = "{493, 690}";
},
{
name = caret_1;
position = "{261, 30}";
},
{
name = nukta;
position = "{53, -39}";
},
{
name = top;
position = "{491, 670}";
}
);
layerId = "784662A0-BFC3-4940-8AA1-9AA8A3FE0938";
paths = (
{
closed = 1;
nodes = (
"417 -2 OFFCURVE",
"520 90 OFFCURVE",
"520 204 CURVE SMOOTH",
"520 278 OFFCURVE",
"477 342 OFFCURVE",
"412 388 CURVE",
"415 366 LINE",
"477 428 OFFCURVE",
"511 527 OFFCURVE",
"511 653 CURVE SMOOTH",
"511 662 LINE",
"471 662 LINE",
"471 652 LINE SMOOTH",
"471 531 OFFCURVE",
"441 446 OFFCURVE",
"388 393 CURVE",
"406 395 LINE",
"349 433 OFFCURVE",
"277 455 OFFCURVE",
"209 455 CURVE SMOOTH",
"132 455 OFFCURVE",
"73 426 OFFCURVE",
"73 370 CURVE SMOOTH",
"73 313 OFFCURVE",
"133 282 OFFCURVE",
"218 282 CURVE SMOOTH",
"295 282 OFFCURVE",
"360 308 OFFCURVE",
"408 356 CURVE",
"397 355 LINE",
"447 320 OFFCURVE",
"483 270 OFFCURVE",
"483 209 CURVE SMOOTH",
"483 111 OFFCURVE",
"394 37 OFFCURVE",
"250 37 CURVE SMOOTH",
"185 37 OFFCURVE",
"106 52 OFFCURVE",
"60 73 CURVE",
"49 35 LINE",
"103 13 OFFCURVE",
"181 -2 OFFCURVE",
"251 -2 CURVE SMOOTH"
);
},
{
closed = 1;
nodes = (
"149 319 OFFCURVE",
"109 339 OFFCURVE",
"109 370 CURVE SMOOTH",
"109 401 OFFCURVE",
"148 420 OFFCURVE",
"210 420 CURVE SMOOTH",
"272 420 OFFCURVE",
"338 402 OFFCURVE",
"387 366 CURVE",
"384 383 LINE",
"344 341 OFFCURVE",
"286 319 OFFCURVE",
"219 319 CURVE SMOOTH"
);
},
{
closed = 1;
nodes = (
"578 643 LINE",
"578 682 LINE",
"0 682 LINE",
"0 643 LINE"
);
}
);
width = 578;
}
);
leftMetricsKey = "ta-gurmukhi";
rightMetricsKey = "ta-gurmukhi";
unicode = 0A2D;
},
{
glyphname = "ma-gurmukhi";
layers = (
{
anchors = (
{
name = bindu;
position = "{537, 680}";
},
{
name = bottom;
position = "{541, 0}";
},
{
name = candra;
position = "{537, 690}";
},
{
name = caret_1;
position = "{343, 30}";
},
{
name = nukta;
position = "{110, 3}";
},
{
name = top;
position = "{541, 670}";
}
);
layerId = "784662A0-BFC3-4940-8AA1-9AA8A3FE0938";
paths = (
{
closed = 1;
nodes = (
"142 140 OFFCURVE",
"192 272 OFFCURVE",
"192 443 CURVE SMOOTH",
"192 592 OFFCURVE",
"138 682 OFFCURVE",
"24 682 CURVE SMOOTH",
"0 682 LINE",
"0 643 LINE",
"31 643 LINE SMOOTH",
"124 643 OFFCURVE",
"152 550 OFFCURVE",
"152 454 CURVE SMOOTH",
"152 392 OFFCURVE",
"146 329 OFFCURVE",
"135 285 CURVE",
"149 324 LINE",
"122 284 OFFCURVE",
"90 182 OFFCURVE",
"73 84 CURVE",
"110 75 LINE"
);
},
{
closed = 1;
nodes = (
"535 279 LINE",
"535 318 LINE",
"161 318 LINE",
"161 279 LINE"
);
},
{
closed = 1;
nodes = (
"561 0 LINE",
"561 661 LINE",
"549 643 LINE",
"667 643 LINE",
"667 682 LINE",
"520 682 LINE",
"520 0 LINE"
);
}
);
width = 667;
}
);
rightMetricsKey = "STEM-GURM";
unicode = 0A2E;
},
{
glyphname = "ya-gurmukhi";
layers = (
{
anchors = (
{
name = bindu;
position = "{604, 680}";
},
{
name = bottom;
position = "{608, 0}";
},
{
name = candra;
position = "{604, 690}";
},
{
name = caret_1;
position = "{350, 30}";
},
{
name = nukta;
position = "{104, -2}";
},
{
name = top;
position = "{608, 670}";
}
);
layerId = "784662A0-BFC3-4940-8AA1-9AA8A3FE0938";
paths = (
{
closed = 1;
nodes = (
"313 149 OFFCURVE",
"420 183 OFFCURVE",
"420 315 CURVE",
"420 394 LINE",
"404 377 LINE",
"599 377 LINE",
"599 416 LINE",
"381 416 LINE",
"381 322 LINE",
"381 208 OFFCURVE",
"288 188 OFFCURVE",
"239 188 CURVE SMOOTH",
"149 188 OFFCURVE",
"103 240 OFFCURVE",
"92 313 CURVE",
"83 293 LINE",
"152 335 OFFCURVE",
"192 415 OFFCURVE",
"192 496 CURVE SMOOTH",
"192 590 OFFCURVE",
"137 682 OFFCURVE",
"22 682 CURVE SMOOTH",
"0 682 LINE",
"0 643 LINE",
"26 643 LINE SMOOTH",
"113 643 OFFCURVE",
"152 577 OFFCURVE",
"152 502 CURVE SMOOTH",
"152 432 OFFCURVE",
"118 359 OFFCURVE",
"54 319 CURVE",
"70 210 OFFCURVE",
"136 149 OFFCURVE",
"241 149 CURVE SMOOTH"
);
},
{
closed = 1;
nodes = (
"656 643 LINE",
"656 682 LINE",
"9 682 LINE",
"9 643 LINE"
);
},
{
closed = 1;
nodes = (
"628 0 LINE",
"628 661 LINE",
"616 643 LINE",
"734 643 LINE",
"734 682 LINE",
"587 682 LINE",
"587 0 LINE"
);
}
);
width = 734;
}
);
leftMetricsKey = "pa-gurmukhi";
rightMetricsKey = "STEM-GURM";
unicode = 0A2F;
},
{
glyphname = "ra-gurmukhi";
layers = (
{
anchors = (
{
name = bindu;
position = "{455, 680}";
},
{
name = bottom;
position = "{373, 2}";
},
{
name = candra;
position = "{455, 690}";
},
{
name = caret_1;
position = "{302, 30}";
},
{
name = nukta;
position = "{87, -5}";
},
{
name = top;
position = "{458, 670}";
}
);
layerId = "784662A0-BFC3-4940-8AA1-9AA8A3FE0938";
paths = (
{
closed = 1;
nodes = (
"435 -2 OFFCURVE",
"478 26 OFFCURVE",
"478 112 CURVE SMOOTH",
"478 665 LINE",
"438 665 LINE",
"438 431 LINE",
"457 443 LINE",
"193 443 LINE SMOOTH",
"104 443 OFFCURVE",
"48 383 OFFCURVE",
"48 284 CURVE SMOOTH",
"48 112 OFFCURVE",
"237 -2 OFFCURVE",
"373 -2 CURVE SMOOTH"
);
},
{
closed = 1;
nodes = (
"237 37 OFFCURVE",
"89 147 OFFCURVE",
"89 278 CURVE SMOOTH",
"89 347 OFFCURVE",
"126 404 OFFCURVE",
"202 404 CURVE SMOOTH",
"457 404 LINE",
"438 412 LINE",
"438 121 LINE SMOOTH",
"438 69 OFFCURVE",
"428 37 OFFCURVE",
"367 37 CURVE SMOOTH"
);
},
{
closed = 1;
nodes = (
"585 643 LINE",
"585 682 LINE",
"0 682 LINE",
"0 643 LINE"
);
}
);
width = 585;
}
);
rightMetricsKey = "STEM-GURM";
unicode = 0A30;
},
{
glyphname = "la-gurmukhi";
layers = (
{
anchors = (
{
name = bindu;
position = "{584, 680}";
},
{
name = bottom;
position = "{482, 23}";
},
{
name = candra;
position = "{356, 690}";
},
{
name = caret_1;
position = "{356, 30}";
},
{
name = nukta;
position = "{356, 2}";
},
{
name = top;
position = "{581, 670}";
}
);
layerId = "784662A0-BFC3-4940-8AA1-9AA8A3FE0938";
paths = (
{
closed = 1;
nodes = (
"255 40 LINE",
"161 55 OFFCURVE",
"99 128 OFFCURVE",
"99 220 CURVE SMOOTH",
"99 297 OFFCURVE",
"144 356 OFFCURVE",
"214 386 CURVE",
"256 338 OFFCURVE",
"308 304 OFFCURVE",
"358 281 CURVE",
"401 303 OFFCURVE",
"452 338 OFFCURVE",
"496 387 CURVE",
"568 356 OFFCURVE",
"610 295 OFFCURVE",
"610 220 CURVE SMOOTH",
"610 132 OFFCURVE",
"552 57 OFFCURVE",
"460 40 CURVE",
"464 1 LINE",
"578 18 OFFCURVE",
"651 109 OFFCURVE",
"651 218 CURVE SMOOTH",
"651 306 OFFCURVE",
"603 378 OFFCURVE",
"521 416 CURVE",
"567 476 OFFCURVE",
"600 553 OFFCURVE",
"602 651 CURVE",
"561 651 LINE",
"560 475 OFFCURVE",
"439 369 OFFCURVE",
"354 323 CURVE",
"256 372 OFFCURVE",
"153 466 OFFCURVE",
"154 652 CURVE",
"113 651 LINE",
"114 552 OFFCURVE",
"143 475 OFFCURVE",
"186 417 CURVE",
"108 380 OFFCURVE",
"58 311 OFFCURVE",
"58 219 CURVE SMOOTH",
"58 109 OFFCURVE",
"133 19 OFFCURVE",
"251 1 CURVE"
);
},
{
closed = 1;
nodes = (
"709 643 LINE",
"709 682 LINE",
"0 682 LINE",
"0 643 LINE"
);
}
);
width = 709;
}
);
rightMetricsKey = "ta-gurmukhi";
unicode = 0A32;
},
{
glyphname = "va-gurmukhi";
layers = (
{
anchors = (
{
name = bindu;
position = "{488, 680}";
},
{
name = bottom;
position = "{388, 0}";
},
{
name = candra;
position = "{488, 690}";
},
{
name = caret_1;
position = "{351, 30}";
},
{
name = nukta;
position = "{102, -7}";
},
{
name = top;
position = "{492, 670}";
}
);
layerId = "784662A0-BFC3-4940-8AA1-9AA8A3FE0938";
paths = (
{
closed = 1;
nodes = (
"480 216 LINE",
"481 251 LINE",
"219 251 LINE",
"132 251 OFFCURVE",
"90 290 OFFCURVE",
"90 343 CURVE SMOOTH",
"90 382 OFFCURVE",
"117 428 OFFCURVE",
"216 428 CURVE",
"512 428 LINE",
"512 660 LINE",
"471 660 LINE",
"471 451 LINE",
"487 465 LINE",
"200 465 LINE",
"94 465 OFFCURVE",
"50 404 OFFCURVE",
"50 347 CURVE SMOOTH",
"50 271 OFFCURVE",
"113 216 OFFCURVE",
"224 216 CURVE"
);
},
{
closed = 1;
nodes = (
"428 -2 OFFCURVE",
"473 2 OFFCURVE",
"513 14 CURVE",
"504 51 LINE",
"468 42 OFFCURVE",
"427 37 OFFCURVE",
"385 37 CURVE SMOOTH",
"286 37 OFFCURVE",
"195 66 OFFCURVE",
"195 174 CURVE SMOOTH",
"195 187 OFFCURVE",
"196 207 OFFCURVE",
"199 233 CURVE",
"160 233 LINE",
"157 206 OFFCURVE",
"156 186 OFFCURVE",
"156 175 CURVE SMOOTH",
"156 51 OFFCURVE",
"258 -2 OFFCURVE",
"389 -2 CURVE SMOOTH"
);
},
{
closed = 1;
nodes = (
"618 643 LINE",
"618 682 LINE",
"0 682 LINE",
"0 643 LINE"
);
}
);
width = 618;
}
);
leftMetricsKey = "ra-gurmukhi";
unicode = 0A35;
},
{
glyphname = "sa-gurmukhi";
layers = (
{
anchors = (
{
name = bindu;
position = "{538, 680}";
},
{
name = bottom;
position = "{541, 0}";
},
{
name = candra;
position = "{538, 690}";
},
{
name = caret_1;
position = "{343, 30}";
},
{
name = nukta;
position = "{343, 23}";
},
{
name = top;
position = "{541, 670}";
}
);
components = (
{
name = "ma-gurmukhi";
}
);
layerId = "784662A0-BFC3-4940-8AA1-9AA8A3FE0938";
paths = (
{
closed = 1;
nodes = (
"582 643 LINE",
"582 682 LINE",
"9 682 LINE",
"9 643 LINE"
);
}
);
width = 667;
}
);
leftMetricsKey = "ma-gurmukhi";
rightMetricsKey = "ma-gurmukhi";
unicode = 0A38;
},
{
glyphname = "ha-gurmukhi";
layers = (
{
anchors = (
{
name = bindu;
position = "{455, 680}";
},
{
name = bottom;
position = "{373, 2}";
},
{
name = candra;
position = "{455, 690}";
},
{
name = caret_1;
position = "{293, 30}";
},
{
name = nukta;
position = "{99, -5}";
},
{
name = top;
position = "{458, 670}";
}
);
layerId = "784662A0-BFC3-4940-8AA1-9AA8A3FE0938";
paths = (
{
closed = 1;
nodes = (
"435 -2 OFFCURVE",
"478 26 OFFCURVE",
"478 112 CURVE",
"478 665 LINE",
"438 665 LINE",
"438 121 LINE",
"438 68 OFFCURVE",
"428 37 OFFCURVE",
"367 37 CURVE SMOOTH",
"239 37 OFFCURVE",
"89 145 OFFCURVE",
"89 278 CURVE SMOOTH",
"89 380 OFFCURVE",
"144 404 OFFCURVE",
"247 404 CURVE",
"243 443 LINE",
"125 443 OFFCURVE",
"48 417 OFFCURVE",
"48 284 CURVE SMOOTH",
"48 112 OFFCURVE",
"238 -2 OFFCURVE",
"372 -2 CURVE SMOOTH"
);
},
{
closed = 1;
nodes = (
"585 643 LINE",
"585 682 LINE",
"0 682 LINE",
"0 643 LINE"
);
}
);
width = 585;
}
);
rightMetricsKey = "STEM-GURM";
unicode = 0A39;
},
{
glyphname = "rra-gurmukhi";
layers = (
{
anchors = (
{
name = bindu;
position = "{513, 680}";
},
{
name = bottom;
position = "{302, 38}";
},
{
name = candra;
position = "{513, 690}";
},
{
name = caret_1;
position = "{302, 35}";
},
{
name = top;
position = "{512, 670}";
}
);
layerId = "784662A0-BFC3-4940-8AA1-9AA8A3FE0938";
paths = (
{
closed = 1;
nodes = (
"87 0 LINE",
"87 48 LINE SMOOTH",
"87 72 OFFCURVE",
"99 86 OFFCURVE",
"120 86 CURVE SMOOTH",
"165 86 OFFCURVE",
"179 31 OFFCURVE",
"301 31 CURVE SMOOTH",
"365 31 OFFCURVE",
"418 45 OFFCURVE",
"456 72 CURVE",
"440 81 LINE",
"519 -10 LINE",
"552 0 LINE",
"547 9 LINE",
"473 101 LINE",
"474 83 LINE",
"517 116 OFFCURVE",
"542 164 OFFCURVE",
"542 218 CURVE SMOOTH",
"542 303 OFFCURVE",
"482 397 OFFCURVE",
"329 403 CURVE",
"345 392 LINE",
"450 409 OFFCURVE",
"532 499 OFFCURVE",
"532 656 CURVE",
"532 662 LINE",
"491 662 LINE",
"491 656 LINE",
"491 532 OFFCURVE",
"441 426 OFFCURVE",
"281 418 CURVE",
"341 418 LINE",
"311 427 OFFCURVE",
"260 431 OFFCURVE",
"209 431 CURVE SMOOTH",
"187 431 OFFCURVE",
"154 429 OFFCURVE",
"124 424 CURVE",
"125 385 LINE",
"157 380 OFFCURVE",
"188 377 OFFCURVE",
"224 377 CURVE SMOOTH",
"259 377 OFFCURVE",
"305 379 OFFCURVE",
"337 387 CURVE",
"260 385 LINE",
"450 387 OFFCURVE",
"502 295 OFFCURVE",
"502 222 CURVE SMOOTH",
"502 133 OFFCURVE",
"424 69 OFFCURVE",
"298 69 CURVE SMOOTH",
"181 69 OFFCURVE",
"175 125 OFFCURVE",
"115 125 CURVE SMOOTH",
"74 125 OFFCURVE",
"49 99 OFFCURVE",
"49 51 CURVE SMOOTH",
"49 0 LINE"
);
},
{
closed = 1;
nodes = (
"611 643 LINE",
"611 682 LINE",
"0 682 LINE",
"0 643 LINE"
);
}
);
width = 611;
}
);
leftMetricsKey = "ta-gurmukhi";
rightMetricsKey = "ta-gurmukhi";
unicode = 0A5C;
},
{
glyphname = "iri-gurmukhi";
layers = (
{
anchors = (
{
name = bindu;
position = "{484, 680}";
},
{
name = bottom;
position = "{361, 2}";
},
{
name = candra;
position = "{484, 690}";
},
{
name = caret_1;
position = "{353, 30}";
},
{
name = nukta;
position = "{94, -9}";
},
{
name = top;
position = "{488, 670}";
}
);
layerId = "784662A0-BFC3-4940-8AA1-9AA8A3FE0938";
paths = (
{
closed = 1;
nodes = (
"426 -2 OFFCURVE",
"488 12 OFFCURVE",
"527 31 CURVE",
"516 68 LINE",
"474 48 OFFCURVE",
"416 37 OFFCURVE",
"360 37 CURVE SMOOTH",
"171 37 OFFCURVE",
"87 167 OFFCURVE",
"85 199 CURVE",
"84 180 LINE",
"96 209 OFFCURVE",
"164 336 OFFCURVE",
"389 342 CURVE SMOOTH",
"508 342 LINE",
"508 664 LINE",
"467 664 LINE",
"467 364 LINE",
"482 381 LINE",
"424 381 LINE",
"250 381 OFFCURVE",
"114 499 OFFCURVE",
"116 658 CURVE",
"76 659 LINE",
"76 512 OFFCURVE",
"184 392 OFFCURVE",
"334 361 CURVE",
"351 374 LINE",
"147 366 OFFCURVE",
"66 246 OFFCURVE",
"48 197 CURVE",
"62 129 OFFCURVE",
"162 -2 OFFCURVE",
"360 -2 CURVE SMOOTH"
);
},
{
closed = 1;
nodes = (
"615 643 LINE",
"615 682 LINE",
"-2 682 LINE",
"-2 643 LINE"
);
}
);
width = 615;
}
);
rightMetricsKey = "STEM-GURM";
unicode = 0A72;
},
{
glyphname = "ura-gurmukhi";
layers = (
{
anchors = (
{
name = bindu;
position = "{622, 680}";
},
{
name = bottom;
position = "{360, 2}";
},
{
name = candra;
position = "{717, 650}";
},
{
name = caret_1;
position = "{354, 30}";
},
{
name = nukta;
position = "{92, -3}";
}
);
layerId = "784662A0-BFC3-4940-8AA1-9AA8A3FE0938";
paths = (
{
closed = 1;
nodes = (
"475 -2 OFFCURVE",
"549 81 OFFCURVE",
"549 189 CURVE SMOOTH",
"549 292 OFFCURVE",
"479 383 OFFCURVE",
"318 386 CURVE",
"327 373 LINE",
"459 383 OFFCURVE",
"560 497 OFFCURVE",
"560 656 CURVE SMOOTH",
"560 811 OFFCURVE",
"471 915 OFFCURVE",
"312 915 CURVE SMOOTH",
"146 915 OFFCURVE",
"59 803 OFFCURVE",
"59 536 CURVE SMOOTH",
"59 247 OFFCURVE",
"163 -2 OFFCURVE",
"360 -2 CURVE SMOOTH"
);
},
{
closed = 1;
nodes = (
"177 37 OFFCURVE",
"99 291 OFFCURVE",
"99 539 CURVE SMOOTH",
"99 756 OFFCURVE",
"157 875 OFFCURVE",
"317 875 CURVE SMOOTH",
"460 875 OFFCURVE",
"521 782 OFFCURVE",
"521 660 CURVE SMOOTH",
"521 524 OFFCURVE",
"445 401 OFFCURVE",
"273 401 CURVE SMOOTH",
"90 401 LINE",
"90 365 LINE",
"280 365 LINE SMOOTH",
"459 365 OFFCURVE",
"509 277 OFFCURVE",
"509 193 CURVE SMOOTH",
"509 93 OFFCURVE",
"439 37 OFFCURVE",
"355 37 CURVE SMOOTH"
);
},
{
closed = 1;
nodes = (
"630 643 LINE",
"630 682 LINE",
"-2 682 LINE",
"-2 643 LINE"
);
}
);
width = 627;
}
);
unicode = 0A73;
},
{
glyphname = "ekonkar-gurmukhi";
layers = (
{
layerId = "784662A0-BFC3-4940-8AA1-9AA8A3FE0938";
paths = (
{
closed = 1;
nodes = (
"1053 -2 OFFCURVE",
"1127 76 OFFCURVE",
"1127 179 CURVE SMOOTH",
"1127 277 OFFCURVE",
"1059 363 OFFCURVE",
"901 367 CURVE",
"912 359 LINE",
"1057 371 OFFCURVE",
"1137 488 OFFCURVE",
"1138 650 CURVE",
"1098 649 LINE",
"1096 511 OFFCURVE",
"1036 385 OFFCURVE",
"850 385 CURVE SMOOTH",
"686 385 LINE",
"692 348 LINE",
"858 348 LINE SMOOTH",
"1037 348 OFFCURVE",
"1087 262 OFFCURVE",
"1087 184 CURVE SMOOTH",
"1087 90 OFFCURVE",
"1017 37 OFFCURVE",
"938 37 CURVE SMOOTH",
"725 37 OFFCURVE",
"676 361 OFFCURVE",
"676 600 CURVE SMOOTH",
"676 813 OFFCURVE",
"756 920 OFFCURVE",
"987 920 CURVE SMOOTH",
"1119 920 OFFCURVE",
"1236 885 OFFCURVE",
"1292 827 CURVE",
"1247 865 LINE",
"1266 820 OFFCURVE",
"1277 796 OFFCURVE",
"1318 764 CURVE SMOOTH",
"1330 757 OFFCURVE",
"1341 753 OFFCURVE",
"1353 748 CURVE",
"1373 776 LINE",
"1351 815 OFFCURVE",
"1312 854 OFFCURVE",
"1274 887 CURVE",
"1287 865 LINE",
"1279 891 OFFCURVE",
"1276 908 OFFCURVE",
"1276 941 CURVE SMOOTH",
"1276 1105 OFFCURVE",
"1363 1173 OFFCURVE",
"1461 1173 CURVE SMOOTH",
"1567 1173 OFFCURVE",
"1640 1095 OFFCURVE",
"1646 997 CURVE",
"1678 1008 LINE",
"1669 1123 OFFCURVE",
"1580 1211 OFFCURVE",
"1459 1211 CURVE SMOOTH",
"1343 1211 OFFCURVE",
"1240 1128 OFFCURVE",
"1240 943 CURVE SMOOTH",
"1240 909 OFFCURVE",
"1242 888 OFFCURVE",
"1249 878 CURVE",
"1267 886 LINE",
"1182 944 OFFCURVE",
"1058 958 OFFCURVE",
"982 958 CURVE SMOOTH",
"763 958 OFFCURVE",
"637 871 OFFCURVE",
"637 604 CURVE SMOOTH",
"637 211 OFFCURVE",
"753 -2 OFFCURVE",
"941 -2 CURVE SMOOTH"
);
},
{
closed = 1;
nodes = (
"567 30 LINE",
"533 32 OFFCURVE",
"496 56 OFFCURVE",
"496 102 CURVE SMOOTH",
"496 446 LINE SMOOTH",
"496 577 OFFCURVE",
"413 685 OFFCURVE",
"266 685 CURVE SMOOTH",
"132 685 OFFCURVE",
"58 596 OFFCURVE",
"58 495 CURVE SMOOTH",
"58 394 OFFCURVE",
"134 303 OFFCURVE",
"266 303 CURVE SMOOTH",
"347 303 OFFCURVE",
"425 337 OFFCURVE",
"476 421 CURVE",
"456 406 LINE",
"456 105 LINE SMOOTH",
"456 33 OFFCURVE",
"510 -4 OFFCURVE",
"559 -8 CURVE"
);
},
{
closed = 1;
nodes = (
"156 342 OFFCURVE",
"97 415 OFFCURVE",
"97 494 CURVE SMOOTH",
"97 572 OFFCURVE",
"156 645 OFFCURVE",
"268 645 CURVE SMOOTH",
"402 645 OFFCURVE",
"468 542 OFFCURVE",
"456 423 CURVE",
"470 485 LINE",
"437 397 OFFCURVE",
"360 342 OFFCURVE",
"266 342 CURVE SMOOTH"
);
},
{
closed = 1;
nodes = (
"1199 643 LINE",
"1199 682 LINE",
"675 682 LINE",
"671 643 LINE"
);
}
);
width = 1213;
}
);
leftMetricsKey = "one-gurmukhi";
unicode = 0A74;
},
{
glyphname = "ya-gurmukhi.post";
layers = (
{
anchors = (
{
name = bindu;
position = "{309, 680}";
},
{
name = bottom;
position = "{313, 0}";
},
{
name = candra;
position = "{309, 690}";
},
{
name = caret_1;
position = "{172, 30}";
},
{
name = nukta;
position = "{171, -30}";
},
{
name = top;
position = "{313, 670}";
}
);
layerId = "784662A0-BFC3-4940-8AA1-9AA8A3FE0938";
paths = (
{
closed = 1;
nodes = (
"-46 114 LINE SMOOTH",
"23 114 OFFCURVE",
"125 148 OFFCURVE",
"125 281 CURVE SMOOTH",
"125 392 LINE",
"109 377 LINE",
"305 377 LINE",
"305 416 LINE",
"86 416 LINE",
"86 288 LINE SMOOTH",
"86 173 OFFCURVE",
"-1 153 OFFCURVE",
"-48 153 CURVE SMOOTH",
"-116 153 LINE",
"-116 114 LINE"
);
},
{
closed = 1;
nodes = (
"356 643 LINE",
"356 682 LINE",
"0 682 LINE",
"0 643 LINE"
);
},
{
closed = 1;
nodes = (
"333 0 LINE",
"333 661 LINE",
"321 643 LINE",
"439 643 LINE",
"439 682 LINE",
"292 682 LINE",
"292 0 LINE"
);
}
);
width = 439;
}
);
rightMetricsKey = "STEM-GURM";
},
{
glyphname = "ekonkar-gurmukhi.ss01";
layers = (
{
layerId = "784662A0-BFC3-4940-8AA1-9AA8A3FE0938";
paths = (
{
closed = 1;
nodes = (
"1098 649 LINE",
"1096 511 OFFCURVE",
"1036 385 OFFCURVE",
"850 385 CURVE SMOOTH",
"686 385 LINE",
"692 348 LINE",
"858 348 LINE SMOOTH",
"1037 348 OFFCURVE",
"1087 262 OFFCURVE",
"1087 184 CURVE SMOOTH",
"1087 90 OFFCURVE",
"1017 37 OFFCURVE",
"938 37 CURVE SMOOTH",
"723 37 OFFCURVE",
"676 380 OFFCURVE",
"676 601 CURVE SMOOTH",
"676 789 OFFCURVE",
"722 920 OFFCURVE",
"911 920 CURVE SMOOTH",
"949 920 OFFCURVE",
"983 910 OFFCURVE",
"1008 893 CURVE",
"1022 864 OFFCURVE",
"1035 847 OFFCURVE",
"1053 833 CURVE SMOOTH",
"1067 820 OFFCURVE",
"1086 809 OFFCURVE",
"1111 796 CURVE",
"1130 825 LINE",
"1112 858 OFFCURVE",
"1079 891 OFFCURVE",
"1040 922 CURVE",
"1036 940 OFFCURVE",
"1033 957 OFFCURVE",
"1033 984 CURVE SMOOTH",
"1033 1277 OFFCURVE",
"1207 1399 OFFCURVE",
"1404 1399 CURVE SMOOTH",
"1557 1399 OFFCURVE",
"1660 1311 OFFCURVE",
"1673 1203 CURVE",
"1698 1220 LINE",
"1684 1341 OFFCURVE",
"1566 1438 OFFCURVE",
"1401 1438 CURVE SMOOTH",
"1189 1438 OFFCURVE",
"997 1302 OFFCURVE",
"997 986 CURVE SMOOTH",
"997 960 OFFCURVE",
"998 939 OFFCURVE",
"1003 918 CURVE",
"1013 932 LINE",
"980 953 OFFCURVE",
"940 958 OFFCURVE",
"912 958 CURVE SMOOTH",
"732 958 OFFCURVE",
"637 861 OFFCURVE",
"637 611 CURVE SMOOTH",
"637 217 OFFCURVE",
"753 -2 OFFCURVE",
"941 -2 CURVE SMOOTH",
"1053 -2 OFFCURVE",
"1127 76 OFFCURVE",
"1127 179 CURVE SMOOTH",
"1127 277 OFFCURVE",
"1059 363 OFFCURVE",
"901 367 CURVE",
"912 359 LINE",
"1057 371 OFFCURVE",
"1137 488 OFFCURVE",
"1138 650 CURVE"
);
},
{
closed = 1;
nodes = (
"567 30 LINE",
"533 32 OFFCURVE",
"496 56 OFFCURVE",
"496 102 CURVE SMOOTH",
"496 446 LINE SMOOTH",
"496 577 OFFCURVE",
"413 685 OFFCURVE",
"266 685 CURVE SMOOTH",
"132 685 OFFCURVE",
"58 596 OFFCURVE",
"58 495 CURVE SMOOTH",
"58 394 OFFCURVE",
"134 303 OFFCURVE",
"266 303 CURVE SMOOTH",
"347 303 OFFCURVE",
"425 337 OFFCURVE",
"476 421 CURVE",
"456 406 LINE",
"456 105 LINE SMOOTH",
"456 33 OFFCURVE",
"510 -4 OFFCURVE",
"559 -8 CURVE"
);
},
{
closed = 1;
nodes = (
"156 342 OFFCURVE",
"97 415 OFFCURVE",
"97 494 CURVE SMOOTH",
"97 572 OFFCURVE",
"156 645 OFFCURVE",
"268 645 CURVE SMOOTH",
"402 645 OFFCURVE",
"468 542 OFFCURVE",
"456 423 CURVE",
"470 485 LINE",
"437 397 OFFCURVE",
"360 342 OFFCURVE",
"266 342 CURVE SMOOTH"
);
},
{
closed = 1;
nodes = (
"1200 643 LINE",
"1200 682 LINE",
"675 682 LINE",
"671 643 LINE"
);
}
);
width = 1213;
}
);
leftMetricsKey = "one-gurmukhi";
},
{
glyphname = zero;
layers = (
{
layerId = "784662A0-BFC3-4940-8AA1-9AA8A3FE0938";
paths = (
{
closed = 1;
nodes = (
"144 701 OFFCURVE",
"54 576 OFFCURVE",
"54 351 CURVE SMOOTH",
"54 124 OFFCURVE",
"144 -1 OFFCURVE",
"308 -1 CURVE SMOOTH",
"473 -1 OFFCURVE",
"563 124 OFFCURVE",
"563 351 CURVE SMOOTH",
"563 576 OFFCURVE",
"473 701 OFFCURVE",
"308 701 CURVE SMOOTH"
);
},
{
closed = 1;
nodes = (
"446 663 OFFCURVE",
"522 554 OFFCURVE",
"522 351 CURVE SMOOTH",
"522 147 OFFCURVE",
"446 37 OFFCURVE",
"308 37 CURVE SMOOTH",
"170 37 OFFCURVE",
"95 147 OFFCURVE",
"95 351 CURVE SMOOTH",
"95 554 OFFCURVE",
"170 663 OFFCURVE",
"308 663 CURVE SMOOTH"
);
}
);
width = 617;
}
);
note = zero;
unicode = 0030;
},
{
glyphname = one;
layers = (
{
layerId = "784662A0-BFC3-4940-8AA1-9AA8A3FE0938";
paths = (
{
closed = 1;
nodes = (
"342 0 LINE",
"342 700 LINE",
"122 700 LINE",
"122 659 LINE",
"301 659 LINE",
"301 0 LINE"
);
}
);
width = 617;
}
);
note = one;
unicode = 0031;
},
{
glyphname = two;
layers = (
{
layerId = "784662A0-BFC3-4940-8AA1-9AA8A3FE0938";
paths = (
{
closed = 1;
nodes = (
"204 702 OFFCURVE",
"120 667 OFFCURVE",
"59 608 CURVE",
"80 575 LINE",
"136 629 OFFCURVE",
"211 661 OFFCURVE",
"281 661 CURVE SMOOTH",
"388 661 OFFCURVE",
"454 612 OFFCURVE",
"454 531 CURVE SMOOTH",
"454 480 OFFCURVE",
"410 407 OFFCURVE",
"342 337 CURVE SMOOTH",
"61 43 LINE",
"60 0 LINE",
"547 0 LINE",
"547 42 LINE",
"110 42 LINE",
"370 311 LINE SMOOTH",
"447 391 OFFCURVE",
"497 472 OFFCURVE",
"497 535 CURVE SMOOTH",
"497 638 OFFCURVE",
"415 702 OFFCURVE",
"285 702 CURVE SMOOTH"
);
}
);
width = 617;
}
);
note = two;
unicode = 0032;
},
{
glyphname = three;
layers = (
{
layerId = "784662A0-BFC3-4940-8AA1-9AA8A3FE0938";
paths = (
{
closed = 1;
nodes = (
"225 398 LINE",
"490 668 LINE",
"490 700 LINE",
"65 700 LINE",
"65 658 LINE",
"436 658 LINE",
"175 394 LINE",
"175 364 LINE",
"258 364 LINE SMOOTH",
"400 364 OFFCURVE",
"486 311 OFFCURVE",
"486 209 CURVE SMOOTH",
"486 109 OFFCURVE",
"402 38 OFFCURVE",
"261 38 CURVE SMOOTH",
"186 38 OFFCURVE",
"109 61 OFFCURVE",
"54 98 CURVE",
"33 62 LINE",
"94 24 OFFCURVE",
"179 -1 OFFCURVE",
"262 -1 CURVE SMOOTH",
"425 -1 OFFCURVE",
"527 86 OFFCURVE",
"527 213 CURVE SMOOTH",
"527 327 OFFCURVE",
"425 395 OFFCURVE",
"272 398 CURVE SMOOTH"
);
}
);
width = 617;
}
);
note = three;
unicode = 0033;
},
{
glyphname = four;
layers = (
{
layerId = "784662A0-BFC3-4940-8AA1-9AA8A3FE0938";
paths = (
{
closed = 1;
nodes = (
"329 700 LINE",
"48 240 LINE",
"48 199 LINE",
"408 199 LINE",
"408 0 LINE",
"448 0 LINE",
"448 199 LINE",
"566 199 LINE",
"566 241 LINE",
"449 241 LINE",
"448 450 LINE",
"408 450 LINE",
"409 241 LINE",
"92 241 LINE",
"372 700 LINE"
);
}
);
width = 617;
}
);
note = four;
unicode = 0034;
},
{
glyphname = five;
layers = (
{
layerId = "784662A0-BFC3-4940-8AA1-9AA8A3FE0938";
paths = (
{
closed = 1;
nodes = (
"105 700 LINE",
"105 355 LINE",
"162 372 OFFCURVE",
"240 384 OFFCURVE",
"293 384 CURVE SMOOTH",
"419 384 OFFCURVE",
"501 321 OFFCURVE",
"501 224 CURVE SMOOTH",
"501 112 OFFCURVE",
"419 41 OFFCURVE",
"291 41 CURVE SMOOTH",
"223 41 OFFCURVE",
"138 66 OFFCURVE",
"74 107 CURVE",
"56 72 LINE",
"124 29 OFFCURVE",
"217 0 OFFCURVE",
"294 0 CURVE SMOOTH",
"446 0 OFFCURVE",
"545 89 OFFCURVE",
"545 226 CURVE SMOOTH",
"545 344 OFFCURVE",
"448 425 OFFCURVE",
"298 425 CURVE SMOOTH",
"254 425 OFFCURVE",
"193 417 OFFCURVE",
"145 404 CURVE",
"145 659 LINE",
"517 659 LINE",
"517 700 LINE"
);
}
);
width = 617;
}
);
note = five;
unicode = 0035;
},
{
glyphname = six;
layers = (
{
layerId = "784662A0-BFC3-4940-8AA1-9AA8A3FE0938";
paths = (
{
closed = 1;
nodes = (
"171 702 OFFCURVE",
"64 555 OFFCURVE",
"64 332 CURVE SMOOTH",
"64 117 OFFCURVE",
"165 -1 OFFCURVE",
"332 -1 CURVE SMOOTH",
"473 -1 OFFCURVE",
"565 84 OFFCURVE",
"565 224 CURVE SMOOTH",
"565 360 OFFCURVE",
"479 443 OFFCURVE",
"340 443 CURVE SMOOTH",
"218 443 OFFCURVE",
"133 381 OFFCURVE",
"108 276 CURVE",
"88 514 OFFCURVE",
"177 662 OFFCURVE",
"347 662 CURVE SMOOTH",
"403 662 OFFCURVE",
"468 646 OFFCURVE",
"518 620 CURVE",
"536 655 LINE",
"477 684 OFFCURVE",
"405 702 OFFCURVE",
"344 702 CURVE SMOOTH"
);
},
{
closed = 1;
nodes = (
"450 405 OFFCURVE",
"525 336 OFFCURVE",
"525 226 CURVE SMOOTH",
"525 110 OFFCURVE",
"443 39 OFFCURVE",
"327 39 CURVE SMOOTH",
"185 39 OFFCURVE",
"125 144 OFFCURVE",
"125 219 CURVE SMOOTH",
"125 315 OFFCURVE",
"204 405 OFFCURVE",
"335 405 CURVE SMOOTH"
);
}
);
width = 617;
}
);
note = six;
unicode = 0036;
},
{
glyphname = seven;
layers = (
{
layerId = "784662A0-BFC3-4940-8AA1-9AA8A3FE0938";
paths = (
{
closed = 1;
nodes = (
"61 700 LINE",
"61 550 LINE",
"100 550 LINE",
"100 659 LINE",
"520 659 LINE",
"187 0 LINE",
"232 0 LINE",
"563 659 LINE",
"563 700 LINE"
);
}
);
width = 617;
}
);
note = seven;
unicode = 0037;
},
{
glyphname = eight;
layers = (
{
layerId = "784662A0-BFC3-4940-8AA1-9AA8A3FE0938";
paths = (
{
closed = 1;
nodes = (
"175 702 OFFCURVE",
"92 639 OFFCURVE",
"92 533 CURVE SMOOTH",
"92 454 OFFCURVE",
"139 401 OFFCURVE",
"218 375 CURVE",
"120 350 OFFCURVE",
"59 287 OFFCURVE",
"59 194 CURVE SMOOTH",
"59 71 OFFCURVE",
"154 -1 OFFCURVE",
"309 -1 CURVE SMOOTH",
"463 -1 OFFCURVE",
"558 71 OFFCURVE",
"558 195 CURVE SMOOTH",
"558 287 OFFCURVE",
"498 350 OFFCURVE",
"400 375 CURVE",
"479 401 OFFCURVE",
"525 453 OFFCURVE",
"525 532 CURVE SMOOTH",
"525 638 OFFCURVE",
"443 702 OFFCURVE",
"309 702 CURVE SMOOTH"
);
},
{
closed = 1;
nodes = (
"439 352 OFFCURVE",
"518 293 OFFCURVE",
"518 198 CURVE SMOOTH",
"518 96 OFFCURVE",
"438 37 OFFCURVE",
"309 37 CURVE SMOOTH",
"178 37 OFFCURVE",
"99 97 OFFCURVE",
"99 199 CURVE SMOOTH",
"99 294 OFFCURVE",
"179 352 OFFCURVE",
"308 352 CURVE SMOOTH"
);
},
{
closed = 1;
nodes = (
"420 665 OFFCURVE",
"487 614 OFFCURVE",
"487 529 CURVE SMOOTH",
"487 442 OFFCURVE",
"420 390 OFFCURVE",
"309 390 CURVE SMOOTH",
"198 390 OFFCURVE",
"130 442 OFFCURVE",
"130 529 CURVE SMOOTH",
"130 614 OFFCURVE",
"198 665 OFFCURVE",
"309 665 CURVE SMOOTH"
);
}
);
width = 617;
}
);
note = eight;
unicode = 0038;
},
{
glyphname = nine;
layers = (
{
layerId = "784662A0-BFC3-4940-8AA1-9AA8A3FE0938";
paths = (
{
closed = 1;
nodes = (
"450 -1 OFFCURVE",
"556 145 OFFCURVE",
"556 368 CURVE SMOOTH",
"556 584 OFFCURVE",
"456 702 OFFCURVE",
"290 702 CURVE SMOOTH",
"150 702 OFFCURVE",
"60 616 OFFCURVE",
"60 476 CURVE SMOOTH",
"60 340 OFFCURVE",
"145 258 OFFCURVE",
"282 258 CURVE SMOOTH",
"403 258 OFFCURVE",
"486 320 OFFCURVE",
"512 424 CURVE",
"531 186 OFFCURVE",
"443 38 OFFCURVE",
"274 38 CURVE SMOOTH",
"219 38 OFFCURVE",
"155 54 OFFCURVE",
"106 81 CURVE",
"88 45 LINE",
"146 17 OFFCURVE",
"217 -1 OFFCURVE",
"278 -1 CURVE SMOOTH"
);
},
{
closed = 1;
nodes = (
"173 296 OFFCURVE",
"100 364 OFFCURVE",
"100 474 CURVE SMOOTH",
"100 590 OFFCURVE",
"180 661 OFFCURVE",
"295 661 CURVE SMOOTH",
"435 661 OFFCURVE",
"495 556 OFFCURVE",
"494 482 CURVE SMOOTH",
"495 386 OFFCURVE",
"417 296 OFFCURVE",
"287 296 CURVE SMOOTH"
);
}
);
width = 617;
}
);
note = nine;
unicode = 0039;
},
{
glyphname = zero.lf;
layers = (
{
layerId = "784662A0-BFC3-4940-8AA1-9AA8A3FE0938";
paths = (
{
closed = 1;
nodes = (
"158 700 OFFCURVE",
"57 575 OFFCURVE",
"57 350 CURVE SMOOTH",
"57 125 OFFCURVE",
"158 -1 OFFCURVE",
"338 -1 CURVE SMOOTH",
"519 -1 OFFCURVE",
"619 125 OFFCURVE",
"619 350 CURVE SMOOTH",
"619 575 OFFCURVE",
"519 700 OFFCURVE",
"338 700 CURVE SMOOTH"
);
},
{
closed = 1;
nodes = (
"493 662 OFFCURVE",
"578 554 OFFCURVE",
"578 350 CURVE SMOOTH",
"578 147 OFFCURVE",
"493 37 OFFCURVE",
"338 37 CURVE SMOOTH",
"184 37 OFFCURVE",
"100 147 OFFCURVE",
"100 350 CURVE SMOOTH",
"100 554 OFFCURVE",
"184 662 OFFCURVE",
"338 662 CURVE SMOOTH"
);
}
);
width = 677;
}
);
},
{
glyphname = one.lf;
layers = (
{
layerId = "784662A0-BFC3-4940-8AA1-9AA8A3FE0938";
paths = (
{
closed = 1;
nodes = (
"209 0 LINE",
"209 699 LINE",
"20 699 LINE",
"20 658 LINE",
"167 658 LINE",
"167 0 LINE"
);
}
);
width = 354;
}
);
},
{
glyphname = two.lf;
layers = (
{
layerId = "784662A0-BFC3-4940-8AA1-9AA8A3FE0938";
paths = (
{
closed = 1;
nodes = (
"188 700 OFFCURVE",
"108 666 OFFCURVE",
"48 607 CURVE",
"69 574 LINE",
"122 628 OFFCURVE",
"195 660 OFFCURVE",
"261 660 CURVE",
"363 660 OFFCURVE",
"425 611 OFFCURVE",
"425 530 CURVE",
"425 479 OFFCURVE",
"384 405 OFFCURVE",
"317 337 CURVE SMOOTH",
"50 42 LINE",
"50 0 LINE",
"515 0 LINE",
"515 41 LINE",
"100 41 LINE",
"346 310 LINE SMOOTH",
"421 389 OFFCURVE",
"468 472 OFFCURVE",
"468 534 CURVE",
"468 637 OFFCURVE",
"389 700 OFFCURVE",
"265 700 CURVE"
);
}
);
width = 574;
}
);
},
{
glyphname = three.lf;
layers = (
{
layerId = "784662A0-BFC3-4940-8AA1-9AA8A3FE0938";
paths = (
{
closed = 1;
nodes = (
"187 398 LINE",
"421 667 LINE",
"421 699 LINE",
"40 699 LINE",
"40 658 LINE",
"367 658 LINE",
"137 393 LINE",
"137 363 LINE",
"213 363 LINE SMOOTH",
"337 363 OFFCURVE",
"413 310 OFFCURVE",
"413 209 CURVE SMOOTH",
"413 109 OFFCURVE",
"339 38 OFFCURVE",
"215 38 CURVE SMOOTH",
"149 38 OFFCURVE",
"81 61 OFFCURVE",
"31 98 CURVE",
"11 62 LINE",
"66 24 OFFCURVE",
"142 -1 OFFCURVE",
"217 -1 CURVE SMOOTH",
"363 -1 OFFCURVE",
"454 86 OFFCURVE",
"454 212 CURVE SMOOTH",
"454 327 OFFCURVE",
"364 394 OFFCURVE",
"228 397 CURVE SMOOTH"
);
}
);
width = 515;
}
);
},
{
glyphname = four.lf;
layers = (
{
layerId = "784662A0-BFC3-4940-8AA1-9AA8A3FE0938";
paths = (
{
closed = 1;
nodes = (
"295 699 LINE",
"33 240 LINE",
"33 199 LINE",
"370 199 LINE",
"370 0 LINE",
"410 0 LINE",
"410 199 LINE",
"520 199 LINE",
"520 241 LINE",
"410 241 LINE",
"410 449 LINE",
"370 449 LINE",
"370 241 LINE",
"77 241 LINE",
"338 699 LINE"
);
}
);
width = 555;
}
);
},
{
glyphname = five.lf;
layers = (
{
layerId = "784662A0-BFC3-4940-8AA1-9AA8A3FE0938";
paths = (
{
closed = 1;
nodes = (
"87 699 LINE",
"87 354 LINE",
"140 371 OFFCURVE",
"214 383 OFFCURVE",
"263 383 CURVE",
"379 383 OFFCURVE",
"454 321 OFFCURVE",
"454 224 CURVE",
"454 112 OFFCURVE",
"379 41 OFFCURVE",
"261 41 CURVE",
"197 41 OFFCURVE",
"118 66 OFFCURVE",
"59 107 CURVE",
"41 72 LINE",
"105 29 OFFCURVE",
"192 0 OFFCURVE",
"264 0 CURVE",
"406 0 OFFCURVE",
"498 89 OFFCURVE",
"498 226 CURVE",
"498 344 OFFCURVE",
"408 424 OFFCURVE",
"267 424 CURVE",
"227 424 OFFCURVE",
"171 416 OFFCURVE",
"127 403 CURVE",
"127 658 LINE",
"472 658 LINE",
"472 699 LINE"
);
}
);
width = 554;
}
);
},
{
glyphname = six.lf;
layers = (
{
layerId = "784662A0-BFC3-4940-8AA1-9AA8A3FE0938";
paths = (
{
closed = 1;
nodes = (
"162 701 OFFCURVE",
"57 554 OFFCURVE",
"57 332 CURVE SMOOTH",
"57 117 OFFCURVE",
"156 -1 OFFCURVE",
"319 -1 CURVE SMOOTH",
"457 -1 OFFCURVE",
"546 84 OFFCURVE",
"546 224 CURVE SMOOTH",
"546 359 OFFCURVE",
"463 442 OFFCURVE",
"327 442 CURVE SMOOTH",
"209 442 OFFCURVE",
"127 380 OFFCURVE",
"101 276 CURVE",
"82 513 OFFCURVE",
"169 661 OFFCURVE",
"334 661 CURVE SMOOTH",
"389 661 OFFCURVE",
"452 645 OFFCURVE",
"500 619 CURVE",
"518 654 LINE",
"461 683 OFFCURVE",
"391 701 OFFCURVE",
"331 701 CURVE SMOOTH"
);
},
{
closed = 1;
nodes = (
"434 404 OFFCURVE",
"507 336 OFFCURVE",
"507 226 CURVE SMOOTH",
"507 110 OFFCURVE",
"428 39 OFFCURVE",
"315 39 CURVE SMOOTH",
"177 39 OFFCURVE",
"119 144 OFFCURVE",
"119 219 CURVE",
"119 315 OFFCURVE",
"195 404 OFFCURVE",
"323 404 CURVE SMOOTH"
);
}
);
width = 593;
}
);
leftMetricsKey = zero.lf;
},
{
glyphname = seven.lf;
layers = (
{
layerId = "784662A0-BFC3-4940-8AA1-9AA8A3FE0938";
paths = (
{
closed = 1;
nodes = (
"42 699 LINE",
"42 550 LINE",
"81 550 LINE",
"81 658 LINE",
"460 658 LINE",
"157 0 LINE",
"201 0 LINE",
"504 658 LINE",
"504 699 LINE"
);
}
);
width = 538;
}
);
},
{
glyphname = eight.lf;
layers = (
{
layerId = "784662A0-BFC3-4940-8AA1-9AA8A3FE0938";
paths = (
{
closed = 1;
nodes = (
"171 700 OFFCURVE",
"89 638 OFFCURVE",
"89 532 CURVE SMOOTH",
"89 453 OFFCURVE",
"135 400 OFFCURVE",
"213 374 CURVE",
"116 349 OFFCURVE",
"56 287 OFFCURVE",
"56 194 CURVE SMOOTH",
"56 71 OFFCURVE",
"150 -1 OFFCURVE",
"303 -1 CURVE SMOOTH",
"456 -1 OFFCURVE",
"550 71 OFFCURVE",
"550 195 CURVE SMOOTH",
"550 287 OFFCURVE",
"491 349 OFFCURVE",
"394 374 CURVE",
"471 400 OFFCURVE",
"517 452 OFFCURVE",
"517 531 CURVE SMOOTH",
"517 638 OFFCURVE",
"436 700 OFFCURVE",
"303 700 CURVE SMOOTH"
);
},
{
closed = 1;
nodes = (
"433 352 OFFCURVE",
"510 293 OFFCURVE",
"510 198 CURVE SMOOTH",
"510 96 OFFCURVE",
"432 37 OFFCURVE",
"304 37 CURVE SMOOTH",
"174 37 OFFCURVE",
"97 97 OFFCURVE",
"97 199 CURVE SMOOTH",
"97 294 OFFCURVE",
"175 352 OFFCURVE",
"303 352 CURVE SMOOTH"
);
},
{
closed = 1;
nodes = (
"414 664 OFFCURVE",
"480 613 OFFCURVE",
"480 528 CURVE SMOOTH",
"480 442 OFFCURVE",
"414 389 OFFCURVE",
"304 389 CURVE SMOOTH",
"194 389 OFFCURVE",
"127 442 OFFCURVE",
"127 528 CURVE SMOOTH",
"127 613 OFFCURVE",
"194 664 OFFCURVE",
"304 664 CURVE SMOOTH"
);
}
);
width = 607;
}
);
},
{
glyphname = zero.osf;
layers = (
{
layerId = "784662A0-BFC3-4940-8AA1-9AA8A3FE0938";
paths = (
{
closed = 1;
nodes = (
"174 600 OFFCURVE",
"57 475 OFFCURVE",
"57 300 CURVE SMOOTH",
"57 125 OFFCURVE",
"174 -1 OFFCURVE",
"338 -1 CURVE SMOOTH",
"501 -1 OFFCURVE",
"619 125 OFFCURVE",
"619 300 CURVE SMOOTH",
"619 475 OFFCURVE",
"501 600 OFFCURVE",
"338 600 CURVE SMOOTH"
);
},
{
closed = 1;
nodes = (
"477 561 OFFCURVE",
"578 452 OFFCURVE",
"578 300 CURVE SMOOTH",
"578 147 OFFCURVE",
"477 39 OFFCURVE",
"338 39 CURVE SMOOTH",
"200 39 OFFCURVE",
"100 147 OFFCURVE",
"100 300 CURVE SMOOTH",
"100 452 OFFCURVE",
"200 561 OFFCURVE",
"338 561 CURVE SMOOTH"
);
}
);
width = 677;
}
);
},
{
glyphname = one.osf;
layers = (
{
layerId = "784662A0-BFC3-4940-8AA1-9AA8A3FE0938";
paths = (
{
closed = 1;
nodes = (
"209 0 LINE",
"209 599 LINE",
"20 599 LINE",
"20 558 LINE",
"167 558 LINE",
"167 0 LINE"
);
}
);
width = 354;
}
);
},
{
glyphname = two.osf;
layers = (
{
layerId = "784662A0-BFC3-4940-8AA1-9AA8A3FE0938";
paths = (
{
closed = 1;
nodes = (
"179 608 OFFCURVE",
"104 578 OFFCURVE",
"48 527 CURVE",
"68 494 LINE",
"118 540 OFFCURVE",
"186 569 OFFCURVE",
"248 569 CURVE SMOOTH",
"342 569 OFFCURVE",
"398 527 OFFCURVE",
"398 459 CURVE SMOOTH",
"398 415 OFFCURVE",
"360 352 OFFCURVE",
"299 294 CURVE SMOOTH",
"50 40 LINE",
"50 0 LINE",
"485 0 LINE",
"485 41 LINE",
"101 41 LINE",
"328 269 LINE SMOOTH",
"398 337 OFFCURVE",
"442 409 OFFCURVE",
"442 463 CURVE SMOOTH",
"442 553 OFFCURVE",
"368 608 OFFCURVE",
"252 608 CURVE SMOOTH"
);
}
);
width = 544;
}
);
leftMetricsKey = two.lf;
rightMetricsKey = two.lf;
},
{
glyphname = three.osf;
layers = (
{
layerId = "784662A0-BFC3-4940-8AA1-9AA8A3FE0938";
paths = (
{
closed = 1;
nodes = (
"187 298 LINE",
"421 567 LINE",
"421 599 LINE",
"40 599 LINE",
"40 557 LINE",
"367 557 LINE",
"137 294 LINE",
"137 263 LINE",
"213 263 LINE SMOOTH",
"337 263 OFFCURVE",
"412 210 OFFCURVE",
"412 109 CURVE SMOOTH",
"412 9 OFFCURVE",
"339 -62 OFFCURVE",
"215 -62 CURVE SMOOTH",
"149 -62 OFFCURVE",
"80 -39 OFFCURVE",
"31 -2 CURVE",
"11 -38 LINE",
"66 -76 OFFCURVE",
"142 -101 OFFCURVE",
"217 -101 CURVE SMOOTH",
"363 -101 OFFCURVE",
"454 -14 OFFCURVE",
"454 113 CURVE SMOOTH",
"454 227 OFFCURVE",
"364 294 OFFCURVE",
"228 297 CURVE SMOOTH"
);
}
);
width = 515;
}
);
},
{
glyphname = four.osf;
layers = (
{
layerId = "784662A0-BFC3-4940-8AA1-9AA8A3FE0938";
paths = (
{
closed = 1;
nodes = (
"295 599 LINE",
"33 140 LINE",
"33 99 LINE",
"370 99 LINE",
"370 -100 LINE",
"410 -100 LINE",
"410 99 LINE",
"520 99 LINE",
"520 141 LINE",
"410 141 LINE",
"410 349 LINE",
"370 349 LINE",
"370 141 LINE",
"77 141 LINE",
"338 599 LINE"
);
}
);
width = 555;
}
);
},
{
glyphname = five.osf;
layers = (
{
layerId = "784662A0-BFC3-4940-8AA1-9AA8A3FE0938";
paths = (
{
closed = 1;
nodes = (
"87 599 LINE",
"87 254 LINE",
"139 271 OFFCURVE",
"213 283 OFFCURVE",
"262 283 CURVE",
"379 283 OFFCURVE",
"454 221 OFFCURVE",
"454 124 CURVE",
"454 12 OFFCURVE",
"379 -59 OFFCURVE",
"261 -59 CURVE",
"197 -59 OFFCURVE",
"118 -34 OFFCURVE",
"59 7 CURVE",
"41 -28 LINE",
"105 -71 OFFCURVE",
"191 -100 OFFCURVE",
"264 -100 CURVE",
"406 -100 OFFCURVE",
"498 -11 OFFCURVE",
"498 126 CURVE",
"498 244 OFFCURVE",
"407 324 OFFCURVE",
"267 324 CURVE",
"227 324 OFFCURVE",
"171 316 OFFCURVE",
"127 303 CURVE",
"127 558 LINE",
"472 558 LINE",
"472 599 LINE"
);
}
);
width = 554;
}
);
},
{
glyphname = six.osf;
layers = (
{
layerId = "784662A0-BFC3-4940-8AA1-9AA8A3FE0938";
paths = (
{
closed = 1;
nodes = (
"162 701 OFFCURVE",
"57 554 OFFCURVE",
"57 332 CURVE SMOOTH",
"57 117 OFFCURVE",
"156 -1 OFFCURVE",
"319 -1 CURVE SMOOTH",
"457 -1 OFFCURVE",
"546 84 OFFCURVE",
"546 224 CURVE SMOOTH",
"546 359 OFFCURVE",
"463 442 OFFCURVE",
"327 442 CURVE SMOOTH",
"209 442 OFFCURVE",
"127 380 OFFCURVE",
"101 276 CURVE",
"82 513 OFFCURVE",
"169 661 OFFCURVE",
"334 661 CURVE SMOOTH",
"389 661 OFFCURVE",
"452 645 OFFCURVE",
"500 619 CURVE",
"518 654 LINE",
"461 683 OFFCURVE",
"391 701 OFFCURVE",
"331 701 CURVE SMOOTH"
);
},
{
closed = 1;
nodes = (
"434 404 OFFCURVE",
"507 336 OFFCURVE",
"507 226 CURVE SMOOTH",
"507 110 OFFCURVE",
"428 39 OFFCURVE",
"315 39 CURVE SMOOTH",
"177 39 OFFCURVE",
"119 144 OFFCURVE",
"119 219 CURVE",
"119 315 OFFCURVE",
"195 404 OFFCURVE",
"323 404 CURVE SMOOTH"
);
}
);
width = 593;
}
);
leftMetricsKey = zero.lf;
},
{
glyphname = seven.osf;
layers = (
{
layerId = "784662A0-BFC3-4940-8AA1-9AA8A3FE0938";
paths = (
{
closed = 1;
nodes = (
"42 599 LINE",
"42 449 LINE",
"81 449 LINE",
"81 558 LINE",
"460 558 LINE",
"156 -100 LINE",
"201 -100 LINE",
"504 558 LINE",
"504 599 LINE"
);
}
);
width = 538;
}
);
},
{
glyphname = eight.osf;
layers = (
{
layerId = "784662A0-BFC3-4940-8AA1-9AA8A3FE0938";
paths = (
{
closed = 1;
nodes = (
"171 700 OFFCURVE",
"89 638 OFFCURVE",
"89 532 CURVE SMOOTH",
"89 453 OFFCURVE",
"135 400 OFFCURVE",
"213 374 CURVE",
"116 349 OFFCURVE",
"56 287 OFFCURVE",
"56 194 CURVE SMOOTH",
"56 71 OFFCURVE",
"150 -1 OFFCURVE",
"303 -1 CURVE SMOOTH",
"456 -1 OFFCURVE",
"550 71 OFFCURVE",
"550 195 CURVE SMOOTH",
"550 287 OFFCURVE",
"491 349 OFFCURVE",
"394 374 CURVE",
"471 400 OFFCURVE",
"517 452 OFFCURVE",
"517 531 CURVE SMOOTH",
"517 638 OFFCURVE",
"436 700 OFFCURVE",
"303 700 CURVE SMOOTH"
);
},
{
closed = 1;
nodes = (
"433 352 OFFCURVE",
"510 293 OFFCURVE",
"510 198 CURVE SMOOTH",
"510 96 OFFCURVE",
"432 37 OFFCURVE",
"304 37 CURVE SMOOTH",
"174 37 OFFCURVE",
"97 97 OFFCURVE",
"97 199 CURVE SMOOTH",
"97 294 OFFCURVE",
"175 352 OFFCURVE",
"303 352 CURVE SMOOTH"
);
},
{
closed = 1;
nodes = (
"414 664 OFFCURVE",
"480 613 OFFCURVE",
"480 528 CURVE SMOOTH",
"480 442 OFFCURVE",
"414 389 OFFCURVE",
"304 389 CURVE SMOOTH",
"194 389 OFFCURVE",
"127 442 OFFCURVE",
"127 528 CURVE SMOOTH",
"127 613 OFFCURVE",
"194 664 OFFCURVE",
"304 664 CURVE SMOOTH"
);
}
);
width = 607;
}
);
},
{
glyphname = zero.tosf;
layers = (
{
layerId = "784662A0-BFC3-4940-8AA1-9AA8A3FE0938";
paths = (
{
closed = 1;
nodes = (
"154 601 OFFCURVE",
"44 476 OFFCURVE",
"44 301 CURVE SMOOTH",
"44 125 OFFCURVE",
"154 -1 OFFCURVE",
"308 -1 CURVE SMOOTH",
"462 -1 OFFCURVE",
"573 125 OFFCURVE",
"573 301 CURVE SMOOTH",
"573 476 OFFCURVE",
"462 601 OFFCURVE",
"308 601 CURVE SMOOTH"
);
},
{
closed = 1;
nodes = (
"438 562 OFFCURVE",
"532 453 OFFCURVE",
"532 301 CURVE SMOOTH",
"532 147 OFFCURVE",
"438 38 OFFCURVE",
"308 38 CURVE SMOOTH",
"179 38 OFFCURVE",
"85 147 OFFCURVE",
"85 301 CURVE SMOOTH",
"85 453 OFFCURVE",
"179 562 OFFCURVE",
"308 562 CURVE SMOOTH"
);
}
);
width = 617;
}
);
userData = {
RMXScaler = {
source = zero.osf;
};
};
},
{
glyphname = one.tosf;
layers = (
{
layerId = "784662A0-BFC3-4940-8AA1-9AA8A3FE0938";
paths = (
{
closed = 1;
nodes = (
"349 0 LINE",
"349 600 LINE",
"129 600 LINE",
"129 559 LINE",
"308 559 LINE",
"308 0 LINE"
);
}
);
width = 617;
}
);
userData = {
RMXScaler = {
source = one.osf;
};
};
},
{
glyphname = two.tosf;
layers = (
{
layerId = "784662A0-BFC3-4940-8AA1-9AA8A3FE0938";
paths = (
{
closed = 1;
nodes = (
"208 609 OFFCURVE",
"126 579 OFFCURVE",
"66 528 CURVE",
"87 495 LINE",
"141 541 OFFCURVE",
"215 569 OFFCURVE",
"283 569 CURVE SMOOTH",
"385 569 OFFCURVE",
"448 528 OFFCURVE",
"448 460 CURVE SMOOTH",
"448 416 OFFCURVE",
"406 354 OFFCURVE",
"340 294 CURVE SMOOTH",
"68 41 LINE",
"68 0 LINE",
"540 0 LINE",
"540 42 LINE",
"117 42 LINE",
"368 269 LINE SMOOTH",
"444 337 OFFCURVE",
"492 409 OFFCURVE",
"492 464 CURVE SMOOTH",
"492 553 OFFCURVE",
"412 609 OFFCURVE",
"285 609 CURVE SMOOTH"
);
}
);
width = 617;
}
);
userData = {
RMXScaler = {
source = two.osf;
};
};
},
{
glyphname = three.tosf;
layers = (
{
layerId = "784662A0-BFC3-4940-8AA1-9AA8A3FE0938";
paths = (
{
closed = 1;
nodes = (
"225 298 LINE",
"490 568 LINE",
"490 600 LINE",
"65 600 LINE",
"65 558 LINE",
"436 558 LINE",
"174 294 LINE",
"174 264 LINE",
"258 264 LINE SMOOTH",
"400 264 OFFCURVE",
"485 211 OFFCURVE",
"485 109 CURVE SMOOTH",
"485 9 OFFCURVE",
"401 -62 OFFCURVE",
"260 -62 CURVE SMOOTH",
"185 -62 OFFCURVE",
"108 -39 OFFCURVE",
"53 -2 CURVE",
"33 -38 LINE",
"93 -76 OFFCURVE",
"178 -101 OFFCURVE",
"261 -101 CURVE SMOOTH",
"425 -101 OFFCURVE",
"526 -14 OFFCURVE",
"526 113 CURVE SMOOTH",
"526 227 OFFCURVE",
"425 295 OFFCURVE",
"271 298 CURVE SMOOTH"
);
}
);
width = 617;
}
);
},
{
glyphname = four.tosf;
layers = (
{
layerId = "784662A0-BFC3-4940-8AA1-9AA8A3FE0938";
paths = (
{
closed = 1;
nodes = (
"329 600 LINE",
"48 140 LINE",
"48 99 LINE",
"408 99 LINE",
"408 -100 LINE",
"448 -100 LINE",
"448 99 LINE",
"566 99 LINE",
"566 141 LINE",
"449 141 LINE",
"448 350 LINE",
"408 350 LINE",
"409 141 LINE",
"92 141 LINE",
"372 600 LINE"
);
}
);
width = 617;
}
);
},
{
glyphname = five.tosf;
layers = (
{
layerId = "784662A0-BFC3-4940-8AA1-9AA8A3FE0938";
paths = (
{
closed = 1;
nodes = (
"105 600 LINE",
"105 255 LINE",
"162 272 OFFCURVE",
"240 284 OFFCURVE",
"293 284 CURVE",
"419 284 OFFCURVE",
"501 221 OFFCURVE",
"501 124 CURVE",
"501 12 OFFCURVE",
"419 -59 OFFCURVE",
"291 -59 CURVE",
"223 -59 OFFCURVE",
"138 -34 OFFCURVE",
"74 7 CURVE",
"56 -28 LINE",
"124 -71 OFFCURVE",
"217 -100 OFFCURVE",
"294 -100 CURVE",
"446 -100 OFFCURVE",
"545 -11 OFFCURVE",
"545 126 CURVE",
"545 244 OFFCURVE",
"448 325 OFFCURVE",
"298 325 CURVE",
"254 325 OFFCURVE",
"193 317 OFFCURVE",
"145 304 CURVE",
"145 559 LINE",
"517 559 LINE",
"517 600 LINE"
);
}
);
width = 617;
}
);
},
{
glyphname = six.tosf;
layers = (
{
layerId = "784662A0-BFC3-4940-8AA1-9AA8A3FE0938";
paths = (
{
closed = 1;
nodes = (
"171 702 OFFCURVE",
"64 555 OFFCURVE",
"64 332 CURVE SMOOTH",
"64 117 OFFCURVE",
"165 -1 OFFCURVE",
"333 -1 CURVE SMOOTH",
"473 -1 OFFCURVE",
"565 84 OFFCURVE",
"565 224 CURVE SMOOTH",
"565 360 OFFCURVE",
"479 443 OFFCURVE",
"340 443 CURVE SMOOTH",
"218 443 OFFCURVE",
"134 381 OFFCURVE",
"108 276 CURVE",
"88 514 OFFCURVE",
"177 662 OFFCURVE",
"348 662 CURVE SMOOTH",
"404 662 OFFCURVE",
"468 646 OFFCURVE",
"518 620 CURVE",
"536 655 LINE",
"478 684 OFFCURVE",
"405 702 OFFCURVE",
"344 702 CURVE SMOOTH"
);
},
{
closed = 1;
nodes = (
"450 405 OFFCURVE",
"524 336 OFFCURVE",
"524 226 CURVE SMOOTH",
"524 110 OFFCURVE",
"443 39 OFFCURVE",
"327 39 CURVE SMOOTH",
"185 39 OFFCURVE",
"125 144 OFFCURVE",
"125 219 CURVE",
"125 315 OFFCURVE",
"204 405 OFFCURVE",
"335 405 CURVE SMOOTH"
);
}
);
width = 617;
}
);
},
{
glyphname = seven.tosf;
layers = (
{
layerId = "784662A0-BFC3-4940-8AA1-9AA8A3FE0938";
paths = (
{
closed = 1;
nodes = (
"61 600 LINE",
"61 450 LINE",
"100 450 LINE",
"100 559 LINE",
"520 559 LINE",
"186 -100 LINE",
"231 -100 LINE",
"563 559 LINE",
"563 600 LINE"
);
}
);
width = 617;
}
);
},
{
glyphname = eight.tosf;
layers = (
{
layerId = "784662A0-BFC3-4940-8AA1-9AA8A3FE0938";
paths = (
{
closed = 1;
nodes = (
"175 702 OFFCURVE",
"92 639 OFFCURVE",
"92 533 CURVE SMOOTH",
"92 454 OFFCURVE",
"139 401 OFFCURVE",
"218 375 CURVE",
"119 350 OFFCURVE",
"59 287 OFFCURVE",
"59 194 CURVE SMOOTH",
"59 71 OFFCURVE",
"154 -1 OFFCURVE",
"309 -1 CURVE SMOOTH",
"463 -1 OFFCURVE",
"558 71 OFFCURVE",
"558 195 CURVE SMOOTH",
"558 287 OFFCURVE",
"498 350 OFFCURVE",
"400 375 CURVE",
"479 401 OFFCURVE",
"525 453 OFFCURVE",
"525 532 CURVE SMOOTH",
"525 638 OFFCURVE",
"443 702 OFFCURVE",
"309 702 CURVE SMOOTH"
);
},
{
closed = 1;
nodes = (
"439 352 OFFCURVE",
"518 293 OFFCURVE",
"518 198 CURVE SMOOTH",
"518 96 OFFCURVE",
"438 37 OFFCURVE",
"309 37 CURVE SMOOTH",
"178 37 OFFCURVE",
"99 97 OFFCURVE",
"99 199 CURVE SMOOTH",
"99 294 OFFCURVE",
"179 352 OFFCURVE",
"308 352 CURVE SMOOTH"
);
},
{
closed = 1;
nodes = (
"420 665 OFFCURVE",
"487 614 OFFCURVE",
"487 529 CURVE SMOOTH",
"487 442 OFFCURVE",
"420 390 OFFCURVE",
"309 390 CURVE SMOOTH",
"198 390 OFFCURVE",
"130 442 OFFCURVE",
"130 529 CURVE SMOOTH",
"130 614 OFFCURVE",
"198 665 OFFCURVE",
"309 665 CURVE SMOOTH"
);
}
);
width = 617;
}
);
},
{
glyphname = nine.tosf;
layers = (
{
layerId = "784662A0-BFC3-4940-8AA1-9AA8A3FE0938";
paths = (
{
closed = 1;
nodes = (
"450 -101 OFFCURVE",
"556 45 OFFCURVE",
"556 268 CURVE SMOOTH",
"556 484 OFFCURVE",
"456 602 OFFCURVE",
"290 602 CURVE SMOOTH",
"151 602 OFFCURVE",
"60 516 OFFCURVE",
"60 376 CURVE SMOOTH",
"60 240 OFFCURVE",
"145 158 OFFCURVE",
"282 158 CURVE SMOOTH",
"403 158 OFFCURVE",
"487 220 OFFCURVE",
"512 324 CURVE",
"532 86 OFFCURVE",
"443 -62 OFFCURVE",
"275 -62 CURVE SMOOTH",
"219 -62 OFFCURVE",
"156 -46 OFFCURVE",
"107 -19 CURVE",
"89 -55 LINE",
"146 -83 OFFCURVE",
"217 -101 OFFCURVE",
"278 -101 CURVE SMOOTH"
);
},
{
closed = 1;
nodes = (
"174 196 OFFCURVE",
"100 264 OFFCURVE",
"100 374 CURVE SMOOTH",
"100 490 OFFCURVE",
"180 561 OFFCURVE",
"295 561 CURVE SMOOTH",
"435 561 OFFCURVE",
"495 456 OFFCURVE",
"495 382 CURVE",
"495 286 OFFCURVE",
"417 196 OFFCURVE",
"287 196 CURVE SMOOTH"
);
}
);
width = 617;
}
);
},
{
glyphname = zero.dnom;
layers = (
{
layerId = "784662A0-BFC3-4940-8AA1-9AA8A3FE0938";
paths = (
{
closed = 1;
nodes = (
"109 408 OFFCURVE",
"47 334 OFFCURVE",
"47 204 CURVE SMOOTH",
"47 73 OFFCURVE",
"109 -1 OFFCURVE",
"218 -1 CURVE SMOOTH",
"328 -1 OFFCURVE",
"390 73 OFFCURVE",
"390 204 CURVE SMOOTH",
"390 334 OFFCURVE",
"328 408 OFFCURVE",
"218 408 CURVE SMOOTH"
);
},
{
closed = 1;
nodes = (
"308 378 OFFCURVE",
"357 316 OFFCURVE",
"357 204 CURVE SMOOTH",
"357 91 OFFCURVE",
"308 30 OFFCURVE",
"219 30 CURVE SMOOTH",
"130 30 OFFCURVE",
"81 91 OFFCURVE",
"81 204 CURVE SMOOTH",
"81 316 OFFCURVE",
"130 378 OFFCURVE",
"219 378 CURVE SMOOTH"
);
}
);
width = 438;
}
);
},
{
glyphname = one.dnom;
layers = (
{
layerId = "784662A0-BFC3-4940-8AA1-9AA8A3FE0938";
paths = (
{
closed = 1;
nodes = (
"148 408 LINE",
"25 408 LINE",
"25 377 LINE",
"113 377 LINE",
"113 0 LINE",
"148 0 LINE"
);
}
);
width = 246;
}
);
},
{
glyphname = two.dnom;
layers = (
{
layerId = "784662A0-BFC3-4940-8AA1-9AA8A3FE0938";
paths = (
{
closed = 1;
nodes = (
"128 409 OFFCURVE",
"78 388 OFFCURVE",
"40 353 CURVE",
"57 327 LINE",
"89 358 OFFCURVE",
"133 377 OFFCURVE",
"172 377 CURVE",
"230 377 OFFCURVE",
"265 350 OFFCURVE",
"265 307 CURVE",
"265 278 OFFCURVE",
"241 237 OFFCURVE",
"203 199 CURVE SMOOTH",
"43 30 LINE",
"43 0 LINE",
"328 0 LINE",
"328 31 LINE",
"85 31 LINE",
"226 180 LINE SMOOTH",
"273 225 OFFCURVE",
"301 273 OFFCURVE",
"301 310 CURVE",
"301 370 OFFCURVE",
"252 409 OFFCURVE",
"176 409 CURVE"
);
}
);
width = 376;
}
);
},
{
glyphname = three.dnom;
layers = (
{
layerId = "784662A0-BFC3-4940-8AA1-9AA8A3FE0938";
paths = (
{
closed = 1;
nodes = (
"136 233 LINE",
"273 383 LINE",
"273 407 LINE",
"38 407 LINE",
"38 378 LINE",
"232 378 LINE",
"96 230 LINE",
"96 207 LINE",
"145 207 LINE SMOOTH",
"216 207 OFFCURVE",
"259 178 OFFCURVE",
"259 123 CURVE SMOOTH",
"259 67 OFFCURVE",
"217 29 OFFCURVE",
"146 29 CURVE SMOOTH",
"106 29 OFFCURVE",
"66 42 OFFCURVE",
"36 66 CURVE",
"20 37 LINE",
"53 14 OFFCURVE",
"102 -1 OFFCURVE",
"148 -1 CURVE SMOOTH",
"237 -1 OFFCURVE",
"293 50 OFFCURVE",
"293 124 CURVE SMOOTH",
"293 191 OFFCURVE",
"240 230 OFFCURVE",
"161 233 CURVE SMOOTH"
);
}
);
width = 342;
}
);
},
{
glyphname = four.dnom;
layers = (
{
layerId = "784662A0-BFC3-4940-8AA1-9AA8A3FE0938";
paths = (
{
closed = 1;
nodes = (
"223 408 LINE",
"188 408 LINE",
"33 143 LINE",
"33 112 LINE",
"236 112 LINE",
"236 0 LINE",
"269 0 LINE",
"269 112 LINE",
"334 112 LINE",
"334 141 LINE",
"269 141 LINE",
"269 261 LINE",
"236 261 LINE",
"236 141 LINE",
"68 141 LINE"
);
}
);
width = 368;
}
);
},
{
glyphname = five.dnom;
layers = (
{
layerId = "784662A0-BFC3-4940-8AA1-9AA8A3FE0938";
paths = (
{
closed = 1;
nodes = (
"302 408 LINE",
"64 408 LINE",
"64 201 LINE",
"96 211 OFFCURVE",
"144 217 OFFCURVE",
"171 217 CURVE",
"239 217 OFFCURVE",
"282 184 OFFCURVE",
"282 130 CURVE",
"282 68 OFFCURVE",
"239 29 OFFCURVE",
"171 29 CURVE",
"133 29 OFFCURVE",
"86 45 OFFCURVE",
"51 71 CURVE",
"36 42 LINE",
"75 17 OFFCURVE",
"129 0 OFFCURVE",
"174 0 CURVE",
"262 0 OFFCURVE",
"318 52 OFFCURVE",
"318 133 CURVE",
"318 202 OFFCURVE",
"263 246 OFFCURVE",
"177 246 CURVE",
"155 246 OFFCURVE",
"122 241 OFFCURVE",
"98 234 CURVE",
"98 377 LINE",
"302 377 LINE"
);
}
);
width = 364;
}
);
},
{
glyphname = six.dnom;
layers = (
{
layerId = "784662A0-BFC3-4940-8AA1-9AA8A3FE0938";
paths = (
{
closed = 1;
nodes = (
"112 409 OFFCURVE",
"47 323 OFFCURVE",
"47 195 CURVE SMOOTH",
"47 68 OFFCURVE",
"108 -1 OFFCURVE",
"208 -1 CURVE SMOOTH",
"292 -1 OFFCURVE",
"347 49 OFFCURVE",
"347 131 CURVE SMOOTH",
"347 210 OFFCURVE",
"296 258 OFFCURVE",
"215 258 CURVE SMOOTH",
"145 258 OFFCURVE",
"97 223 OFFCURVE",
"83 165 CURVE",
"71 298 OFFCURVE",
"123 378 OFFCURVE",
"218 378 CURVE SMOOTH",
"251 378 OFFCURVE",
"288 369 OFFCURVE",
"317 353 CURVE",
"331 381 LINE",
"297 398 OFFCURVE",
"253 409 OFFCURVE",
"216 409 CURVE SMOOTH"
);
},
{
closed = 1;
nodes = (
"273 229 OFFCURVE",
"315 193 OFFCURVE",
"315 133 CURVE SMOOTH",
"315 69 OFFCURVE",
"270 30 OFFCURVE",
"205 30 CURVE SMOOTH",
"128 30 OFFCURVE",
"94 87 OFFCURVE",
"94 128 CURVE",
"94 182 OFFCURVE",
"137 229 OFFCURVE",
"210 229 CURVE SMOOTH"
);
}
);
width = 388;
}
);
},
{
glyphname = seven.dnom;
layers = (
{
layerId = "784662A0-BFC3-4940-8AA1-9AA8A3FE0938";
paths = (
{
closed = 1;
nodes = (
"323 408 LINE",
"38 408 LINE",
"38 314 LINE",
"70 314 LINE",
"70 377 LINE",
"286 377 LINE",
"106 0 LINE",
"143 0 LINE",
"323 377 LINE"
);
}
);
width = 356;
}
);
},
{
glyphname = eight.dnom;
layers = (
{
layerId = "784662A0-BFC3-4940-8AA1-9AA8A3FE0938";
paths = (
{
closed = 1;
nodes = (
"117 409 OFFCURVE",
"67 371 OFFCURVE",
"67 309 CURVE SMOOTH",
"67 264 OFFCURVE",
"94 234 OFFCURVE",
"140 218 CURVE",
"82 203 OFFCURVE",
"47 166 OFFCURVE",
"47 113 CURVE SMOOTH",
"47 41 OFFCURVE",
"104 -1 OFFCURVE",
"199 -1 CURVE SMOOTH",
"293 -1 OFFCURVE",
"350 41 OFFCURVE",
"350 114 CURVE SMOOTH",
"350 166 OFFCURVE",
"316 203 OFFCURVE",
"258 218 CURVE",
"303 234 OFFCURVE",
"330 264 OFFCURVE",
"330 308 CURVE SMOOTH",
"330 371 OFFCURVE",
"279 409 OFFCURVE",
"199 409 CURVE SMOOTH"
);
},
{
closed = 1;
nodes = (
"273 201 OFFCURVE",
"317 169 OFFCURVE",
"317 116 CURVE SMOOTH",
"317 60 OFFCURVE",
"272 28 OFFCURVE",
"199 28 CURVE SMOOTH",
"124 28 OFFCURVE",
"80 61 OFFCURVE",
"80 117 CURVE SMOOTH",
"80 169 OFFCURVE",
"125 201 OFFCURVE",
"198 201 CURVE SMOOTH"
);
},
{
closed = 1;
nodes = (
"262 382 OFFCURVE",
"300 353 OFFCURVE",
"300 306 CURVE SMOOTH",
"300 258 OFFCURVE",
"262 230 OFFCURVE",
"199 230 CURVE SMOOTH",
"135 230 OFFCURVE",
"97 258 OFFCURVE",
"97 306 CURVE SMOOTH",
"97 353 OFFCURVE",
"135 382 OFFCURVE",
"199 382 CURVE SMOOTH"
);
}
);
width = 396;
}
);
},
{
glyphname = nine.dnom;
layers = (
{
layerId = "784662A0-BFC3-4940-8AA1-9AA8A3FE0938";
paths = (
{
closed = 1;
nodes = (
"281 -1 OFFCURVE",
"346 84 OFFCURVE",
"346 213 CURVE SMOOTH",
"346 339 OFFCURVE",
"286 409 OFFCURVE",
"185 409 CURVE SMOOTH",
"101 409 OFFCURVE",
"46 358 OFFCURVE",
"46 276 CURVE SMOOTH",
"46 198 OFFCURVE",
"97 149 OFFCURVE",
"178 149 CURVE SMOOTH",
"249 149 OFFCURVE",
"296 185 OFFCURVE",
"311 243 CURVE",
"323 109 OFFCURVE",
"271 29 OFFCURVE",
"175 29 CURVE SMOOTH",
"142 29 OFFCURVE",
"105 38 OFFCURVE",
"77 54 CURVE",
"62 27 LINE",
"97 10 OFFCURVE",
"140 -1 OFFCURVE",
"178 -1 CURVE SMOOTH"
);
},
{
closed = 1;
nodes = (
"120 178 OFFCURVE",
"79 215 OFFCURVE",
"79 275 CURVE SMOOTH",
"79 338 OFFCURVE",
"123 377 OFFCURVE",
"188 377 CURVE SMOOTH",
"266 377 OFFCURVE",
"299 320 OFFCURVE",
"299 279 CURVE",
"299 226 OFFCURVE",
"257 178 OFFCURVE",
"183 178 CURVE SMOOTH"
);
}
);
width = 393;
}
);
},
{
glyphname = zero.numr;
layers = (
{
layerId = "784662A0-BFC3-4940-8AA1-9AA8A3FE0938";
paths = (
{
closed = 1;
nodes = (
"109 700 OFFCURVE",
"47 625 OFFCURVE",
"47 495 CURVE SMOOTH",
"47 364 OFFCURVE",
"109 291 OFFCURVE",
"218 291 CURVE SMOOTH",
"328 291 OFFCURVE",
"390 364 OFFCURVE",
"390 495 CURVE SMOOTH",
"390 625 OFFCURVE",
"328 700 OFFCURVE",
"218 700 CURVE SMOOTH"
);
},
{
closed = 1;
nodes = (
"308 669 OFFCURVE",
"357 608 OFFCURVE",
"357 495 CURVE SMOOTH",
"357 383 OFFCURVE",
"308 321 OFFCURVE",
"219 321 CURVE SMOOTH",
"130 321 OFFCURVE",
"81 383 OFFCURVE",
"81 495 CURVE SMOOTH",
"81 608 OFFCURVE",
"130 669 OFFCURVE",
"219 669 CURVE SMOOTH"
);
}
);
width = 438;
}
);
},
{
glyphname = one.numr;
layers = (
{
layerId = "784662A0-BFC3-4940-8AA1-9AA8A3FE0938";
paths = (
{
closed = 1;
nodes = (
"148 699 LINE",
"25 699 LINE",
"25 668 LINE",
"113 668 LINE",
"113 291 LINE",
"148 291 LINE"
);
}
);
width = 246;
}
);
},
{
glyphname = two.numr;
layers = (
{
layerId = "784662A0-BFC3-4940-8AA1-9AA8A3FE0938";
paths = (
{
closed = 1;
nodes = (
"128 700 OFFCURVE",
"78 679 OFFCURVE",
"40 644 CURVE",
"57 618 LINE",
"89 649 OFFCURVE",
"133 668 OFFCURVE",
"172 668 CURVE",
"230 668 OFFCURVE",
"265 642 OFFCURVE",
"265 598 CURVE",
"265 569 OFFCURVE",
"241 528 OFFCURVE",
"203 490 CURVE SMOOTH",
"43 321 LINE",
"43 291 LINE",
"328 291 LINE",
"328 322 LINE",
"85 322 LINE",
"226 471 LINE SMOOTH",
"273 516 OFFCURVE",
"301 564 OFFCURVE",
"301 602 CURVE",
"301 662 OFFCURVE",
"252 700 OFFCURVE",
"176 700 CURVE"
);
}
);
width = 376;
}
);
},
{
glyphname = three.numr;
layers = (
{
layerId = "784662A0-BFC3-4940-8AA1-9AA8A3FE0938";
paths = (
{
closed = 1;
nodes = (
"136 525 LINE",
"273 675 LINE",
"273 698 LINE",
"38 698 LINE",
"38 669 LINE",
"232 669 LINE",
"96 521 LINE",
"96 498 LINE",
"145 498 LINE SMOOTH",
"216 498 OFFCURVE",
"259 469 OFFCURVE",
"259 414 CURVE SMOOTH",
"259 359 OFFCURVE",
"217 320 OFFCURVE",
"146 320 CURVE SMOOTH",
"106 320 OFFCURVE",
"66 334 OFFCURVE",
"36 357 CURVE",
"20 328 LINE",
"53 306 OFFCURVE",
"102 291 OFFCURVE",
"148 291 CURVE SMOOTH",
"237 291 OFFCURVE",
"293 342 OFFCURVE",
"293 416 CURVE SMOOTH",
"293 482 OFFCURVE",
"240 522 OFFCURVE",
"161 524 CURVE SMOOTH"
);
}
);
width = 342;
}
);
},
{
glyphname = four.numr;
layers = (
{
layerId = "784662A0-BFC3-4940-8AA1-9AA8A3FE0938";
paths = (
{
closed = 1;
nodes = (
"223 699 LINE",
"188 699 LINE",
"33 434 LINE",
"33 403 LINE",
"236 403 LINE",
"236 291 LINE",
"269 291 LINE",
"269 403 LINE",
"334 403 LINE",
"334 432 LINE",
"269 432 LINE",
"269 552 LINE",
"236 552 LINE",
"236 432 LINE",
"68 432 LINE"
);
}
);
width = 368;
}
);
},
{
glyphname = five.numr;
layers = (
{
layerId = "784662A0-BFC3-4940-8AA1-9AA8A3FE0938";
paths = (
{
closed = 1;
nodes = (
"302 699 LINE",
"64 699 LINE",
"64 492 LINE",
"96 503 OFFCURVE",
"144 509 OFFCURVE",
"171 509 CURVE",
"239 509 OFFCURVE",
"282 475 OFFCURVE",
"282 422 CURVE",
"282 360 OFFCURVE",
"239 321 OFFCURVE",
"171 321 CURVE",
"133 321 OFFCURVE",
"86 336 OFFCURVE",
"51 363 CURVE",
"36 334 LINE",
"75 308 OFFCURVE",
"129 291 OFFCURVE",
"174 291 CURVE",
"262 291 OFFCURVE",
"318 344 OFFCURVE",
"318 424 CURVE",
"318 493 OFFCURVE",
"263 538 OFFCURVE",
"177 538 CURVE",
"155 538 OFFCURVE",
"122 533 OFFCURVE",
"98 525 CURVE",
"98 668 LINE",
"302 668 LINE"
);
}
);
width = 364;
}
);
},
{
glyphname = six.numr;
layers = (
{
layerId = "784662A0-BFC3-4940-8AA1-9AA8A3FE0938";
paths = (
{
closed = 1;
nodes = (
"112 700 OFFCURVE",
"47 615 OFFCURVE",
"47 486 CURVE SMOOTH",
"47 360 OFFCURVE",
"108 291 OFFCURVE",
"208 291 CURVE SMOOTH",
"292 291 OFFCURVE",
"347 341 OFFCURVE",
"347 422 CURVE SMOOTH",
"347 501 OFFCURVE",
"296 550 OFFCURVE",
"215 550 CURVE SMOOTH",
"145 550 OFFCURVE",
"97 514 OFFCURVE",
"83 456 CURVE",
"71 589 OFFCURVE",
"123 669 OFFCURVE",
"218 669 CURVE SMOOTH",
"251 669 OFFCURVE",
"288 660 OFFCURVE",
"317 645 CURVE",
"331 673 LINE",
"297 689 OFFCURVE",
"253 700 OFFCURVE",
"216 700 CURVE SMOOTH"
);
},
{
closed = 1;
nodes = (
"273 521 OFFCURVE",
"315 484 OFFCURVE",
"315 424 CURVE SMOOTH",
"315 360 OFFCURVE",
"270 321 OFFCURVE",
"205 321 CURVE SMOOTH",
"128 321 OFFCURVE",
"94 378 OFFCURVE",
"94 419 CURVE",
"94 473 OFFCURVE",
"137 521 OFFCURVE",
"210 521 CURVE SMOOTH"
);
}
);
width = 388;
}
);
},
{
glyphname = seven.numr;
layers = (
{
layerId = "784662A0-BFC3-4940-8AA1-9AA8A3FE0938";
paths = (
{
closed = 1;
nodes = (
"323 699 LINE",
"38 699 LINE",
"38 605 LINE",
"70 605 LINE",
"70 668 LINE",
"286 668 LINE",
"106 291 LINE",
"143 291 LINE",
"323 669 LINE"
);
}
);
width = 356;
}
);
},
{
glyphname = eight.numr;
layers = (
{
layerId = "784662A0-BFC3-4940-8AA1-9AA8A3FE0938";
paths = (
{
closed = 1;
nodes = (
"117 700 OFFCURVE",
"67 663 OFFCURVE",
"67 601 CURVE SMOOTH",
"67 556 OFFCURVE",
"94 525 OFFCURVE",
"140 509 CURVE",
"82 495 OFFCURVE",
"47 458 OFFCURVE",
"47 405 CURVE SMOOTH",
"47 333 OFFCURVE",
"104 291 OFFCURVE",
"199 291 CURVE SMOOTH",
"293 291 OFFCURVE",
"350 333 OFFCURVE",
"350 405 CURVE SMOOTH",
"350 458 OFFCURVE",
"316 495 OFFCURVE",
"258 509 CURVE",
"303 525 OFFCURVE",
"330 555 OFFCURVE",
"330 599 CURVE SMOOTH",
"330 663 OFFCURVE",
"279 700 OFFCURVE",
"199 700 CURVE SMOOTH"
);
},
{
closed = 1;
nodes = (
"273 492 OFFCURVE",
"317 460 OFFCURVE",
"317 408 CURVE SMOOTH",
"317 352 OFFCURVE",
"272 320 OFFCURVE",
"199 320 CURVE SMOOTH",
"124 320 OFFCURVE",
"80 352 OFFCURVE",
"80 409 CURVE SMOOTH",
"80 460 OFFCURVE",
"125 492 OFFCURVE",
"198 492 CURVE SMOOTH"
);
},
{
closed = 1;
nodes = (
"262 673 OFFCURVE",
"300 645 OFFCURVE",
"300 598 CURVE SMOOTH",
"300 550 OFFCURVE",
"262 521 OFFCURVE",
"199 521 CURVE SMOOTH",
"135 521 OFFCURVE",
"97 550 OFFCURVE",
"97 598 CURVE SMOOTH",
"97 645 OFFCURVE",
"135 673 OFFCURVE",
"199 673 CURVE SMOOTH"
);
}
);
width = 396;
}
);
},
{
glyphname = nine.numr;
layers = (
{
layerId = "784662A0-BFC3-4940-8AA1-9AA8A3FE0938";
paths = (
{
closed = 1;
nodes = (
"281 291 OFFCURVE",
"346 376 OFFCURVE",
"346 505 CURVE SMOOTH",
"346 630 OFFCURVE",
"286 700 OFFCURVE",
"185 700 CURVE SMOOTH",
"101 700 OFFCURVE",
"46 650 OFFCURVE",
"46 568 CURVE SMOOTH",
"46 489 OFFCURVE",
"97 440 OFFCURVE",
"178 440 CURVE SMOOTH",
"249 440 OFFCURVE",
"296 476 OFFCURVE",
"311 534 CURVE",
"323 401 OFFCURVE",
"271 321 OFFCURVE",
"175 321 CURVE SMOOTH",
"142 321 OFFCURVE",
"105 330 OFFCURVE",
"77 346 CURVE",
"62 318 LINE",
"97 301 OFFCURVE",
"140 291 OFFCURVE",
"178 291 CURVE SMOOTH"
);
},
{
closed = 1;
nodes = (
"120 469 OFFCURVE",
"79 506 OFFCURVE",
"79 567 CURVE SMOOTH",
"79 630 OFFCURVE",
"123 669 OFFCURVE",
"188 669 CURVE SMOOTH",
"266 669 OFFCURVE",
"299 612 OFFCURVE",
"299 570 CURVE",
"299 517 OFFCURVE",
"257 469 OFFCURVE",
"183 469 CURVE SMOOTH"
);
}
);
width = 393;
}
);
},
{
glyphname = onesuperior;
layers = (
{
layerId = "784662A0-BFC3-4940-8AA1-9AA8A3FE0938";
paths = (
{
closed = 1;
nodes = (
"148 699 LINE",
"25 699 LINE",
"25 668 LINE",
"113 668 LINE",
"113 291 LINE",
"148 291 LINE"
);
}
);
width = 246;
}
);
unicode = 00B9;
},
{
glyphname = twosuperior;
layers = (
{
layerId = "784662A0-BFC3-4940-8AA1-9AA8A3FE0938";
paths = (
{
closed = 1;
nodes = (
"128 700 OFFCURVE",
"78 679 OFFCURVE",
"40 644 CURVE",
"57 618 LINE",
"89 649 OFFCURVE",
"133 668 OFFCURVE",
"172 668 CURVE",
"230 668 OFFCURVE",
"265 642 OFFCURVE",
"265 598 CURVE",
"265 569 OFFCURVE",
"241 528 OFFCURVE",
"203 490 CURVE SMOOTH",
"43 321 LINE",
"43 291 LINE",
"328 291 LINE",
"328 322 LINE",
"85 322 LINE",
"226 471 LINE SMOOTH",
"273 516 OFFCURVE",
"301 564 OFFCURVE",
"301 602 CURVE",
"301 662 OFFCURVE",
"252 700 OFFCURVE",
"176 700 CURVE"
);
}
);
width = 376;
}
);
unicode = 00B2;
},
{
glyphname = threesuperior;
layers = (
{
layerId = "784662A0-BFC3-4940-8AA1-9AA8A3FE0938";
paths = (
{
closed = 1;
nodes = (
"136 525 LINE",
"273 675 LINE",
"273 698 LINE",
"38 698 LINE",
"38 669 LINE",
"232 669 LINE",
"96 521 LINE",
"96 498 LINE",
"145 498 LINE SMOOTH",
"216 498 OFFCURVE",
"259 469 OFFCURVE",
"259 414 CURVE SMOOTH",
"259 359 OFFCURVE",
"217 320 OFFCURVE",
"146 320 CURVE SMOOTH",
"106 320 OFFCURVE",
"66 334 OFFCURVE",
"36 357 CURVE",
"20 328 LINE",
"53 306 OFFCURVE",
"102 291 OFFCURVE",
"148 291 CURVE SMOOTH",
"237 291 OFFCURVE",
"293 342 OFFCURVE",
"293 416 CURVE SMOOTH",
"293 482 OFFCURVE",
"240 522 OFFCURVE",
"161 524 CURVE SMOOTH"
);
}
);
width = 342;
}
);
unicode = 00B3;
},
{
glyphname = fraction;
layers = (
{
layerId = "784662A0-BFC3-4940-8AA1-9AA8A3FE0938";
paths = (
{
closed = 1;
nodes = (
"298 699 LINE",
"253 699 LINE",
"-280 0 LINE",
"-235 0 LINE"
);
}
);
width = 33;
}
);
unicode = 2044;
},
{
glyphname = "zero-gurmukhi";
layers = (
{
layerId = "784662A0-BFC3-4940-8AA1-9AA8A3FE0938";
paths = (
{
closed = 1;
nodes = (
"537 41 OFFCURVE",
"660 169 OFFCURVE",
"660 340 CURVE SMOOTH",
"660 511 OFFCURVE",
"536 640 OFFCURVE",
"364 640 CURVE SMOOTH",
"192 640 OFFCURVE",
"69 512 OFFCURVE",
"69 342 CURVE SMOOTH",
"69 170 OFFCURVE",
"192 41 OFFCURVE",
"365 41 CURVE SMOOTH"
);
},
{
closed = 1;
nodes = (
"218 81 OFFCURVE",
"110 186 OFFCURVE",
"110 340 CURVE SMOOTH",
"110 495 OFFCURVE",
"219 601 OFFCURVE",
"365 601 CURVE SMOOTH",
"511 601 OFFCURVE",
"619 496 OFFCURVE",
"619 341 CURVE SMOOTH",
"619 186 OFFCURVE",
"510 81 OFFCURVE",
"364 81 CURVE SMOOTH"
);
}
);
width = 729;
}
);
unicode = 0A66;
},
{
glyphname = "one-gurmukhi";
layers = (
{
layerId = "784662A0-BFC3-4940-8AA1-9AA8A3FE0938";
paths = (
{
closed = 1;
nodes = (
"496 0 LINE",
"496 446 LINE SMOOTH",
"496 577 OFFCURVE",
"413 685 OFFCURVE",
"266 685 CURVE SMOOTH",
"132 685 OFFCURVE",
"58 596 OFFCURVE",
"58 495 CURVE SMOOTH",
"58 394 OFFCURVE",
"135 303 OFFCURVE",
"267 303 CURVE SMOOTH",
"347 303 OFFCURVE",
"425 337 OFFCURVE",
"476 420 CURVE",
"456 406 LINE",
"456 0 LINE"
);
},
{
closed = 1;
nodes = (
"156 342 OFFCURVE",
"97 415 OFFCURVE",
"97 494 CURVE SMOOTH",
"97 572 OFFCURVE",
"156 645 OFFCURVE",
"269 645 CURVE SMOOTH",
"402 645 OFFCURVE",
"468 542 OFFCURVE",
"456 423 CURVE",
"470 485 LINE",
"436 397 OFFCURVE",
"360 342 OFFCURVE",
"266 342 CURVE SMOOTH"
);
}
);
width = 608;
}
);
unicode = 0A67;
},
{
glyphname = "two-gurmukhi";
layers = (
{
layerId = "784662A0-BFC3-4940-8AA1-9AA8A3FE0938";
paths = (
{
closed = 1;
nodes = (
"537 4 LINE",
"536 128 OFFCURVE",
"467 238 OFFCURVE",
"345 279 CURVE",
"350 265 LINE",
"484 284 OFFCURVE",
"549 374 OFFCURVE",
"549 469 CURVE SMOOTH",
"549 583 OFFCURVE",
"457 685 OFFCURVE",
"295 685 CURVE SMOOTH",
"219 685 OFFCURVE",
"135 667 OFFCURVE",
"69 632 CURVE",
"86 596 LINE",
"141 624 OFFCURVE",
"215 645 OFFCURVE",
"298 645 CURVE SMOOTH",
"436 645 OFFCURVE",
"511 560 OFFCURVE",
"511 469 CURVE SMOOTH",
"511 378 OFFCURVE",
"435 289 OFFCURVE",
"276 292 CURVE",
"341 287 LINE",
"307 302 OFFCURVE",
"252 306 OFFCURVE",
"198 306 CURVE SMOOTH",
"171 306 OFFCURVE",
"133 305 OFFCURVE",
"95 298 CURVE",
"96 259 LINE",
"132 254 OFFCURVE",
"170 251 OFFCURVE",
"212 251 CURVE SMOOTH",
"252 251 OFFCURVE",
"301 254 OFFCURVE",
"340 258 CURVE",
"279 261 LINE",
"418 245 OFFCURVE",
"496 136 OFFCURVE",
"496 6 CURVE",
"496 0 LINE",
"537 0 LINE"
);
}
);
width = 623;
}
);
unicode = 0A68;
},
{
glyphname = "three-gurmukhi";
layers = (
{
layerId = "784662A0-BFC3-4940-8AA1-9AA8A3FE0938";
paths = (
{
closed = 1;
nodes = (
"232 -118 LINE",
"235 12 LINE",
"202 12 LINE",
"232 -1 OFFCURVE",
"267 -2 OFFCURVE",
"291 -2 CURVE SMOOTH",
"456 -2 OFFCURVE",
"551 79 OFFCURVE",
"551 188 CURVE SMOOTH",
"551 271 OFFCURVE",
"494 358 OFFCURVE",
"354 367 CURVE",
"368 356 LINE",
"505 374 OFFCURVE",
"550 445 OFFCURVE",
"550 512 CURVE SMOOTH",
"550 613 OFFCURVE",
"454 685 OFFCURVE",
"299 685 CURVE SMOOTH",
"223 685 OFFCURVE",
"137 667 OFFCURVE",
"72 632 CURVE",
"89 596 LINE",
"142 624 OFFCURVE",
"217 645 OFFCURVE",
"299 645 CURVE SMOOTH",
"433 645 OFFCURVE",
"510 591 OFFCURVE",
"510 512 CURVE SMOOTH",
"510 450 OFFCURVE",
"463 381 OFFCURVE",
"286 382 CURVE",
"362 378 LINE",
"328 391 OFFCURVE",
"267 392 OFFCURVE",
"209 392 CURVE SMOOTH",
"188 392 OFFCURVE",
"157 392 OFFCURVE",
"127 387 CURVE",
"128 348 LINE",
"160 343 OFFCURVE",
"191 340 OFFCURVE",
"226 340 CURVE SMOOTH",
"265 340 OFFCURVE",
"316 344 OFFCURVE",
"350 348 CURVE",
"272 347 LINE",
"461 352 OFFCURVE",
"511 264 OFFCURVE",
"511 192 CURVE SMOOTH",
"511 96 OFFCURVE",
"420 36 OFFCURVE",
"296 36 CURVE SMOOTH",
"258 36 OFFCURVE",
"223 41 OFFCURVE",
"190 49 CURVE",
"234 28 LINE",
"192 73 OFFCURVE",
"151 87 OFFCURVE",
"88 92 CURVE",
"78 58 LINE",
"110 35 OFFCURVE",
"151 19 OFFCURVE",
"194 9 CURVE",
"192 -109 LINE",
"192 -118 LINE"
);
}
);
width = 624;
}
);
unicode = 0A69;
},
{
glyphname = "four-gurmukhi";
layers = (
{
layerId = "784662A0-BFC3-4940-8AA1-9AA8A3FE0938";
paths = (
{
closed = 1;
nodes = (
"484 -1 OFFCURVE",
"577 76 OFFCURVE",
"577 179 CURVE SMOOTH",
"577 262 OFFCURVE",
"512 324 OFFCURVE",
"403 342 CURVE",
"403 326 LINE",
"522 344 OFFCURVE",
"596 410 OFFCURVE",
"596 506 CURVE SMOOTH",
"596 598 OFFCURVE",
"526 669 OFFCURVE",
"414 684 CURVE",
"410 645 LINE",
"502 632 OFFCURVE",
"555 577 OFFCURVE",
"555 505 CURVE SMOOTH",
"555 415 OFFCURVE",
"469 358 OFFCURVE",
"334 358 CURVE SMOOTH",
"199 358 OFFCURVE",
"113 414 OFFCURVE",
"113 505 CURVE SMOOTH",
"113 579 OFFCURVE",
"171 633 OFFCURVE",
"263 645 CURVE",
"258 684 LINE",
"142 670 OFFCURVE",
"72 600 OFFCURVE",
"72 507 CURVE SMOOTH",
"72 415 OFFCURVE",
"146 350 OFFCURVE",
"267 333 CURVE",
"264 348 LINE",
"158 330 OFFCURVE",
"93 267 OFFCURVE",
"93 180 CURVE SMOOTH",
"93 77 OFFCURVE",
"186 -1 OFFCURVE",
"335 -1 CURVE SMOOTH"
);
},
{
closed = 1;
nodes = (
"208 35 OFFCURVE",
"133 101 OFFCURVE",
"133 181 CURVE SMOOTH",
"133 262 OFFCURVE",
"208 322 OFFCURVE",
"334 322 CURVE SMOOTH",
"459 322 OFFCURVE",
"536 262 OFFCURVE",
"536 181 CURVE SMOOTH",
"536 100 OFFCURVE",
"459 35 OFFCURVE",
"334 35 CURVE SMOOTH"
);
}
);
width = 668;
}
);
unicode = 0A6A;
},
{
glyphname = "five-gurmukhi";
layers = (
{
layerId = "784662A0-BFC3-4940-8AA1-9AA8A3FE0938";
paths = (
{
closed = 1;
nodes = (
"387 165 OFFCURVE",
"473 186 OFFCURVE",
"529 223 CURVE",
"524 277 LINE",
"471 226 OFFCURVE",
"381 205 OFFCURVE",
"304 205 CURVE SMOOTH",
"175 205 OFFCURVE",
"114 263 OFFCURVE",
"98 335 CURVE",
"91 310 LINE",
"160 355 OFFCURVE",
"198 428 OFFCURVE",
"198 515 CURVE SMOOTH",
"198 571 OFFCURVE",
"183 637 OFFCURVE",
"154 682 CURVE",
"118 674 LINE",
"122 665 LINE",
"146 627 OFFCURVE",
"158 571 OFFCURVE",
"158 524 CURVE SMOOTH",
"158 447 OFFCURVE",
"126 379 OFFCURVE",
"61 336 CURVE",
"83 228 OFFCURVE",
"165 165 OFFCURVE",
"306 165 CURVE SMOOTH"
);
},
{
closed = 1;
nodes = (
"554 0 LINE",
"554 682 LINE",
"513 682 LINE",
"513 0 LINE"
);
}
);
width = 665;
}
);
unicode = 0A6B;
},
{
glyphname = "six-gurmukhi";
layers = (
{
layerId = "784662A0-BFC3-4940-8AA1-9AA8A3FE0938";
paths = (
{
closed = 1;
nodes = (
"425 -5 OFFCURVE",
"494 16 OFFCURVE",
"534 37 CURVE",
"521 74 LINE",
"467 50 OFFCURVE",
"403 35 OFFCURVE",
"341 35 CURVE SMOOTH",
"208 35 OFFCURVE",
"111 94 OFFCURVE",
"111 189 CURVE SMOOTH",
"111 261 OFFCURVE",
"166 347 OFFCURVE",
"374 343 CURVE",
"293 347 LINE",
"320 340 OFFCURVE",
"367 337 OFFCURVE",
"397 337 CURVE SMOOTH",
"434 337 OFFCURVE",
"463 341 OFFCURVE",
"494 345 CURVE",
"495 384 LINE",
"464 389 OFFCURVE",
"431 390 OFFCURVE",
"409 390 CURVE SMOOTH",
"355 390 OFFCURVE",
"301 387 OFFCURVE",
"271 375 CURVE",
"346 378 LINE",
"161 380 OFFCURVE",
"112 448 OFFCURVE",
"112 508 CURVE SMOOTH",
"112 588 OFFCURVE",
"196 643 OFFCURVE",
"338 643 CURVE SMOOTH",
"370 643 OFFCURVE",
"396 640 OFFCURVE",
"421 635 CURVE",
"376 657 LINE",
"397 630 OFFCURVE",
"430 612 OFFCURVE",
"473 604 CURVE SMOOTH",
"489 601 OFFCURVE",
"505 599 OFFCURVE",
"522 599 CURVE",
"533 635 LINE",
"482 660 OFFCURVE",
"431 675 OFFCURVE",
"378 681 CURVE",
"429 659 LINE",
"400 675 OFFCURVE",
"380 703 OFFCURVE",
"380 740 CURVE SMOOTH",
"380 809 OFFCURVE",
"435 842 OFFCURVE",
"487 842 CURVE SMOOTH",
"507 842 OFFCURVE",
"528 838 OFFCURVE",
"545 827 CURVE",
"560 860 LINE",
"540 874 OFFCURVE",
"514 881 OFFCURVE",
"487 881 CURVE SMOOTH",
"418 881 OFFCURVE",
"345 835 OFFCURVE",
"345 742 CURVE SMOOTH",
"345 715 OFFCURVE",
"354 688 OFFCURVE",
"371 665 CURVE",
"391 675 LINE",
"371 679 OFFCURVE",
"348 682 OFFCURVE",
"325 682 CURVE SMOOTH",
"165 679 OFFCURVE",
"73 605 OFFCURVE",
"73 514 CURVE SMOOTH",
"73 446 OFFCURVE",
"127 365 OFFCURVE",
"296 356 CURVE",
"290 367 LINE",
"136 360 OFFCURVE",
"72 272 OFFCURVE",
"72 188 CURVE SMOOTH",
"72 74 OFFCURVE",
"187 -5 OFFCURVE",
"349 -5 CURVE SMOOTH"
);
}
);
width = 615;
}
);
unicode = 0A6C;
},
{
glyphname = "seven-gurmukhi";
layers = (
{
layerId = "784662A0-BFC3-4940-8AA1-9AA8A3FE0938";
paths = (
{
closed = 1;
nodes = (
"218 685 OFFCURVE",
"146 591 OFFCURVE",
"146 496 CURVE SMOOTH",
"146 446 OFFCURVE",
"166 396 OFFCURVE",
"206 360 CURVE",
"238 381 LINE",
"204 409 OFFCURVE",
"187 453 OFFCURVE",
"187 495 CURVE SMOOTH",
"187 571 OFFCURVE",
"244 644 OFFCURVE",
"352 644 CURVE SMOOTH",
"481 644 OFFCURVE",
"544 538 OFFCURVE",
"544 376 CURVE SMOOTH",
"544 150 OFFCURVE",
"419 37 OFFCURVE",
"225 37 CURVE SMOOTH",
"167 37 OFFCURVE",
"113 48 OFFCURVE",
"62 69 CURVE",
"50 32 LINE",
"88 14 OFFCURVE",
"150 -2 OFFCURVE",
"227 -2 CURVE SMOOTH",
"449 -2 OFFCURVE",
"584 131 OFFCURVE",
"584 374 CURVE SMOOTH",
"584 560 OFFCURVE",
"504 685 OFFCURVE",
"351 685 CURVE SMOOTH"
);
}
);
width = 637;
}
);
unicode = 0A6D;
},
{
glyphname = "eight-gurmukhi";
layers = (
{
layerId = "784662A0-BFC3-4940-8AA1-9AA8A3FE0938";
paths = (
{
closed = 1;
nodes = (
"527 -2 OFFCURVE",
"583 14 OFFCURVE",
"616 31 CURVE",
"604 68 LINE",
"558 49 OFFCURVE",
"506 37 OFFCURVE",
"453 37 CURVE SMOOTH",
"306 37 OFFCURVE",
"212 119 OFFCURVE",
"212 268 CURVE SMOOTH",
"212 500 LINE",
"605 500 LINE",
"604 539 LINE",
"202 539 LINE",
"174 562 OFFCURVE",
"146 567 OFFCURVE",
"78 572 CURVE",
"67 538 LINE",
"95 520 OFFCURVE",
"130 504 OFFCURVE",
"173 501 CURVE",
"173 270 LINE SMOOTH",
"173 106 OFFCURVE",
"280 -2 OFFCURVE",
"456 -2 CURVE SMOOTH"
);
}
);
width = 688;
}
);
unicode = 0A6E;
},
{
glyphname = "nine-gurmukhi";
layers = (
{
components = (
{
name = "eight-gurmukhi";
}
);
layerId = "784662A0-BFC3-4940-8AA1-9AA8A3FE0938";
paths = (
{
closed = 1;
nodes = (
"573 489 OFFCURVE",
"598 493 OFFCURVE",
"619 502 CURVE",
"604 539 LINE",
"587 532 OFFCURVE",
"566 529 OFFCURVE",
"545 529 CURVE SMOOTH",
"493 529 OFFCURVE",
"439 566 OFFCURVE",
"438 644 CURVE SMOOTH",
"439 719 OFFCURVE",
"493 753 OFFCURVE",
"545 753 CURVE SMOOTH",
"565 753 OFFCURVE",
"586 749 OFFCURVE",
"602 738 CURVE",
"618 771 LINE",
"597 785 OFFCURVE",
"571 792 OFFCURVE",
"545 792 CURVE SMOOTH",
"475 792 OFFCURVE",
"402 743 OFFCURVE",
"402 645 CURVE SMOOTH",
"402 541 OFFCURVE",
"477 489 OFFCURVE",
"547 489 CURVE SMOOTH"
);
}
);
width = 691;
}
);
leftMetricsKey = "eight-gurmukhi";
unicode = 0A6F;
},
{
glyphname = asterisk;
layers = (
{
layerId = "784662A0-BFC3-4940-8AA1-9AA8A3FE0938";
paths = (
{
closed = 1;
nodes = (
"280 528 LINE",
"181 584 LINE",
"280 640 LINE",
"266 666 LINE",
"168 609 LINE",
"168 722 LINE",
"141 722 LINE",
"141 609 LINE",
"43 666 LINE",
"29 640 LINE",
"127 584 LINE",
"29 528 LINE",
"43 501 LINE",
"141 558 LINE",
"141 445 LINE",
"168 445 LINE",
"168 558 LINE",
"266 501 LINE"
);
}
);
width = 309;
}
);
unicode = 002A;
},
{
glyphname = bullet;
layers = (
{
layerId = "784662A0-BFC3-4940-8AA1-9AA8A3FE0938";
paths = (
{
closed = 1;
nodes = (
"79 325 OFFCURVE",
"56 301 OFFCURVE",
"56 272 CURVE SMOOTH",
"56 242 OFFCURVE",
"79 219 OFFCURVE",
"107 219 CURVE SMOOTH",
"135 219 OFFCURVE",
"158 242 OFFCURVE",
"158 272 CURVE SMOOTH",
"158 301 OFFCURVE",
"135 325 OFFCURVE",
"107 325 CURVE SMOOTH"
);
}
);
width = 214;
}
);
leftMetricsKey = period;
rightMetricsKey = period;
unicode = 2022;
},
{
glyphname = comma;
layers = (
{
layerId = "784662A0-BFC3-4940-8AA1-9AA8A3FE0938";
paths = (
{
closed = 1;
nodes = (
"49 -61 LINE",
"78 -61 LINE",
"114 -4 LINE SMOOTH",
"121 7 OFFCURVE",
"126 16 OFFCURVE",
"126 28 CURVE SMOOTH",
"126 49 OFFCURVE",
"110 64 OFFCURVE",
"92 64 CURVE SMOOTH",
"74 64 OFFCURVE",
"58 49 OFFCURVE",
"58 28 CURVE SMOOTH",
"58 11 OFFCURVE",
"69 -5 OFFCURVE",
"89 -7 CURVE",
"87 15 LINE"
);
}
);
width = 180;
}
);
unicode = 002C;
},
{
glyphname = exclam;
layers = (
{
components = (
{
name = period;
transform = "{1, 0, 0, 1, 11, 0}";
}
);
layerId = "784662A0-BFC3-4940-8AA1-9AA8A3FE0938";
paths = (
{
closed = 1;
nodes = (
"81 684 LINE",
"81 520 LINE",
"85 197 LINE",
"117 197 LINE",
"121 520 LINE",
"121 684 LINE"
);
}
);
width = 202;
}
);
unicode = 0021;
},
{
glyphname = exclamdown;
layers = (
{
layerId = "784662A0-BFC3-4940-8AA1-9AA8A3FE0938";
paths = (
{
closed = 1;
nodes = (
"121 -164 LINE",
"121 0 LINE",
"117 323 LINE",
"85 323 LINE",
"81 0 LINE",
"81 -164 LINE"
);
},
{
closed = 1;
nodes = (
"120 456 OFFCURVE",
"135 472 OFFCURVE",
"135 492 CURVE SMOOTH",
"135 511 OFFCURVE",
"120 527 OFFCURVE",
"101 527 CURVE SMOOTH",
"82 527 OFFCURVE",
"67 511 OFFCURVE",
"67 492 CURVE SMOOTH",
"67 472 OFFCURVE",
"82 456 OFFCURVE",
"101 456 CURVE SMOOTH"
);
}
);
width = 202;
}
);
leftMetricsKey = exclam;
rightMetricsKey = exclam;
unicode = 00A1;
},
{
glyphname = numbersign;
layers = (
{
layerId = "784662A0-BFC3-4940-8AA1-9AA8A3FE0938";
paths = (
{
closed = 1;
nodes = (
"459 0 LINE",
"545 699 LINE",
"511 699 LINE",
"425 0 LINE"
);
},
{
closed = 1;
nodes = (
"635 236 LINE",
"44 236 LINE",
"43 199 LINE",
"634 199 LINE"
);
},
{
closed = 1;
nodes = (
"199 0 LINE",
"285 699 LINE",
"251 699 LINE",
"165 0 LINE"
);
},
{
closed = 1;
nodes = (
"667 496 LINE",
"76 496 LINE",
"75 460 LINE",
"666 460 LINE"
);
}
);
width = 711;
}
);
unicode = 0023;
},
